SplineFontDB: 1.0
FontName: Loma
FullName: Loma
FamilyName: Loma
Weight: Book
Copyright: Copyright (c) NECTEC, 2003. All rights reserved.
Version: 0.9.1; 2003
ItalicAngle: 0
UnderlinePosition: -217
UnderlineWidth: 150
Ascent: 1638
Descent: 410
NeedsXUIDChange: 1
FSType: 0
PfmFamily: 17
TTFWeight: 400
TTFWidth: 5
Panose: 2 11 5 4 2 2 2 2 2 4
LineGap: 0
VLineGap: 0
OS2TypoAscent: 2089
OS2TypoDescent: -430
OS2TypoLinegap: 0
OS2WinAscent: 2089
OS2WinAOffset: 1
OS2WinDescent: 430
OS2WinDOffset: 1
HheadAscent: 0
HheadAOffset: 1
HheadDescent: 0
HheadDOffset: 1
ScriptLang: 2
 1 latn 1 dflt 
 1 thai 4 KUY  PAL  THA  dflt 
TableOrder: GPOS 1
	'kern'
LangName: 1024 "Copyright (c) NECTEC, 2003. All rights reserved." "Loma" "Regular" "Nectec UI" "Loma Regular" "Version 0.1; 2003 " "Loma-Regular" "SLThaiUI is a trademark of the NECTEC." "" "Mr.Sirichai Lerdvorawut" "" "http://www.opentle.org" "http://www.opentle.org" "GPL" 
LangName: 1033 "" "" "Regular" "Nectec UI - Loma" "" "" "" "SLThaiUI is a trademark of the NECTEC." "" "Mr.Sirichai Lerdvorawut" "" "http://www.opentle.org" "http://www.opentle.org" "GPL" 
Encoding: compacted
OldEncoding: unicode
UnicodeInterp: none
DisplaySize: -36
AntiAlias: 1
FitToEm: 1
WinInfo: 100 20 9
BeginChars: 271 271
StartChar: .notdef
Encoding: 0 -1 0
OldEncoding: 0
Width: 1536
Flags: HW
Fore
256 0 m 1
 256 1280 l 1
 1280 1280 l 1
 1280 0 l 1
 256 0 l 1
288 32 m 1
 1248 32 l 1
 1248 1248 l 1
 288 1248 l 1
 288 32 l 1
EndSplineSet
EndChar
StartChar: exclam
Encoding: 3 33 5
OldEncoding: 33
Width: 569
Flags: HW
Fore
198 999 m 1
 198 1450 l 1
 378 1450 l 1
 378 999 l 1
 335 365 l 1
 242 365 l 1
 198 999 l 1
206 194 m 1
 370 194 l 1
 370 0 l 1
 206 0 l 1
 206 194 l 1
EndSplineSet
EndChar
StartChar: quotedbl
Encoding: 4 34 6
OldEncoding: 34
Width: 727
Flags: HW
Fore
156 947 m 1
 106 1217 l 1
 106 1450 l 1
 286 1450 l 1
 286 1217 l 1
 241 947 l 1
 156 947 l 1
487 947 m 1
 439 1217 l 1
 439 1450 l 1
 619 1450 l 1
 619 1217 l 1
 572 947 l 1
 487 947 l 1
EndSplineSet
EndChar
StartChar: numbersign
Encoding: 5 35 7
OldEncoding: 35
Width: 1139
Flags: HW
Fore
87 -10 m 1
 174 385 l 1
 21 385 l 1
 21 565 l 1
 204 565 l 1
 278 895 l 1
 21 895 l 1
 21 1075 l 1
 308 1075 l 1
 395 1470 l 1
 575 1470 l 1
 488 1075 l 1
 767 1075 l 1
 854 1470 l 1
 1034 1470 l 1
 947 1075 l 1
 1113 1075 l 1
 1113 895 l 1
 917 895 l 1
 842 565 l 1
 1113 565 l 1
 1113 385 l 1
 812 385 l 1
 725 -10 l 1
 546 -10 l 1
 632 385 l 1
 354 385 l 1
 267 -10 l 1
 87 -10 l 1
384 565 m 1
 662 565 l 1
 737 895 l 1
 458 895 l 1
 384 565 l 1
EndSplineSet
EndChar
StartChar: dollar
Encoding: 6 36 8
OldEncoding: 36
Width: 1139
Flags: HW
Fore
491 -17 m 1
 418 -8 352 11 292 40 c 0
 236 67 187 110 146 169 c 0
 140 178 l 0
 104 233 83 296 76 367 c 1
 76 417 l 1
 255 417 l 1
 268 330 293 265 329 221 c 1
 342 207 353 195 363 185 c 0
 401 147 444 126 491 123 c 1
 491 651 l 1
 484 652 478 654 472 655 c 0
 425 665 362 690 284 731 c 1
 227 760 183 800 152 851 c 0
 121 903 106 963 106 1031 c 0
 106 1148 151 1243 241 1318 c 0
 245 1321 249 1323 252 1326 c 0
 312 1371 392 1399 491 1409 c 1
 491 1488 l 1
 634 1488 l 1
 634 1409 l 1
 648 1408 l 2
 732 1399 804 1370 864 1323 c 0
 877 1313 890 1302 902 1290 c 0
 959 1232 994 1167 1005 1094 c 1
 1008 1050 l 1
 833 1050 l 1
 826 1103 800 1153 755 1200 c 2
 745 1211 l 1
 714 1242 677 1261 634 1269 c 1
 634 790 l 1
 635 789 l 1
 730 762 l 2
 759 754 782 747 797 741 c 0
 879 708 940 662 981 604 c 0
 1022 545 1042 476 1042 397 c 0
 1042 281 1003 185 924 108 c 0
 916 100 908 93 899 86 c 0
 826 25 738 -9 634 -15 c 1
 634 -118 l 1
 491 -118 l 1
 491 -17 l 1
491 1271 m 1
 477 1269 464 1266 452 1263 c 0
 416 1252 381 1229 347 1192 c 1
 306 1150 286 1101 286 1044 c 0
 286 987 303 940 337 902 c 0
 340 899 342 896 345 893 c 0
 381 855 430 827 491 810 c 1
 491 1271 l 1
641 124 m 2
 658 127 682 136 714 151 c 0
 743 165 769 184 790 207 c 0
 811 230 827 257 840 287 c 0
 852 318 858 351 858 386 c 0
 858 446 842 494 809 531 c 1
 774 572 716 605 634 629 c 1
 634 123 l 1
 641 124 l 2
EndSplineSet
EndChar
StartChar: percent
Encoding: 7 37 9
OldEncoding: 37
Width: 1821
Flags: HW
Fore
119 1114 m 0
 119 1219 145 1308 197 1380 c 0
 250 1454 326 1491 426 1491 c 0
 521 1491 598 1458 655 1392 c 0
 715 1323 745 1227 745 1104 c 1
 744 986 713 890 654 817 c 1
 597 750 521 717 428 717 c 0
 337 717 264 750 208 815 c 0
 149 884 119 984 119 1114 c 0
432 1366 m 0
 385 1366 347 1347 320 1308 c 0
 291 1266 276 1195 276 1096 c 0
 276 1001 291 935 322 897 c 0
 352 859 389 840 432 840 c 0
 477 840 515 859 545 898 c 128
 575 937 590 1007 590 1110 c 0
 590 1204 575 1270 545 1308 c 0
 515 1347 477 1366 432 1366 c 0
1217 1491 m 1
 1397 1491 l 1
 638 -10 l 1
 458 -10 l 1
 1217 1491 l 1
1067 344 m 0
 1067 449 1093 538 1145 610 c 0
 1198 684 1275 721 1376 721 c 0
 1471 721 1547 688 1604 622 c 0
 1665 552 1696 456 1696 334 c 0
 1696 213 1665 117 1604 47 c 0
 1545 -20 1469 -53 1376 -53 c 0
 1283 -53 1209 -20 1155 46 c 0
 1096 117 1067 217 1067 344 c 0
1380 598 m 0
 1332 598 1295 579 1268 540 c 0
 1239 497 1225 426 1225 326 c 0
 1225 233 1240 167 1270 128 c 0
 1300 89 1337 70 1380 70 c 0
 1427 70 1465 89 1494 128 c 0
 1523 167 1538 237 1538 340 c 0
 1538 434 1523 500 1493 540 c 128
 1463 578 1425 598 1380 598 c 0
EndSplineSet
EndChar
StartChar: ampersand
Encoding: 8 38 10
OldEncoding: 38
Width: 1366
Flags: HW
Fore
973 172 m 1
 856 41 716 -25 553 -25 c 0
 403 -25 284 26 195 127 c 1
 124 210 88 302 88 403 c 0
 88 586 204 733 436 842 c 1
 403 880 377 914 356 944 c 0
 335 974 318 1002 306 1027 c 0
 293 1052 284 1076 280 1098 c 128
 274 1119 272 1141 272 1163 c 0
 272 1252 306 1328 375 1393 c 0
 444 1458 532 1491 637 1491 c 0
 735 1491 816 1460 880 1399 c 0
 945 1338 977 1264 977 1178 c 0
 977 1039 885 920 700 821 c 1
 963 485 l 1
 993 542 1016 611 1032 690 c 1
 1221 649 l 1
 1188 522 1144 417 1090 334 c 1
 1157 247 1233 172 1319 109 c 1
 1198 -35 l 1
 1126 13 1051 82 973 172 c 1
606 938 m 1
 684 982 735 1022 758 1057 c 0
 781 1092 793 1131 793 1174 c 0
 793 1223 777 1263 746 1295 c 0
 714 1327 674 1343 627 1343 c 0
 579 1343 539 1327 506 1296 c 0
 473 1265 457 1227 457 1182 c 0
 457 1135 480 1085 526 1030 c 1
 606 938 l 1
530 725 m 1
 433 666 368 612 334 562 c 0
 300 512 283 463 283 416 c 0
 283 355 306 292 352 229 c 1
 400 165 468 133 555 133 c 0
 581 133 609 137 638 146 c 0
 667 155 696 168 723 184 c 0
 750 201 776 220 800 242 c 0
 824 263 844 288 860 315 c 1
 530 725 l 1
EndSplineSet
EndChar
StartChar: quotesingle
Encoding: 9 39 11
OldEncoding: 39
Width: 391
Flags: HW
Fore
136 947 m 1
 90 1221 l 1
 90 1466 l 1
 295 1466 l 1
 295 1221 l 1
 247 947 l 1
 136 947 l 1
EndSplineSet
EndChar
StartChar: parenleft
Encoding: 10 40 12
OldEncoding: 40
Width: 682
Flags: HW
Fore
479 -431 m 1
 344 -260 245 -71 184 135 c 0
 144 268 124 400 124 531 c 0
 124 773 181 999 295 1209 c 0
 341 1294 402 1388 479 1491 c 1
 608 1491 l 1
 515 1332 452 1211 418 1130 c 0
 354 978 318 809 311 622 c 0
 310 592 309 561 309 530 c 0
 309 209 409 -111 608 -431 c 1
 479 -431 l 1
EndSplineSet
EndChar
StartChar: parenright
Encoding: 11 41 13
OldEncoding: 41
Width: 682
Flags: HW
Fore
253 -431 m 1
 124 -431 l 1
 323 -111 423 209 423 530 c 0
 423 742 391 931 326 1097 c 0
 290 1190 226 1316 133 1475 c 0
 129 1482 129 1482 124 1491 c 1
 253 1491 l 1
 380 1321 470 1165 523 1022 c 0
 580 871 608 707 608 531 c 0
 608 283 539 36 401 -209 c 0
 356 -288 307 -362 253 -431 c 1
EndSplineSet
EndChar
StartChar: asterisk
Encoding: 12 42 14
OldEncoding: 42
Width: 797
Flags: HW
Fore
64 1197 m 1
 110 1339 l 1
 216 1302 293 1269 341 1242 c 1
 328 1363 322 1446 321 1491 c 1
 466 1491 l 1
 464 1425 456 1342 443 1243 c 1
 512 1278 590 1310 679 1339 c 1
 725 1197 l 1
 640 1169 557 1150 476 1141 c 1
 517 1106 574 1043 648 952 c 1
 528 867 l 1
 489 920 444 991 391 1082 c 1
 342 988 298 916 261 867 c 1
 143 952 l 1
 220 1047 276 1110 309 1141 c 1
 223 1158 141 1176 64 1197 c 1
EndSplineSet
EndChar
StartChar: plus
Encoding: 13 43 15
OldEncoding: 43
Width: 1196
Flags: HW
Fore
513 237 m 1
 513 639 l 1
 114 639 l 1
 114 807 l 1
 513 807 l 1
 513 1206 l 1
 683 1206 l 1
 683 807 l 1
 1082 807 l 1
 1082 639 l 1
 683 639 l 1
 683 237 l 1
 513 237 l 1
EndSplineSet
EndChar
StartChar: comma
Encoding: 14 44 16
OldEncoding: 44
Width: 569
Flags: HW
Fore
182 0 m 1
 182 205 l 1
 387 205 l 1
 387 0 l 2
 387 -75 374 -136 347 -182 c 0
 320 -229 278 -265 220 -290 c 1
 170 -213 l 1
 208 -196 236 -172 254 -140 c 0
 272 -107 282 -61 284 0 c 1
 182 0 l 1
EndSplineSet
EndChar
StartChar: hyphen
Encoding: 15 45 17
OldEncoding: 45
Width: 682
Flags: HW
Fore
65 440 m 1
 65 621 l 1
 618 621 l 1
 618 440 l 1
 65 440 l 1
EndSplineSet
EndChar
StartChar: period
Encoding: 16 46 18
OldEncoding: 46
Width: 569
Flags: HW
Fore
186 0 m 1
 186 205 l 1
 391 205 l 1
 391 0 l 1
 186 0 l 1
EndSplineSet
EndChar
StartChar: slash
Encoding: 17 47 19
OldEncoding: 47
Width: 595
Flags: HW
Fore
-81 -10 m 1
 506 1470 l 1
 688 1470 l 1
 102 -10 l 1
 -81 -10 l 1
EndSplineSet
EndChar
StartChar: zero
Encoding: 18 48 20
OldEncoding: 48
Width: 1139
Flags: HW
Fore
86 723 m 0
 86 890 102 1026 135 1133 c 0
 202 1350 345 1459 563 1459 c 0
 881 1459 1040 1214 1040 723 c 0
 1040 540 1020 394 979 285 c 0
 908 96 770 -2 563 -10 c 1
 499 -10 442 -0 391 19 c 0
 188 95 86 330 86 723 c 0
270 723 m 0
 270 662 272 607 277 557 c 0
 301 279 396 140 563 140 c 0
 758 141 856 335 856 723 c 0
 856 1114 758 1309 561 1309 c 0
 486 1309 425 1283 380 1231 c 0
 307 1145 270 976 270 723 c 0
EndSplineSet
EndChar
StartChar: one
Encoding: 19 49 21
OldEncoding: 49
Width: 1139
Flags: HW
Fore
763 0 m 1
 583 0 l 1
 583 1135 l 1
 540 1069 474 1013 385 966 c 0
 331 937 277 918 223 907 c 1
 223 1104 l 1
 328 1153 417 1221 490 1306 c 0
 538 1363 569 1419 583 1472 c 1
 763 1472 l 1
 763 0 l 1
EndSplineSet
KernsSLIF: 19 -152 0 0
EndChar
StartChar: two
Encoding: 20 50 22
OldEncoding: 50
Width: 1139
Flags: HW
Fore
1031 173 m 1
 1031 0 l 1
 62 0 l 1
 74 145 163 295 330 450 c 0
 361 478 396 509 437 542 c 0
 558 641 640 714 685 759 c 0
 782 858 834 955 843 1049 c 0
 844 1059 844 1069 844 1079 c 0
 844 1161 813 1226 752 1274 c 0
 702 1313 641 1333 568 1333 c 0
 459 1333 379 1294 329 1217 c 0
 298 1169 282 1110 281 1039 c 1
 96 1039 l 1
 96 1168 139 1274 224 1356 c 0
 312 1440 428 1482 572 1482 c 0
 713 1482 825 1442 910 1363 c 0
 989 1289 1029 1193 1029 1075 c 0
 1029 945 977 822 873 705 c 0
 829 656 755 588 650 501 c 2
 596 455 l 1
 430 317 l 1
 386 278 347 230 312 173 c 1
 1031 173 l 1
EndSplineSet
EndChar
StartChar: three
Encoding: 21 51 23
OldEncoding: 51
Width: 1139
Flags: HW
Fore
86 427 m 1
 266 427 l 1
 269 383 l 1
 281 312 317 255 377 211 c 0
 428 174 486 156 553 156 c 0
 648 156 725 187 782 248 c 0
 831 301 855 366 855 445 c 0
 855 547 818 622 744 669 c 0
 698 698 642 713 576 713 c 0
 533 713 488 707 441 694 c 1
 441 852 l 1
 495 850 l 1
 582 853 654 880 711 932 c 0
 763 979 789 1037 789 1105 c 0
 789 1188 755 1248 688 1285 c 0
 649 1306 603 1317 549 1317 c 0
 407 1317 320 1244 289 1099 c 1
 284 1070 l 1
 104 1070 l 1
 104 1170 139 1259 210 1337 c 0
 283 1417 374 1464 485 1478 c 0
 505 1481 525 1482 545 1482 c 0
 662 1482 761 1448 842 1380 c 0
 923 1312 967 1226 973 1123 c 0
 974 1116 974 1108 974 1101 c 0
 974 1002 936 919 861 852 c 0
 834 829 805 809 772 794 c 1
 919 760 1007 677 1036 546 c 0
 1043 516 1046 484 1046 449 c 0
 1046 325 1004 220 920 135 c 1
 881 100 l 1
 790 27 681 -10 552 -10 c 0
 429 -10 324 29 236 106 c 0
 153 178 105 267 90 372 c 0
 87 391 86 409 86 427 c 1
EndSplineSet
EndChar
StartChar: four
Encoding: 22 52 24
OldEncoding: 52
Width: 1139
Flags: HW
Fore
662 0 m 1
 662 347 l 1
 26 347 l 1
 26 522 l 1
 662 1472 l 1
 842 1472 l 1
 842 522 l 1
 1040 522 l 1
 1040 347 l 1
 842 347 l 1
 842 0 l 1
 662 0 l 1
662 522 m 1
 662 1117 l 1
 251 522 l 1
 662 522 l 1
EndSplineSet
EndChar
StartChar: five
Encoding: 23 53 25
OldEncoding: 53
Width: 1139
Flags: HW
Fore
85 415 m 1
 274 415 l 1
 294 284 354 202 454 169 c 0
 485 159 519 154 556 154 c 0
 658 154 738 191 795 265 c 0
 842 326 866 403 866 496 c 0
 866 619 825 708 744 764 c 0
 693 799 629 817 553 817 c 0
 454 817 372 773 306 686 c 1
 117 708 l 1
 259 1472 l 1
 988 1472 l 1
 988 1292 l 1
 423 1292 l 1
 344 920 l 1
 397 964 480 986 591 987 c 0
 601 987 l 0
 727 987 832 946 917 864 c 0
 1003 781 1049 673 1056 542 c 0
 1057 532 1057 522 1057 512 c 0
 1057 370 1015 251 932 155 c 0
 848 57 738 3 603 -8 c 0
 588 -9 572 -10 556 -10 c 0
 395 -10 272 43 187 148 c 0
 130 219 96 308 85 415 c 1
EndSplineSet
EndChar
StartChar: six
Encoding: 24 54 26
OldEncoding: 54
Width: 1139
Flags: HW
Fore
1019 1103 m 1
 840 1103 l 1
 814 1220 748 1286 641 1302 c 0
 626 1304 609 1305 592 1305 c 0
 383 1305 276 1151 271 842 c 1
 332 918 415 962 522 973 c 0
 545 976 569 977 594 977 c 0
 709 977 808 937 893 858 c 0
 976 779 1026 679 1041 559 c 0
 1044 536 1045 514 1045 491 c 0
 1045 354 1006 240 929 147 c 0
 850 51 746 -1 618 -9 c 0
 607 -10 597 -10 586 -10 c 0
 363 -10 213 97 135 312 c 0
 96 418 77 548 77 701 c 0
 77 1078 171 1320 360 1425 c 0
 429 1463 510 1482 603 1482 c 0
 719 1482 817 1446 897 1374 c 0
 972 1307 1012 1225 1018 1128 c 0
 1019 1120 1019 1112 1019 1103 c 1
306 490 m 0
 306 381 336 296 395 233 c 0
 444 181 506 155 583 155 c 0
 676 155 749 191 800 263 c 0
 841 321 861 393 861 480 c 0
 861 593 828 679 762 739 c 0
 713 784 651 807 576 807 c 0
 480 807 407 769 358 692 c 0
 323 637 306 570 306 490 c 0
EndSplineSet
EndChar
StartChar: seven
Encoding: 25 55 27
OldEncoding: 55
Width: 1139
Flags: HW
Fore
97 1292 m 1
 97 1472 l 1
 1046 1472 l 1
 1046 1292 l 1
 895 1111 772 911 675 692 c 0
 566 446 511 215 511 0 c 1
 293 0 l 1
 294 235 359 494 486 776 c 0
 577 979 680 1151 795 1292 c 1
 97 1292 l 1
EndSplineSet
EndChar
StartChar: eight
Encoding: 26 56 28
OldEncoding: 56
Width: 1139
Flags: HW
Fore
362 805 m 1
 215 859 142 959 142 1104 c 0
 142 1218 183 1310 264 1381 c 0
 342 1448 442 1482 563 1482 c 0
 689 1482 792 1445 872 1372 c 0
 950 1301 989 1210 989 1099 c 0
 989 967 926 873 799 816 c 2
 773 805 l 1
 911 760 997 677 1032 556 c 0
 1043 519 1049 478 1049 434 c 1
 1045 368 l 1
 1030 233 968 132 859 65 c 0
 778 15 681 -10 566 -10 c 0
 425 -10 309 31 220 113 c 0
 130 195 84 302 83 434 c 0
 83 437 83 437 83 439 c 0
 83 588 140 696 255 762 c 0
 287 781 323 795 362 805 c 1
326 1110 m 1
 326 1026 357 963 419 921 c 0
 460 894 509 880 567 880 c 0
 648 880 710 907 755 960 c 0
 788 999 804 1045 804 1100 c 0
 804 1176 775 1236 718 1279 c 0
 675 1310 624 1326 565 1326 c 0
 486 1326 424 1301 378 1250 c 1
 357 1222 l 1
 340 1189 l 1
 330 1151 l 1
 326 1110 l 1
268 438 m 0
 268 347 300 273 365 218 c 0
 420 171 488 147 568 147 c 0
 666 147 743 179 799 242 c 0
 843 293 865 356 865 432 c 0
 865 535 824 610 742 657 c 0
 693 685 633 699 562 699 c 0
 453 699 373 666 320 601 c 0
 285 558 268 503 268 438 c 0
EndSplineSet
EndChar
StartChar: nine
Encoding: 27 57 29
OldEncoding: 57
Width: 1139
Flags: HW
Fore
139 369 m 1
 318 369 l 1
 344 252 410 186 517 170 c 0
 532 168 549 167 566 167 c 0
 775 167 882 321 887 630 c 1
 826 554 743 510 636 499 c 0
 613 496 589 495 564 495 c 0
 449 495 350 535 265 614 c 0
 182 693 132 793 117 913 c 0
 114 936 113 958 113 981 c 0
 113 1118 152 1232 229 1325 c 0
 308 1421 412 1473 540 1481 c 0
 551 1482 561 1482 572 1482 c 0
 795 1482 945 1375 1023 1160 c 0
 1062 1054 1081 924 1081 771 c 0
 1081 394 987 152 798 47 c 0
 729 9 648 -10 555 -10 c 0
 439 -10 341 26 261 98 c 0
 186 165 146 247 140 344 c 0
 139 352 139 360 139 369 c 1
852 982 m 0
 852 1091 822 1176 763 1239 c 0
 714 1291 652 1317 575 1317 c 0
 482 1317 409 1281 358 1209 c 1
 335 1170 l 1
 310 1119 297 1060 297 992 c 0
 297 879 330 793 396 733 c 0
 445 688 507 665 582 665 c 0
 678 665 751 703 800 780 c 0
 835 835 852 902 852 982 c 0
EndSplineSet
EndChar
StartChar: colon
Encoding: 28 58 30
OldEncoding: 58
Width: 569
Flags: HW
Fore
185 857 m 1
 185 1062 l 1
 390 1062 l 1
 390 857 l 1
 185 857 l 1
185 0 m 1
 185 205 l 1
 390 205 l 1
 390 0 l 1
 185 0 l 1
EndSplineSet
EndChar
StartChar: semicolon
Encoding: 29 59 31
OldEncoding: 59
Width: 569
Flags: HW
Fore
182 857 m 1
 182 1062 l 1
 387 1062 l 1
 387 857 l 1
 182 857 l 1
182 0 m 1
 182 205 l 1
 387 205 l 1
 387 0 l 2
 387 -120 351 -206 278 -257 c 1
 261 -270 242 -281 220 -290 c 1
 170 -213 l 1
 225 -189 259 -147 273 -87 c 0
 279 -63 283 -34 284 0 c 1
 182 0 l 1
EndSplineSet
EndChar
StartChar: less
Encoding: 30 60 32
OldEncoding: 60
Width: 1196
Flags: HW
Fore
112 641 m 1
 112 809 l 1
 1083 1219 l 1
 1083 1040 l 1
 313 724 l 1
 1083 405 l 1
 1083 226 l 1
 112 641 l 1
EndSplineSet
EndChar
StartChar: equal
Encoding: 31 61 33
OldEncoding: 61
Width: 1196
Flags: HW
Fore
1082 862 m 1
 114 862 l 1
 114 1030 l 1
 1082 1030 l 1
 1082 862 l 1
1082 417 m 1
 114 417 l 1
 114 585 l 1
 1082 585 l 1
 1082 417 l 1
EndSplineSet
EndChar
StartChar: greater
Encoding: 32 62 34
OldEncoding: 62
Width: 1196
Flags: HW
Fore
1083 641 m 1
 112 226 l 1
 112 405 l 1
 881 724 l 1
 112 1040 l 1
 112 1219 l 1
 1083 809 l 1
 1083 641 l 1
EndSplineSet
EndChar
StartChar: question
Encoding: 33 63 35
OldEncoding: 63
Width: 1139
Flags: HW
Fore
472 361 m 1
 474 436 l 1
 482 547 520 641 589 719 c 0
 606 738 643 773 700 826 c 0
 759 879 800 928 823 972 c 0
 842 1009 852 1048 853 1088 c 0
 853 1127 844 1164 825 1199 c 0
 792 1263 738 1306 665 1328 c 0
 634 1337 602 1341 568 1341 c 0
 428 1340 336 1268 292 1123 c 0
 285 1099 279 1073 275 1046 c 1
 90 1046 l 1
 97 1175 142 1282 223 1367 c 0
 311 1458 425 1504 565 1504 c 0
 696 1504 806 1467 896 1392 c 0
 979 1323 1025 1239 1035 1138 c 1
 1036 1084 l 1
 1033 1027 1018 971 991 914 c 0
 972 875 934 830 878 780 c 0
 819 729 782 694 766 676 c 0
 693 597 653 502 646 389 c 0
 645 380 645 370 645 361 c 1
 472 361 l 1
461 0 m 1
 461 205 l 1
 666 205 l 1
 666 0 l 1
 461 0 l 1
EndSplineSet
EndChar
StartChar: at
Encoding: 34 64 36
OldEncoding: 64
Width: 2079
Flags: HW
Fore
1161 121 m 1
 1090 38 987 -3 854 -3 c 0
 747 -3 661 44 595 138 c 0
 533 225 502 333 502 461 c 0
 502 570 526 671 574 764 c 0
 629 873 702 957 792 1015 c 0
 862 1061 935 1084 1011 1084 c 0
 1153 1084 1254 1035 1313 938 c 1
 1347 1079 l 1
 1526 1079 l 1
 1380 379 l 1
 1367 315 1358 265 1352 229 c 1
 1353 212 l 1
 1356 202 1362 192 1372 182 c 0
 1386 169 1403 163 1422 163 c 0
 1492 163 1563 206 1634 291 c 0
 1703 374 1752 471 1780 580 c 0
 1793 628 1799 673 1799 716 c 0
 1799 885 1742 1025 1627 1138 c 0
 1522 1242 1386 1306 1220 1329 c 0
 1179 1335 1136 1338 1093 1338 c 0
 882 1338 704 1276 557 1152 c 0
 525 1125 495 1095 468 1063 c 0
 350 924 284 754 271 553 c 0
 270 531 269 508 269 485 c 0
 269 220 358 22 535 -110 c 0
 682 -219 877 -274 1120 -274 c 0
 1346 -274 1532 -224 1677 -125 c 0
 1737 -84 1786 -36 1824 19 c 1
 2005 19 l 1
 1941 -113 1835 -219 1686 -300 c 0
 1525 -387 1337 -431 1123 -431 c 0
 831 -431 596 -361 418 -222 c 0
 240 -83 139 112 116 361 c 0
 113 396 111 432 111 469 c 0
 111 705 171 911 291 1087 c 0
 406 1256 562 1373 758 1439 c 0
 865 1475 979 1493 1102 1493 c 0
 1311 1493 1491 1439 1642 1332 c 0
 1785 1231 1879 1098 1926 933 c 0
 1946 863 1956 790 1956 713 c 0
 1956 575 1918 440 1843 307 c 0
 1772 181 1683 88 1577 28 c 0
 1504 -13 1430 -33 1354 -33 c 0
 1308 -33 1271 -26 1242 -12 c 0
 1214 2 1193 22 1180 48 c 0
 1170 67 1164 91 1161 121 c 1
891 161 m 0
 985 161 1066 207 1133 299 c 0
 1194 382 1229 480 1240 593 c 0
 1242 612 1243 630 1243 649 c 0
 1243 768 1209 850 1140 894 c 0
 1107 915 1069 925 1024 925 c 0
 912 925 823 862 756 737 c 0
 743 713 732 687 722 660 c 0
 717 648 713 636 709 623 c 0
 692 567 683 510 683 453 c 0
 683 350 708 272 758 218 c 0
 794 180 838 161 891 161 c 0
EndSplineSet
EndChar
StartChar: A
Encoding: 35 65 37
OldEncoding: 65
Width: 1366
Flags: HW
Fore
559 1450 m 1
 768 1450 l 1
 1368 0 l 1
 1149 0 l 1
 948 471 l 1
 392 471 l 1
 203 0 l 1
 -2 0 l 1
 559 1450 l 1
903 653 m 1
 659 1237 l 1
 435 653 l 1
 903 653 l 1
EndSplineSet
KernsSLIF: 91 -37 0 0 89 -37 0 0 88 -37 0 0 59 -152 0 0 57 -76 0 0 56 -152 0 0 54 -152 0 0
EndChar
StartChar: B
Encoding: 36 66 38
OldEncoding: 66
Width: 1366
Flags: HW
Fore
164 0 m 1
 164 1450 l 1
 700 1450 l 2
 812 1450 902 1435 970 1406 c 0
 1045 1373 1102 1320 1142 1249 c 0
 1171 1196 1186 1140 1186 1079 c 0
 1186 1019 1169 961 1135 906 c 0
 1101 851 1050 806 981 772 c 1
 1070 746 1138 702 1186 639 c 0
 1233 576 1257 504 1257 421 c 0
 1257 326 1229 240 1172 164 c 0
 1152 137 1130 115 1106 97 c 0
 1063 65 1010 41 946 24 c 0
 881 8 802 0 709 0 c 2
 164 0 l 1
344 842 m 1
 661 842 l 2
 747 842 809 848 846 859 c 0
 945 888 995 954 995 1056 c 0
 995 1136 967 1195 910 1233 c 0
 895 1243 878 1251 860 1256 c 0
 817 1270 742 1277 637 1277 c 2
 344 1277 l 1
 344 842 l 1
344 173 m 1
 709 173 l 2
 798 173 861 180 898 193 c 0
 916 199 934 208 953 220 c 0
 1012 257 1045 312 1054 386 c 0
 1055 397 1056 409 1056 421 c 0
 1056 510 1022 576 953 619 c 0
 936 630 918 638 898 644 c 0
 848 661 776 669 683 669 c 2
 344 669 l 1
 344 173 l 1
EndSplineSet
EndChar
StartChar: C
Encoding: 37 67 39
OldEncoding: 67
Width: 1479
Flags: HW
Fore
1210 480 m 1
 1398 480 l 1
 1349 287 1253 150 1110 68 c 0
 1019 16 912 -10 791 -10 c 0
 633 -10 505 22 406 86 c 0
 307 151 231 244 180 366 c 0
 128 488 102 614 102 745 c 0
 102 888 131 1016 190 1130 c 0
 248 1243 331 1329 438 1388 c 0
 546 1447 665 1477 794 1477 c 0
 941 1477 1064 1440 1164 1365 c 0
 1264 1290 1334 1185 1373 1050 c 1
 1185 1050 l 1
 1148 1171 1065 1247 934 1280 c 0
 890 1291 842 1297 790 1297 c 0
 677 1297 583 1270 508 1216 c 0
 369 1117 299 960 299 746 c 0
 299 635 321 531 364 434 c 0
 421 309 512 228 637 191 c 0
 684 177 735 170 788 170 c 0
 914 170 1017 204 1098 272 c 0
 1165 328 1202 397 1210 480 c 1
EndSplineSet
EndChar
StartChar: D
Encoding: 38 68 40
OldEncoding: 68
Width: 1479
Flags: HW
Fore
168 0 m 1
 168 1450 l 1
 673 1450 l 2
 972 1450 1175 1362 1281 1186 c 0
 1347 1077 1380 926 1380 733 c 0
 1380 318 1217 80 891 17 c 0
 832 6 767 0 697 0 c 2
 168 0 l 1
350 173 m 1
 675 173 l 2
 998 173 1167 344 1182 686 c 0
 1183 702 1183 719 1183 736 c 0
 1183 1069 1037 1248 746 1274 c 0
 721 1276 696 1277 670 1277 c 2
 350 1277 l 1
 350 173 l 1
EndSplineSet
EndChar
StartChar: E
Encoding: 39 69 41
OldEncoding: 69
Width: 1366
Flags: HW
Fore
162 0 m 1
 162 1450 l 1
 1222 1450 l 1
 1222 1268 l 1
 341 1268 l 1
 341 826 l 1
 1021 826 l 1
 1021 646 l 1
 341 646 l 1
 341 179 l 1
 1222 179 l 1
 1222 0 l 1
 162 0 l 1
EndSplineSet
EndChar
StartChar: F
Encoding: 40 70 42
OldEncoding: 70
Width: 1251
Flags: HW
Fore
168 0 m 1
 168 1450 l 1
 1157 1450 l 1
 1157 1271 l 1
 347 1271 l 1
 347 820 l 1
 1009 820 l 1
 1009 641 l 1
 347 641 l 1
 347 0 l 1
 168 0 l 1
EndSplineSet
KernsSLIF: 35 -113 0 0 16 -227 0 0 14 -227 0 0
EndChar
StartChar: G
Encoding: 41 71 43
OldEncoding: 71
Width: 1479
Flags: HW
Fore
1404 684 m 1
 1404 666 1404 666 1404 650 c 0
 1403 497 1389 387 1362 320 c 0
 1345 276 1311 224 1260 164 c 0
 1257 161 1255 159 1253 156 c 0
 1154 45 1000 -10 791 -10 c 0
 633 -10 505 22 406 86 c 0
 307 151 231 244 180 366 c 0
 128 488 102 614 102 745 c 0
 102 888 131 1016 190 1130 c 0
 248 1243 331 1329 438 1388 c 0
 546 1447 665 1477 794 1477 c 0
 941 1477 1064 1440 1164 1365 c 0
 1264 1290 1334 1185 1373 1050 c 1
 1185 1050 l 1
 1174 1087 1158 1119 1138 1148 c 0
 1068 1247 952 1297 790 1297 c 0
 677 1297 583 1270 508 1216 c 0
 369 1117 299 960 299 746 c 0
 299 635 321 531 364 434 c 0
 382 394 404 358 430 327 c 0
 516 222 635 170 788 170 c 0
 797 170 807 170 816 171 c 0
 939 176 1037 214 1112 284 c 1
 1126 299 l 2
 1173 350 1201 405 1210 465 c 1
 1212 504 l 1
 905 504 l 1
 905 684 l 1
 1404 684 l 1
EndSplineSet
EndChar
StartChar: H
Encoding: 42 72 44
OldEncoding: 72
Width: 1479
Flags: HW
Fore
164 0 m 1
 164 1450 l 1
 344 1450 l 1
 344 848 l 1
 1134 848 l 1
 1134 1450 l 1
 1314 1450 l 1
 1314 0 l 1
 1134 0 l 1
 1134 668 l 1
 344 668 l 1
 344 0 l 1
 164 0 l 1
EndSplineSet
EndChar
StartChar: I
Encoding: 43 73 45
OldEncoding: 73
Width: 650
Flags: HW
Fore
625 160 m 1
 625 0 l 1
 25 0 l 1
 25 160 l 1
 235 160 l 1
 235 1290 l 1
 25 1290 l 1
 25 1450 l 1
 625 1450 l 1
 625 1290 l 1
 415 1290 l 1
 415 160 l 1
 625 160 l 1
EndSplineSet
EndChar
StartChar: J
Encoding: 44 74 46
OldEncoding: 74
Width: 1024
Flags: HW
Fore
865 1450 m 1
 865 456 l 2
 865 331 847 237 811 172 c 0
 803 157 794 143 783 129 c 0
 720 47 630 1 513 -8 c 1
 463 -10 l 1
 338 -10 242 24 173 92 c 0
 164 100 156 109 148 118 c 0
 99 176 71 264 66 381 c 0
 65 402 64 427 64 455 c 1
 244 455 l 1
 247 378 l 1
 252 323 266 279 291 246 c 0
 329 195 386 170 462 170 c 0
 520 170 566 183 600 209 c 0
 615 220 630 235 645 252 c 0
 670 281 684 333 685 408 c 0
 685 421 685 421 685 471 c 2
 685 1280 l 1
 408 1280 l 1
 408 1450 l 1
 865 1450 l 1
EndSplineSet
EndChar
StartChar: K
Encoding: 45 75 47
OldEncoding: 75
Width: 1366
Flags: HW
Fore
150 0 m 1
 150 1450 l 1
 330 1450 l 1
 330 785 l 1
 1072 1450 l 1
 1316 1450 l 1
 610 806 l 1
 1346 0 l 1
 1113 0 l 1
 479 670 l 1
 330 539 l 1
 330 0 l 1
 150 0 l 1
EndSplineSet
EndChar
StartChar: L
Encoding: 46 76 48
OldEncoding: 76
Width: 1139
Flags: HW
Fore
150 0 m 1
 150 1450 l 1
 330 1450 l 1
 330 170 l 1
 1060 170 l 1
 1060 0 l 1
 150 0 l 1
EndSplineSet
KernsSLIF: 91 -76 0 0 59 -152 0 0 57 -152 0 0 56 -152 0 0 54 -152 0 0
EndChar
StartChar: M
Encoding: 47 77 49
OldEncoding: 77
Width: 1706
Flags: HW
Fore
152 0 m 1
 152 1450 l 1
 332 1450 l 1
 851 133 l 1
 1370 1450 l 1
 1550 1450 l 1
 1550 0 l 1
 1370 0 l 1
 1370 964 l 1
 996 0 l 1
 706 0 l 1
 332 964 l 1
 332 0 l 1
 152 0 l 1
EndSplineSet
EndChar
StartChar: N
Encoding: 48 78 50
OldEncoding: 78
Width: 1479
Flags: HW
Fore
156 0 m 1
 156 1450 l 1
 336 1450 l 1
 1131 315 l 1
 1131 1450 l 1
 1311 1450 l 1
 1311 0 l 1
 1131 0 l 1
 336 1136 l 1
 336 0 l 1
 156 0 l 1
EndSplineSet
EndChar
StartChar: O
Encoding: 49 79 51
OldEncoding: 79
Width: 1593
Flags: HW
Fore
104 714 m 0
 104 949 165 1135 288 1271 c 1
 415 1407 586 1476 801 1478 c 1
 1000 1478 1162 1416 1287 1293 c 0
 1406 1176 1474 1020 1492 825 c 0
 1495 794 1496 763 1496 731 c 0
 1496 524 1440 354 1329 221 c 0
 1222 93 1080 18 901 -4 c 0
 868 -8 835 -10 800 -10 c 0
 610 -10 452 48 326 165 c 0
 211 272 140 410 114 580 c 0
 107 624 104 669 104 714 c 0
304 711 m 0
 304 528 356 388 460 291 c 0
 546 210 659 170 799 170 c 0
 978 170 1110 233 1197 358 c 0
 1263 453 1296 578 1296 732 c 0
 1296 927 1244 1074 1139 1175 c 0
 1054 1257 941 1298 802 1298 c 0
 579 1298 430 1206 355 1021 c 0
 321 936 304 832 304 711 c 0
EndSplineSet
EndChar
StartChar: P
Encoding: 50 80 52
OldEncoding: 80
Width: 1366
Flags: HW
Fore
158 0 m 1
 158 1450 l 1
 711 1450 l 2
 846 1450 944 1440 1005 1421 c 0
 1044 1409 1080 1391 1115 1368 c 0
 1181 1322 1228 1255 1255 1168 c 0
 1270 1123 1277 1075 1277 1026 c 0
 1277 901 1237 796 1158 710 c 0
 1079 623 935 580 728 580 c 2
 338 580 l 1
 338 0 l 1
 158 0 l 1
338 753 m 1
 731 753 l 2
 856 753 945 776 998 823 c 0
 1051 870 1077 935 1077 1020 c 0
 1077 1107 1048 1174 990 1222 c 1
 959 1243 l 1
 943 1252 926 1259 908 1264 c 0
 875 1273 815 1277 727 1277 c 2
 338 1277 l 1
 338 753 l 1
EndSplineSet
KernsSLIF: 35 -152 0 0 16 -264 0 0 14 -264 0 0
EndChar
StartChar: Q
Encoding: 51 81 53
OldEncoding: 81
Width: 1659
Flags: HW
Fore
1194 354 m 1
 1252 426 1285 532 1294 673 c 0
 1295 692 1296 712 1296 732 c 0
 1296 927 1244 1074 1139 1175 c 0
 1054 1257 941 1298 802 1298 c 0
 579 1298 430 1206 355 1021 c 0
 321 936 304 832 304 711 c 0
 304 527 356 387 460 290 c 0
 485 267 513 247 543 230 c 1
 565 314 617 379 699 424 c 0
 736 445 777 460 822 468 c 0
 846 473 870 475 895 475 c 0
 986 474 1068 449 1141 399 c 0
 1162 385 1179 370 1194 354 c 1
1317 204 m 1
 1334 185 1358 176 1390 175 c 0
 1404 175 1419 177 1435 181 c 0
 1474 190 1506 206 1533 228 c 1
 1659 90 l 1
 1585 21 1498 -14 1399 -14 c 0
 1344 -14 1292 -3 1244 20 c 0
 1207 38 1178 61 1156 88 c 1
 1077 36 993 5 904 -5 c 1
 820 -10 l 2
 800 -10 l 0
 610 -10 452 48 326 165 c 0
 211 272 140 410 114 580 c 0
 107 624 104 669 104 714 c 0
 104 949 165 1135 288 1271 c 1
 415 1407 586 1476 801 1478 c 1
 1000 1478 1162 1416 1287 1293 c 0
 1406 1176 1474 1020 1492 825 c 0
 1495 794 1496 763 1496 731 c 0
 1496 526 1457 371 1378 266 c 0
 1359 242 1339 221 1317 204 c 1
1050 226 m 1
 1010 273 963 297 908 297 c 0
 897 297 887 296 876 294 c 0
 807 281 761 243 740 181 c 0
 739 178 739 176 738 174 c 1
 755 169 776 167 803 167 c 0
 880 168 947 179 1006 202 c 0
 1024 209 1039 217 1050 226 c 1
EndSplineSet
EndChar
StartChar: R
Encoding: 52 82 54
OldEncoding: 82
Width: 1400
Flags: HW
Fore
698 580 m 1
 338 580 l 1
 338 0 l 1
 158 0 l 1
 158 1450 l 1
 711 1450 l 2
 846 1450 944 1440 1005 1421 c 0
 1044 1409 1080 1391 1115 1368 c 0
 1181 1322 1228 1255 1255 1168 c 0
 1270 1123 1277 1075 1277 1026 c 0
 1277 901 1237 796 1158 710 c 0
 1107 654 1029 616 924 596 c 1
 1387 0 l 1
 1107 0 l 1
 698 580 l 1
338 753 m 1
 731 753 l 2
 856 753 945 776 998 823 c 0
 1051 870 1077 935 1077 1020 c 0
 1077 1107 1048 1174 990 1222 c 1
 959 1243 l 1
 943 1252 926 1259 908 1264 c 0
 875 1273 815 1277 727 1277 c 2
 338 1277 l 1
 338 753 l 1
EndSplineSet
KernsSLIF: 59 -37 0 0 57 -37 0 0 56 -37 0 0 54 -37 0 0
EndChar
StartChar: S
Encoding: 53 83 55
OldEncoding: 83
Width: 1366
Flags: HW
Fore
92 502 m 1
 275 502 l 1
 294 346 373 243 512 194 c 0
 569 174 634 164 708 164 c 0
 829 164 923 191 991 245 c 0
 1045 289 1072 345 1072 413 c 0
 1072 496 1030 555 946 592 c 0
 921 603 891 613 855 622 c 1
 639 666 l 1
 486 703 377 742 310 781 c 0
 209 841 155 928 149 1041 c 0
 148 1050 148 1058 148 1067 c 0
 148 1193 200 1293 303 1367 c 0
 398 1436 519 1471 664 1471 c 0
 825 1471 957 1428 1060 1342 c 0
 1080 1325 1098 1307 1115 1287 c 1
 1146 1245 l 1
 1179 1195 1200 1139 1209 1078 c 1
 1215 1019 l 1
 1029 1019 l 1
 1018 1115 974 1189 898 1240 c 0
 837 1280 762 1300 672 1300 c 0
 531 1300 433 1267 378 1202 c 0
 349 1168 335 1127 335 1080 c 0
 335 1009 370 956 439 923 c 0
 474 906 541 887 641 865 c 0
 659 861 673 858 684 856 c 0
 843 820 951 791 1009 768 c 0
 1116 727 1187 671 1224 598 c 0
 1247 551 1259 495 1259 429 c 0
 1259 302 1209 198 1109 117 c 0
 1016 40 898 -2 755 -9 c 0
 742 -10 730 -10 717 -10 c 0
 477 -10 304 55 198 186 c 0
 131 269 95 374 92 502 c 1
EndSplineSet
EndChar
StartChar: T
Encoding: 54 84 56
OldEncoding: 84
Width: 1251
Flags: HW
Fore
538 0 m 1
 538 1280 l 1
 48 1280 l 1
 48 1450 l 1
 1210 1450 l 1
 1210 1280 l 1
 718 1280 l 1
 718 0 l 1
 538 0 l 1
EndSplineSet
KernsSLIF: 91 -113 0 0 89 -113 0 0 87 -76 0 0 85 -227 0 0 84 -76 0 0 81 -227 0 0 75 -76 0 0 71 -227 0 0 69 -227 0 0 67 -227 0 0 49 -37 0 0 35 -152 0 0 29 -227 0 0 28 -227 0 0 16 -227 0 0 15 -113 0 0 14 -227 0 0
EndChar
StartChar: U
Encoding: 55 85 57
OldEncoding: 85
Width: 1479
Flags: HW
Fore
1134 1450 m 1
 1314 1450 l 1
 1314 567 l 2
 1314 182 1123 -10 741 -10 c 0
 391 -10 199 147 166 460 c 0
 163 494 161 530 161 567 c 2
 161 1450 l 1
 341 1450 l 1
 341 568 l 2
 341 349 432 221 614 182 c 0
 651 174 692 170 737 170 c 0
 918 170 1036 226 1091 338 c 0
 1120 395 1134 472 1134 568 c 2
 1134 1450 l 1
EndSplineSet
EndChar
StartChar: V
Encoding: 56 86 58
OldEncoding: 86
Width: 1366
Flags: HW
Fore
577 0 m 1
 9 1450 l 1
 219 1450 l 1
 677 279 l 1
 1152 1450 l 1
 1350 1450 l 1
 776 0 l 1
 577 0 l 1
EndSplineSet
KernsSLIF: 91 -76 0 0 87 -76 0 0 84 -76 0 0 81 -113 0 0 75 -37 0 0 71 -113 0 0 67 -152 0 0 35 -152 0 0 29 -76 0 0 28 -76 0 0 16 -188 0 0 15 -113 0 0 14 -188 0 0
EndChar
StartChar: W
Encoding: 57 87 59
OldEncoding: 87
Width: 1933
Flags: HW
Fore
414 0 m 1
 25 1450 l 1
 224 1450 l 1
 513 390 l 1
 834 1450 l 1
 1088 1450 l 1
 1409 390 l 1
 1698 1450 l 1
 1897 1450 l 1
 1508 0 l 1
 1310 0 l 1
 961 1170 l 1
 612 0 l 1
 414 0 l 1
EndSplineSet
KernsSLIF: 91 -18 0 0 87 -37 0 0 84 -37 0 0 81 -37 0 0 71 -37 0 0 67 -76 0 0 35 -76 0 0 29 -37 0 0 28 -37 0 0 16 -113 0 0 15 -37 0 0 14 -113 0 0
EndChar
StartChar: X
Encoding: 58 88 60
OldEncoding: 88
Width: 1366
Flags: HW
Fore
9 0 m 1
 564 756 l 1
 76 1450 l 1
 306 1450 l 1
 681 902 l 1
 1083 1450 l 1
 1313 1450 l 1
 798 756 l 1
 1353 0 l 1
 1123 0 l 1
 681 613 l 1
 239 0 l 1
 9 0 l 1
EndSplineSet
EndChar
StartChar: Y
Encoding: 59 89 61
OldEncoding: 89
Width: 1366
Flags: HW
Fore
571 0 m 1
 571 621 l 1
 6 1451 l 1
 236 1451 l 1
 680 855 l 1
 1120 1451 l 1
 1350 1451 l 1
 765 621 l 1
 765 0 l 1
 571 0 l 1
EndSplineSet
KernsSLIF: 88 -113 0 0 87 -113 0 0 83 -188 0 0 82 -152 0 0 81 -188 0 0 75 -76 0 0 71 -188 0 0 67 -152 0 0 35 -152 0 0 29 -133 0 0 28 -113 0 0 16 -264 0 0 15 -188 0 0 14 -264 0 0
EndChar
StartChar: Z
Encoding: 60 90 62
OldEncoding: 90
Width: 1251
Flags: HW
Fore
41 0 m 1
 41 187 l 1
 945 1270 l 1
 45 1270 l 1
 45 1450 l 1
 1213 1450 l 1
 1213 1270 l 1
 325 180 l 1
 1200 180 l 1
 1200 0 l 1
 41 0 l 1
EndSplineSet
EndChar
StartChar: bracketleft
Encoding: 61 91 63
OldEncoding: 91
Width: 569
Flags: HW
Fore
139 -407 m 1
 139 1466 l 1
 536 1466 l 1
 536 1317 l 1
 319 1317 l 1
 319 -258 l 1
 536 -258 l 1
 536 -407 l 1
 139 -407 l 1
EndSplineSet
EndChar
StartChar: backslash
Encoding: 62 92 64
OldEncoding: 92
Width: 569
Flags: HW
Fore
425 -25 m 1
 0 1491 l 1
 145 1491 l 1
 569 -25 l 1
 425 -25 l 1
EndSplineSet
EndChar
StartChar: bracketright
Encoding: 63 93 65
OldEncoding: 93
Width: 569
Flags: HW
Fore
436 -407 m 1
 39 -407 l 1
 39 -258 l 1
 256 -258 l 1
 256 1317 l 1
 39 1317 l 1
 39 1466 l 1
 436 1466 l 1
 436 -407 l 1
EndSplineSet
EndChar
StartChar: asciicircum
Encoding: 64 94 66
OldEncoding: 94
Width: 961
Flags: HW
Fore
239 690 m 1
 54 690 l 1
 407 1491 l 1
 552 1491 l 1
 907 690 l 1
 726 690 l 1
 479 1287 l 1
 239 690 l 1
EndSplineSet
EndChar
StartChar: underscore
Encoding: 65 95 67
OldEncoding: 95
Width: 1139
Flags: HW
Fore
-31 -407 m 1
 -31 -277 l 1
 1162 -277 l 1
 1162 -407 l 1
 -31 -407 l 1
EndSplineSet
EndChar
StartChar: grave
Encoding: 66 96 68
OldEncoding: 96
Width: 682
Flags: HW
Fore
465 1194 m 1
 320 1194 l 1
 89 1474 l 1
 330 1474 l 1
 465 1194 l 1
EndSplineSet
EndChar
StartChar: a
Encoding: 67 97 69
OldEncoding: 97
Width: 1139
Flags: HW
Fore
828 131 m 1
 761 74 697 34 636 11 c 0
 574 -12 508 -24 437 -24 c 0
 320 -24 231 5 168 62 c 0
 105 119 74 191 74 280 c 0
 74 332 86 379 110 422 c 0
 133 465 164 500 202 526 c 0
 241 552 284 572 332 585 c 0
 367 594 421 603 492 612 c 0
 637 629 744 650 813 674 c 1
 814 699 814 714 814 721 c 0
 814 794 797 846 763 876 c 0
 717 917 649 937 558 937 c 0
 473 937 411 922 370 892 c 0
 330 863 300 810 281 735 c 1
 105 759 l 1
 121 834 147 895 184 942 c 0
 221 988 274 1023 343 1048 c 0
 412 1073 493 1086 584 1086 c 0
 675 1086 748 1075 805 1054 c 0
 862 1033 903 1006 930 974 c 0
 957 941 975 900 986 851 c 0
 992 820 995 765 995 685 c 2
 995 445 l 2
 995 278 999 172 1006 128 c 0
 1014 83 1029 41 1052 0 c 1
 864 0 l 1
 845 37 833 81 828 131 c 1
813 533 m 1
 748 506 650 484 519 465 c 0
 445 454 393 442 362 429 c 0
 331 416 308 396 291 370 c 0
 274 345 266 316 266 285 c 0
 266 237 284 197 320 165 c 0
 357 133 410 117 480 117 c 0
 549 117 611 132 665 162 c 0
 719 193 759 234 784 287 c 0
 803 328 813 388 813 467 c 2
 813 533 l 1
EndSplineSet
EndChar
StartChar: b
Encoding: 68 98 70
OldEncoding: 98
Width: 1139
Flags: HW
Fore
301 0 m 1
 134 0 l 1
 134 1466 l 1
 314 1466 l 1
 314 943 l 1
 390 1038 487 1086 605 1086 c 0
 747 1086 859 1032 942 924 c 0
 1017 825 1055 699 1055 547 c 0
 1055 372 1010 233 921 131 c 0
 839 37 731 -10 596 -10 c 0
 490 -10 403 21 334 84 c 0
 322 95 311 106 301 119 c 1
 301 0 l 1
312 539 m 0
 312 385 350 274 427 206 c 0
 470 168 522 149 581 149 c 0
 686 150 765 193 820 278 c 0
 862 345 883 429 883 532 c 0
 883 681 845 790 768 857 c 0
 720 900 660 921 589 921 c 0
 517 921 455 889 402 824 c 0
 342 750 312 655 312 539 c 0
EndSplineSet
EndChar
StartChar: c
Encoding: 69 99 71
OldEncoding: 99
Width: 1024
Flags: HW
Fore
828 403 m 1
 1005 403 l 1
 1000 244 941 129 829 58 c 0
 757 13 668 -10 563 -10 c 0
 437 -10 330 31 241 113 c 0
 143 205 90 329 81 485 c 0
 80 499 80 513 80 527 c 0
 80 714 129 858 228 958 c 0
 313 1043 425 1086 564 1086 c 0
 729 1086 850 1036 925 936 c 0
 969 878 995 806 1002 719 c 0
 1003 712 1003 704 1003 696 c 1
 828 696 l 1
 821 765 789 821 732 864 c 0
 685 899 632 916 571 916 c 0
 381 916 279 805 266 583 c 1
 265 532 l 1
 265 385 306 280 388 216 c 0
 435 179 493 160 561 160 c 0
 690 161 773 207 810 300 c 0
 821 330 827 364 828 403 c 1
EndSplineSet
EndChar
StartChar: d
Encoding: 70 100 72
OldEncoding: 100
Width: 1139
Flags: HW
Fore
824 0 m 1
 824 122 l 1
 764 34 665 -10 527 -10 c 0
 390 -10 280 41 196 142 c 0
 116 238 74 361 70 511 c 0
 70 521 70 521 70 530 c 0
 70 697 110 831 191 933 c 0
 272 1035 381 1086 519 1086 c 0
 648 1086 744 1046 807 965 c 2
 812 958 l 1
 812 1466 l 1
 991 1466 l 1
 991 0 l 1
 824 0 l 1
255 530 m 0
 255 378 294 269 372 203 c 0
 419 164 476 144 544 144 c 0
 603 144 659 171 710 224 c 0
 777 293 812 384 817 496 c 0
 817 505 817 505 817 515 c 0
 817 656 783 764 716 838 c 0
 669 891 611 917 544 917 c 0
 423 917 340 861 293 750 c 0
 268 690 255 617 255 530 c 0
EndSplineSet
EndChar
StartChar: e
Encoding: 71 101 73
OldEncoding: 101
Width: 1139
Flags: HW
Fore
862 333 m 1
 1048 333 l 1
 1025 214 963 123 863 62 c 0
 797 21 720 -2 631 -8 c 0
 614 -9 598 -10 581 -10 c 0
 394 -10 256 52 169 177 c 0
 106 266 75 381 75 522 c 0
 75 705 124 848 222 949 c 0
 309 1040 426 1086 571 1086 c 0
 738 1086 864 1026 949 906 c 0
 1018 808 1053 679 1054 520 c 0
 1054 508 1054 496 1053 485 c 1
 267 485 l 1
 271 312 338 206 467 167 c 0
 502 157 540 152 582 152 c 0
 722 152 813 205 854 311 c 0
 862 333 l 1
271 649 m 1
 862 649 l 1
 849 790 784 875 665 904 c 0
 637 911 606 914 573 914 c 0
 490 914 420 889 362 839 c 0
 307 790 276 727 271 649 c 1
EndSplineSet
EndChar
StartChar: f
Encoding: 72 102 74
OldEncoding: 102
Width: 569
Flags: HW
Fore
178 0 m 1
 178 785 l 1
 19 785 l 1
 19 925 l 1
 178 925 l 1
 178 1175 l 2
 178 1318 226 1418 322 1474 c 0
 369 1501 424 1515 487 1515 c 0
 538 1515 589 1506 640 1488 c 1
 640 1316 l 1
 585 1334 539 1343 501 1343 c 0
 478 1344 458 1341 441 1334 c 0
 385 1312 357 1254 357 1160 c 2
 357 925 l 1
 536 925 l 1
 536 785 l 1
 357 785 l 1
 357 0 l 1
 178 0 l 1
EndSplineSet
KernsSLIF: 72 -37 0 0
EndChar
StartChar: g
Encoding: 73 103 75
OldEncoding: 103
Width: 1139
Flags: HW
Fore
102 -74 m 1
 277 -74 l 1
 280 -115 l 1
 293 -186 341 -233 423 -256 c 0
 453 -264 486 -268 521 -268 c 0
 642 -268 724 -227 768 -146 c 0
 802 -84 819 9 819 134 c 0
 819 136 819 136 819 139 c 1
 740 46 642 0 525 0 c 0
 379 0 264 54 180 163 c 0
 104 261 66 386 66 537 c 0
 66 695 105 824 184 925 c 0
 267 1032 381 1086 526 1086 c 0
 667 1086 770 1049 836 974 c 1
 836 1062 l 1
 1002 1062 l 1
 1002 144 l 2
 1002 -65 967 -214 898 -301 c 0
 855 -355 795 -392 717 -413 c 0
 664 -428 599 -435 522 -435 c 1
 454 -431 l 1
 329 -418 234 -370 171 -287 c 0
 126 -228 103 -157 102 -74 c 1
251 550 m 0
 251 333 325 210 473 181 c 0
 494 177 517 175 542 175 c 0
 729 175 822 298 822 544 c 0
 822 711 776 823 683 880 c 0
 643 905 595 917 539 917 c 0
 428 917 347 869 298 774 c 0
 267 714 251 639 251 550 c 0
EndSplineSet
EndChar
StartChar: h
Encoding: 74 104 76
OldEncoding: 104
Width: 1139
Flags: HW
Fore
135 0 m 1
 135 1466 l 1
 315 1466 l 1
 315 970 l 1
 358 1026 420 1064 501 1083 c 0
 533 1091 566 1095 600 1095 c 0
 751 1095 862 1042 931 935 c 0
 977 864 1000 777 1000 673 c 2
 1000 0 l 1
 820 0 l 1
 820 624 l 2
 820 796 745 882 596 882 c 0
 459 882 371 817 334 687 c 0
 321 642 315 591 315 532 c 2
 315 0 l 1
 135 0 l 1
EndSplineSet
EndChar
StartChar: i
Encoding: 75 105 77
OldEncoding: 105
Width: 455
Flags: HW
Fore
136 1259 m 1
 136 1466 l 1
 316 1466 l 1
 316 1259 l 1
 136 1259 l 1
136 0 m 1
 136 1062 l 1
 316 1062 l 1
 316 0 l 1
 136 0 l 1
EndSplineSet
EndChar
StartChar: j
Encoding: 76 106 78
OldEncoding: 106
Width: 455
Flags: HW
Fore
134 1257 m 1
 134 1466 l 1
 314 1466 l 1
 314 1257 l 1
 134 1257 l 1
-94 -412 m 1
 -94 -259 l 1
 -59 -264 -30 -267 -7 -267 c 0
 52 -267 92 -247 111 -206 c 0
 126 -174 134 -123 134 -54 c 2
 134 1062 l 1
 314 1062 l 1
 314 -58 l 2
 314 -246 263 -362 160 -406 c 0
 125 -421 85 -428 39 -428 c 0
 -1 -428 -45 -423 -94 -412 c 1
EndSplineSet
EndChar
StartChar: k
Encoding: 77 107 79
OldEncoding: 107
Width: 1024
Flags: HW
Fore
136 0 m 1
 136 1466 l 1
 316 1466 l 1
 316 630 l 1
 742 1062 l 1
 975 1062 l 1
 569 668 l 1
 1016 0 l 1
 794 0 l 1
 443 543 l 1
 316 421 l 1
 316 0 l 1
 136 0 l 1
EndSplineSet
EndChar
StartChar: l
Encoding: 78 108 80
OldEncoding: 108
Width: 455
Flags: HW
Fore
131 0 m 1
 131 1466 l 1
 311 1466 l 1
 311 0 l 1
 131 0 l 1
EndSplineSet
EndChar
StartChar: m
Encoding: 79 109 81
OldEncoding: 109
Width: 1706
Flags: HW
Fore
135 0 m 1
 135 1062 l 1
 296 1062 l 1
 296 913 l 1
 329 965 374 1007 429 1038 c 0
 484 1070 547 1086 618 1086 c 0
 697 1086 761 1070 812 1037 c 0
 862 1004 897 959 918 900 c 1
 1002 1024 1111 1086 1246 1086 c 0
 1351 1086 1432 1057 1489 998 c 0
 1546 940 1574 850 1574 729 c 2
 1574 0 l 1
 1395 0 l 1
 1395 669 l 2
 1395 741 1389 793 1378 824 c 0
 1366 856 1345 882 1314 901 c 0
 1283 920 1247 930 1206 930 c 0
 1131 930 1069 905 1020 856 c 0
 971 806 946 726 946 617 c 2
 946 0 l 1
 766 0 l 1
 766 690 l 2
 766 770 751 830 722 870 c 0
 693 910 645 930 578 930 c 0
 527 930 481 917 438 890 c 0
 395 863 363 824 344 773 c 0
 325 722 315 648 315 551 c 2
 315 0 l 1
 135 0 l 1
EndSplineSet
EndChar
StartChar: n
Encoding: 80 110 82
OldEncoding: 110
Width: 1139
Flags: HW
Fore
135 0 m 1
 135 1064 l 1
 315 1064 l 1
 315 970 l 1
 358 1026 420 1064 501 1083 c 0
 533 1091 566 1095 600 1095 c 0
 751 1095 862 1042 931 935 c 0
 977 864 1000 777 1000 673 c 2
 1000 0 l 1
 820 0 l 1
 820 624 l 2
 820 796 745 882 596 882 c 0
 459 882 371 817 334 687 c 0
 321 642 315 591 315 532 c 2
 315 0 l 1
 135 0 l 1
EndSplineSet
EndChar
StartChar: o
Encoding: 81 111 83
OldEncoding: 111
Width: 1139
Flags: HW
Fore
68 531 m 0
 68 721 121 865 226 964 c 0
 313 1045 426 1086 566 1086 c 0
 722 1086 845 1035 935 932 c 0
 1020 835 1063 706 1063 546 c 0
 1063 305 988 141 839 54 c 0
 764 11 673 -11 566 -11 c 0
 387 -11 253 50 166 171 c 0
 101 263 68 383 68 531 c 0
253 531 m 0
 253 357 305 241 408 184 c 0
 453 159 505 147 566 147 c 0
 703 147 795 208 844 329 c 0
 867 386 878 456 878 537 c 0
 878 686 838 794 758 862 c 0
 707 906 643 928 566 928 c 0
 443 928 354 875 301 770 c 0
 269 706 253 626 253 531 c 0
EndSplineSet
EndChar
StartChar: p
Encoding: 82 112 84
OldEncoding: 112
Width: 1139
Flags: HW
Fore
289 957 m 1
 299 970 310 981 322 992 c 0
 391 1055 478 1086 584 1086 c 0
 719 1086 827 1039 909 945 c 0
 998 843 1043 704 1043 529 c 0
 1043 377 1005 251 930 152 c 0
 847 44 735 -10 593 -10 c 0
 475 -10 378 38 302 133 c 1
 302 -390 l 1
 122 -390 l 1
 122 1076 l 1
 289 1076 l 1
 289 957 l 1
300 537 m 0
 300 421 330 326 390 252 c 0
 443 187 505 155 577 155 c 0
 648 155 708 176 756 219 c 0
 833 286 871 395 871 544 c 0
 871 561 870 578 869 595 c 0
 864 655 852 708 831 755 c 1
 808 798 l 1
 753 883 674 926 569 927 c 0
 510 927 458 908 415 870 c 0
 338 802 300 691 300 537 c 0
EndSplineSet
EndChar
StartChar: q
Encoding: 83 113 85
OldEncoding: 113
Width: 1139
Flags: HW
Fore
841 1076 m 1
 1008 1076 l 1
 1008 -390 l 1
 828 -390 l 1
 828 133 l 1
 752 38 655 -10 537 -10 c 0
 395 -10 283 44 200 152 c 0
 125 251 87 377 87 529 c 0
 87 704 132 843 221 945 c 0
 303 1039 411 1086 546 1086 c 0
 652 1086 739 1055 808 992 c 0
 820 981 831 970 841 957 c 1
 841 1076 l 1
830 537 m 0
 830 691 792 802 715 870 c 0
 672 908 620 927 561 927 c 0
 456 926 377 883 322 798 c 1
 299 755 l 1
 278 708 266 655 261 595 c 0
 260 578 259 561 259 544 c 0
 259 395 297 286 374 219 c 0
 422 176 482 155 553 155 c 0
 625 155 687 187 740 252 c 0
 800 326 830 421 830 537 c 0
EndSplineSet
EndChar
StartChar: r
Encoding: 84 114 86
OldEncoding: 114
Width: 682
Flags: HW
Fore
133 0 m 1
 133 1062 l 1
 295 1062 l 1
 295 947 l 1
 318 992 359 1027 416 1052 c 0
 423 1055 432 1058 441 1062 c 0
 467 1072 498 1077 533 1077 c 0
 598 1077 657 1061 710 1028 c 1
 648 861 l 1
 604 887 561 900 518 900 c 0
 495 900 474 896 454 889 c 0
 439 883 424 875 410 864 c 0
 345 815 313 713 313 556 c 2
 313 0 l 1
 133 0 l 1
EndSplineSet
KernsSLIF: 16 -113 0 0 14 -113 0 0
EndChar
StartChar: s
Encoding: 85 115 87
OldEncoding: 115
Width: 1024
Flags: HW
Fore
63 358 m 1
 241 358 l 1
 257 243 323 176 438 157 c 0
 462 153 488 151 516 151 c 0
 601 151 667 172 715 214 c 0
 745 241 760 271 760 306 c 0
 759 364 724 406 655 431 c 0
 627 442 583 452 523 463 c 0
 400 486 319 505 279 520 c 0
 214 544 165 583 132 638 c 0
 106 681 93 728 93 780 c 0
 93 884 138 964 229 1021 c 0
 300 1064 385 1086 484 1086 c 0
 650 1086 768 1040 839 949 c 0
 876 902 897 846 904 779 c 0
 905 774 905 769 905 764 c 1
 729 764 l 1
 714 863 649 916 533 924 c 1
 497 925 l 2
 406 925 341 902 304 856 c 1
 289 833 l 1
 281 807 l 1
 279 778 l 1
 280 765 284 751 289 738 c 0
 301 709 332 687 381 673 c 0
 402 667 448 657 517 644 c 0
 644 620 732 597 782 575 c 0
 868 538 920 479 937 400 c 0
 942 377 945 352 945 325 c 0
 945 220 900 136 811 73 c 0
 732 17 634 -11 517 -11 c 0
 346 -11 221 39 142 138 c 0
 95 197 69 271 63 358 c 1
EndSplineSet
EndChar
StartChar: t
Encoding: 86 116 88
OldEncoding: 116
Width: 569
Flags: HW
Fore
528 161 m 1
 554 2 l 1
 506 -8 458 -13 411 -13 c 0
 345 -13 297 -3 266 17 c 0
 225 44 197 82 184 130 c 0
 173 170 168 230 168 311 c 2
 168 922 l 1
 18 922 l 1
 18 1062 l 1
 168 1062 l 1
 168 1433 l 1
 347 1433 l 1
 347 1062 l 1
 497 1062 l 1
 497 922 l 1
 347 922 l 1
 347 301 l 2
 347 245 351 209 359 194 c 0
 365 184 375 175 388 167 c 0
 403 158 423 153 449 153 c 0
 466 153 492 156 528 161 c 1
EndSplineSet
EndChar
StartChar: u
Encoding: 87 117 89
OldEncoding: 117
Width: 1139
Flags: HW
Fore
969 1085 m 1
 969 0 l 1
 789 0 l 1
 789 64 l 1
 746 17 666 -7 548 -10 c 0
 542 -10 542 -10 537 -10 c 2
 467 -7 l 1
 323 8 220 71 159 181 c 0
 122 246 104 323 104 412 c 2
 104 1085 l 1
 284 1085 l 1
 284 461 l 2
 284 350 323 273 401 231 c 0
 438 211 483 201 534 201 c 0
 704 201 789 286 789 456 c 2
 789 1085 l 1
 969 1085 l 1
EndSplineSet
EndChar
StartChar: v
Encoding: 88 118 90
OldEncoding: 118
Width: 1024
Flags: HW
Fore
429 0 m 1
 26 1062 l 1
 216 1062 l 1
 520 269 l 1
 810 1062 l 1
 1000 1062 l 1
 599 0 l 1
 429 0 l 1
EndSplineSet
KernsSLIF: 16 -152 0 0 14 -152 0 0
EndChar
StartChar: w
Encoding: 89 119 91
OldEncoding: 119
Width: 1479
Flags: HW
Fore
331 0 m 1
 6 1062 l 1
 192 1062 l 1
 424 246 l 1
 648 1062 l 1
 832 1062 l 1
 1069 246 l 1
 1288 1062 l 1
 1463 1062 l 1
 1163 0 l 1
 975 0 l 1
 901 265 l 1
 798 623 744 807 740 817 c 1
 519 0 l 1
 331 0 l 1
EndSplineSet
KernsSLIF: 16 -113 0 0 14 -113 0 0
EndChar
StartChar: x
Encoding: 90 120 92
OldEncoding: 120
Width: 1024
Flags: HW
Fore
15 0 m 1
 396 552 l 1
 44 1062 l 1
 269 1062 l 1
 499 694 l 1
 766 1062 l 1
 981 1062 l 1
 607 562 l 1
 1009 0 l 1
 788 0 l 1
 505 419 l 1
 233 0 l 1
 15 0 l 1
EndSplineSet
EndChar
StartChar: y
Encoding: 91 121 93
OldEncoding: 121
Width: 1024
Flags: HW
Fore
127 -409 m 1
 107 -240 l 1
 141 -249 177 -254 214 -254 c 0
 261 -254 299 -246 327 -231 c 0
 367 -209 395 -181 410 -146 c 0
 425 -112 433 -64 436 -2 c 1
 33 1062 l 1
 227 1062 l 1
 525 201 l 1
 826 1062 l 1
 1006 1062 l 1
 602 -1 l 1
 587 -145 556 -245 511 -302 c 0
 488 -331 458 -355 420 -375 c 0
 367 -402 307 -418 239 -422 c 1
 185 -421 l 1
 164 -419 144 -415 127 -409 c 1
EndSplineSet
KernsSLIF: 16 -152 0 0 14 -152 0 0
EndChar
StartChar: z
Encoding: 92 122 94
OldEncoding: 122
Width: 1024
Flags: HW
Fore
40 0 m 1
 40 155 l 1
 716 916 l 1
 60 916 l 1
 60 1062 l 1
 948 1062 l 1
 948 916 l 1
 262 155 l 1
 980 155 l 1
 980 0 l 1
 40 0 l 1
EndSplineSet
EndChar
StartChar: braceleft
Encoding: 93 123 95
OldEncoding: 123
Width: 684
Flags: HW
Fore
57 612 m 1
 108 613 150 627 182 654 c 0
 215 680 236 716 247 762 c 0
 258 808 263 887 264 998 c 0
 265 1109 267 1183 270 1218 c 0
 276 1274 287 1319 304 1353 c 0
 320 1387 340 1414 364 1434 c 0
 388 1455 419 1470 456 1481 c 0
 481 1488 523 1491 580 1491 c 2
 636 1491 l 1
 636 1334 l 1
 605 1334 l 2
 536 1334 490 1321 467 1296 c 0
 444 1271 433 1216 433 1129 c 0
 433 954 429 844 422 798 c 0
 410 727 390 672 360 633 c 128
 332 594 286 560 224 530 c 1
 297 499 351 453 384 390 c 0
 417 327 433 223 433 80 c 0
 433 -50 434 -127 437 -152 c 0
 442 -197 456 -229 478 -247 c 0
 499 -265 542 -274 605 -274 c 2
 636 -274 l 1
 636 -431 l 1
 580 -431 l 2
 515 -431 467 -426 438 -415 c 0
 395 -400 360 -375 332 -340 c 0
 304 -306 286 -263 278 -210 c 0
 269 -157 265 -71 264 49 c 0
 263 169 258 252 247 298 c 0
 236 344 215 380 182 407 c 0
 150 434 108 448 57 449 c 1
 57 612 l 1
EndSplineSet
EndChar
StartChar: bar
Encoding: 94 124 96
OldEncoding: 124
Width: 532
Flags: HW
Fore
188 -431 m 1
 188 1491 l 1
 345 1491 l 1
 345 -431 l 1
 188 -431 l 1
EndSplineSet
EndChar
StartChar: braceright
Encoding: 95 125 97
OldEncoding: 125
Width: 684
Flags: HW
Fore
626 612 m 1
 626 449 l 1
 575 448 533 434 500 407 c 0
 468 380 447 344 436 298 c 0
 425 253 420 174 419 63 c 0
 418 -48 416 -122 413 -157 c 0
 407 -214 396 -259 380 -292 c 0
 363 -326 343 -353 319 -374 c 0
 295 -394 264 -409 227 -420 c 0
 202 -427 160 -431 103 -431 c 2
 47 -431 l 1
 47 -274 l 1
 78 -274 l 2
 147 -274 193 -261 216 -236 c 0
 239 -211 250 -155 250 -68 c 0
 250 99 253 204 259 249 c 0
 270 323 291 382 323 426 c 0
 355 471 400 505 459 530 c 1
 382 567 328 615 297 676 c 0
 266 736 250 838 250 981 c 0
 250 1111 248 1189 245 1214 c 0
 240 1259 227 1290 206 1308 c 0
 184 1325 141 1334 78 1334 c 2
 47 1334 l 1
 47 1491 l 1
 103 1491 l 2
 168 1491 216 1486 245 1475 c 0
 288 1460 323 1436 351 1401 c 0
 379 1366 397 1323 406 1270 c 0
 414 1217 418 1131 419 1011 c 0
 420 891 425 808 436 762 c 0
 447 717 468 681 500 654 c 0
 533 627 575 613 626 612 c 1
EndSplineSet
EndChar
StartChar: asciitilde
Encoding: 96 126 98
OldEncoding: 126
Width: 1196
Flags: HW
Fore
87 557 m 1
 87 762 l 1
 158 842 250 882 365 882 c 0
 405 882 447 876 491 864 c 0
 535 853 598 830 679 795 c 0
 725 776 759 763 782 757 c 0
 805 751 829 748 852 748 c 0
 895 748 940 761 986 787 c 0
 1033 813 1074 846 1110 885 c 1
 1110 673 l 1
 1067 633 1024 604 980 586 c 0
 937 568 888 559 833 559 c 0
 793 559 755 564 718 573 c 0
 682 582 625 605 546 640 c 0
 467 675 401 693 348 693 c 0
 305 693 265 684 228 666 c 0
 190 647 143 611 87 557 c 1
EndSplineSet
EndChar
StartChar: uni007F
Encoding: 97 127 99
OldEncoding: 127
Width: 1247
Flags: HW
Fore
143 928 m 0
 143 945 149 960 160 972 c 128
 171 983 186 989 203 989 c 0
 220 989 235 983 246 972 c 128
 258 960 264 945 264 928 c 0
 264 911 258 896 246 885 c 128
 235 874 220 868 203 868 c 0
 186 868 171 874 160 885 c 128
 149 896 143 911 143 928 c 0
332 1071 m 0
 332 1088 338 1103 349 1114 c 128
 360 1126 375 1132 392 1132 c 0
 409 1132 424 1126 436 1114 c 128
 447 1103 453 1088 453 1071 c 0
 453 1054 447 1039 436 1028 c 128
 424 1017 409 1011 392 1011 c 0
 375 1011 360 1017 349 1028 c 128
 338 1039 332 1054 332 1071 c 0
558 1139 m 0
 558 1156 564 1171 575 1182 c 128
 586 1194 601 1200 618 1200 c 0
 635 1200 650 1194 662 1182 c 128
 673 1171 679 1156 679 1139 c 0
 679 1122 673 1107 662 1096 c 128
 650 1085 635 1079 618 1079 c 0
 601 1079 586 1085 575 1096 c 128
 564 1107 558 1122 558 1139 c 0
22 505 m 0
 22 522 28 537 39 548 c 128
 50 560 65 566 82 566 c 0
 99 566 114 560 126 548 c 128
 137 537 143 522 143 505 c 0
 143 488 137 473 126 462 c 128
 114 451 99 445 82 445 c 0
 65 445 50 451 39 462 c 128
 28 473 22 488 22 505 c 0
143 309 m 0
 143 326 149 341 160 352 c 128
 171 364 186 370 203 370 c 0
 220 370 235 364 246 352 c 128
 258 341 264 326 264 309 c 0
 264 292 258 277 246 266 c 128
 235 255 220 249 203 249 c 0
 186 249 171 255 160 266 c 128
 149 277 143 292 143 309 c 0
286 158 m 0
 286 175 292 190 303 202 c 128
 314 213 329 219 346 219 c 0
 363 219 378 213 390 202 c 128
 401 190 407 175 407 158 c 0
 407 141 401 126 390 115 c 128
 378 104 363 98 346 98 c 0
 329 98 314 104 303 115 c 128
 292 126 286 141 286 158 c 0
551 67 m 0
 551 84 557 99 568 110 c 128
 579 122 594 128 611 128 c 0
 628 128 643 122 654 110 c 128
 666 99 672 84 672 67 c 0
 672 50 666 35 654 24 c 128
 643 13 628 7 611 7 c 0
 594 7 579 13 568 24 c 128
 557 35 551 50 551 67 c 0
845 128 m 0
 845 145 851 160 862 172 c 128
 873 183 888 189 905 189 c 0
 922 189 937 183 948 172 c 128
 960 160 966 145 966 128 c 0
 966 111 960 96 948 85 c 128
 937 74 922 68 905 68 c 0
 888 68 873 74 862 85 c 128
 851 96 845 111 845 128 c 0
1011 294 m 0
 1011 311 1017 326 1028 338 c 128
 1039 349 1054 355 1071 355 c 0
 1088 355 1103 349 1114 338 c 128
 1126 326 1132 311 1132 294 c 0
 1132 277 1126 262 1114 251 c 128
 1103 240 1088 234 1071 234 c 0
 1054 234 1039 240 1028 251 c 128
 1017 262 1011 277 1011 294 c 0
1086 498 m 0
 1086 515 1092 530 1103 542 c 128
 1114 553 1129 559 1146 559 c 0
 1163 559 1178 553 1190 542 c 128
 1201 530 1207 515 1207 498 c 0
 1207 481 1201 466 1190 455 c 128
 1178 444 1163 438 1146 438 c 0
 1129 438 1114 444 1103 455 c 128
 1092 466 1086 481 1086 498 c 0
1072 739 m 0
 1072 756 1078 771 1089 782 c 128
 1100 794 1115 800 1132 800 c 0
 1149 800 1164 794 1176 782 c 128
 1187 771 1193 756 1193 739 c 0
 1193 722 1187 707 1176 696 c 128
 1164 685 1149 679 1132 679 c 0
 1115 679 1100 685 1089 696 c 128
 1078 707 1072 722 1072 739 c 0
965 951 m 0
 965 968 971 983 982 994 c 128
 993 1006 1008 1012 1025 1012 c 0
 1042 1012 1057 1006 1068 994 c 128
 1080 983 1086 968 1086 951 c 0
 1086 934 1080 919 1068 908 c 128
 1057 897 1042 891 1025 891 c 0
 1008 891 993 897 982 908 c 128
 971 919 965 934 965 951 c 0
777 1094 m 0
 777 1111 783 1126 794 1138 c 128
 805 1149 820 1155 837 1155 c 0
 854 1155 869 1149 880 1138 c 128
 892 1126 898 1111 898 1094 c 0
 898 1077 892 1062 880 1051 c 128
 869 1040 854 1034 837 1034 c 0
 820 1034 805 1040 794 1051 c 128
 783 1062 777 1077 777 1094 c 0
37 739 m 0
 37 756 43 771 54 782 c 128
 65 794 80 800 97 800 c 0
 114 800 129 794 140 782 c 128
 152 771 158 756 158 739 c 0
 158 722 152 707 140 696 c 128
 129 685 114 679 97 679 c 0
 80 679 65 685 54 696 c 128
 43 707 37 722 37 739 c 0
EndSplineSet
EndChar
StartChar: exclamdown
Encoding: 99 161 101
OldEncoding: 161
Width: 680
Flags: HW
Fore
442 1278 m 1
 238 1278 l 1
 238 1489 l 1
 442 1489 l 1
 442 1278 l 1
452 0 m 1
 228 0 l 1
 256 1079 l 1
 422 1079 l 1
 452 0 l 1
EndSplineSet
EndChar
StartChar: cent
Encoding: 100 162 102
OldEncoding: 162
Width: 1118
Flags: HW
Fore
557 2 m 1
 414 19 304 75 228 171 c 128
 152 267 114 396 114 557 c 0
 114 716 153 844 232 943 c 128
 311 1042 419 1099 557 1115 c 1
 557 1475 l 1
 671 1475 l 1
 671 1116 l 1
 729 1114 785 1105 838 1090 c 128
 892 1074 938 1056 975 1037 c 1
 975 837 l 1
 965 837 l 1
 924 871 880 901 833 926 c 128
 786 951 732 968 671 977 c 1
 671 141 l 1
 704 144 736 152 770 164 c 128
 802 176 830 189 853 202 c 0
 877 216 898 230 917 244 c 128
 936 257 952 270 965 281 c 1
 975 281 l 1
 975 83 l 1
 932 63 886 45 840 30 c 128
 792 14 736 4 671 1 c 1
 671 -361 l 1
 557 -361 l 1
 557 2 l 1
557 146 m 1
 557 971 l 1
 480 957 419 915 374 846 c 128
 329 776 307 680 307 557 c 0
 307 432 330 335 376 268 c 128
 421 200 482 159 557 146 c 1
EndSplineSet
EndChar
StartChar: sterling
Encoding: 101 163 103
OldEncoding: 163
Width: 1118
Flags: HW
Fore
1031 0 m 1
 89 0 l 1
 89 207 l 1
 163 229 215 272 246 335 c 128
 276 398 291 491 291 613 c 1
 130 613 l 1
 130 751 l 1
 291 751 l 1
 291 1071 l 2
 291 1205 330 1313 407 1395 c 128
 484 1477 585 1518 708 1518 c 0
 773 1518 828 1513 874 1502 c 128
 920 1492 962 1481 1001 1470 c 1
 1001 1264 l 1
 991 1264 l 1
 952 1291 909 1313 862 1328 c 128
 815 1343 770 1351 727 1351 c 0
 645 1351 584 1325 544 1274 c 128
 503 1223 483 1149 483 1052 c 2
 483 751 l 1
 847 751 l 1
 847 613 l 1
 483 613 l 1
 483 552 l 2
 483 474 464 403 424 340 c 128
 386 276 331 223 261 182 c 1
 261 171 l 1
 1031 171 l 1
 1031 0 l 1
EndSplineSet
EndChar
StartChar: currency
Encoding: 102 164 104
OldEncoding: 164
Width: 1118
Flags: HW
Fore
1057 272 m 1
 951 166 l 1
 737 378 l 1
 707 360 679 347 653 338 c 128
 627 330 596 326 560 326 c 0
 529 326 498 331 468 341 c 128
 436 351 409 364 385 379 c 1
 170 164 l 1
 65 273 l 1
 277 486 l 1
 260 513 248 542 238 572 c 128
 230 604 225 633 225 661 c 0
 225 690 230 720 238 750 c 128
 248 779 261 808 278 835 c 1
 65 1051 l 1
 172 1157 l 1
 386 944 l 1
 411 960 438 973 469 982 c 128
 500 991 530 996 560 996 c 0
 595 996 627 991 658 980 c 128
 688 970 714 958 736 945 c 1
 948 1157 l 1
 1057 1052 l 1
 843 836 l 1
 861 807 874 780 883 753 c 128
 892 726 896 696 896 661 c 0
 896 631 891 600 882 570 c 128
 872 538 859 511 843 486 c 1
 1057 272 l 1
752 661 m 0
 752 714 733 760 696 800 c 128
 658 838 613 858 560 858 c 0
 509 858 464 839 426 800 c 128
 387 762 368 716 368 661 c 0
 368 608 387 562 424 522 c 128
 462 484 507 464 560 464 c 0
 611 464 656 483 694 522 c 128
 733 560 752 606 752 661 c 0
EndSplineSet
EndChar
StartChar: yen
Encoding: 103 165 105
OldEncoding: 165
Width: 1118
Flags: HW
Fore
1059 1489 m 1
 651 678 l 1
 651 578 l 1
 993 578 l 1
 993 440 l 1
 653 440 l 1
 653 0 l 1
 465 0 l 1
 465 440 l 1
 125 440 l 1
 125 578 l 1
 467 578 l 1
 467 657 l 1
 56 1489 l 1
 266 1489 l 1
 560 850 l 1
 858 1489 l 1
 1059 1489 l 1
EndSplineSet
EndChar
StartChar: brokenbar
Encoding: 104 166 106
OldEncoding: 166
Width: 783
Flags: HW
Fore
475 758 m 1
 308 758 l 1
 308 1556 l 1
 475 1556 l 1
 475 758 l 1
475 -392 m 1
 308 -392 l 1
 308 406 l 1
 475 406 l 1
 475 -392 l 1
EndSplineSet
EndChar
StartChar: section
Encoding: 105 167 107
OldEncoding: 167
Width: 1118
Flags: HW
Fore
759 401 m 0
 775 424 788 447 796 468 c 128
 806 490 810 519 810 555 c 0
 810 588 805 616 796 640 c 128
 786 664 773 684 756 699 c 0
 740 714 721 727 700 738 c 128
 679 748 654 757 626 766 c 0
 593 776 593 776 549 788 c 128
 520 797 487 807 450 819 c 1
 437 811 423 801 408 789 c 128
 394 777 378 760 361 738 c 0
 348 721 336 697 324 668 c 128
 314 639 308 609 308 579 c 0
 308 525 321 482 346 450 c 128
 371 418 420 391 492 369 c 0
 526 359 526 359 570 346 c 128
 613 332 613 332 667 315 c 1
 680 323 694 334 711 348 c 128
 728 362 744 380 759 401 c 0
182 -133 m 1
 199 -142 221 -151 246 -162 c 128
 272 -173 297 -182 321 -190 c 0
 352 -200 381 -208 408 -212 c 128
 435 -218 468 -220 509 -220 c 0
 585 -220 648 -204 700 -174 c 128
 750 -142 776 -97 776 -36 c 0
 776 0 770 29 758 52 c 128
 745 74 725 94 698 111 c 0
 670 128 636 142 594 154 c 128
 533 171 533 171 460 192 c 0
 401 209 352 226 314 243 c 128
 274 260 239 283 208 312 c 0
 178 339 156 371 141 407 c 128
 126 443 119 485 119 533 c 0
 119 596 135 655 168 712 c 128
 201 768 251 817 318 858 c 1
 318 865 l 1
 257 898 214 939 188 986 c 128
 161 1033 148 1087 148 1147 c 0
 148 1259 191 1349 276 1417 c 128
 361 1485 479 1519 628 1519 c 0
 685 1519 737 1515 785 1506 c 128
 833 1497 887 1483 946 1462 c 1
 946 1268 l 1
 936 1268 l 1
 876 1298 820 1320 768 1334 c 128
 717 1348 663 1355 607 1355 c 0
 532 1355 469 1340 418 1310 c 128
 366 1279 340 1235 340 1176 c 0
 340 1138 347 1107 360 1083 c 128
 374 1059 394 1039 420 1024 c 0
 446 1008 479 994 520 981 c 128
 560 968 606 955 657 942 c 0
 780 909 867 866 920 814 c 128
 972 761 998 690 998 601 c 0
 998 529 980 466 944 412 c 128
 907 358 859 313 799 277 c 1
 799 270 l 1
 857 239 900 201 928 154 c 128
 955 107 969 53 969 -10 c 0
 969 -59 958 -108 938 -155 c 128
 916 -202 887 -242 848 -274 c 0
 807 -309 757 -337 700 -356 c 128
 642 -375 572 -385 490 -385 c 0
 437 -385 385 -380 333 -371 c 128
 281 -362 227 -347 172 -327 c 1
 172 -133 l 1
 182 -133 l 1
EndSplineSet
EndChar
StartChar: dieresis
Encoding: 106 168 108
OldEncoding: 168
Width: 1118
Flags: HW
Fore
867 1304 m 1
 666 1304 l 1
 666 1499 l 1
 867 1499 l 1
 867 1304 l 1
454 1304 m 1
 253 1304 l 1
 253 1499 l 1
 454 1499 l 1
 454 1304 l 1
EndSplineSet
EndChar
StartChar: copyright
Encoding: 107 169 109
OldEncoding: 169
Width: 1902
Flags: HW
Fore
1816 655 m 0
 1816 416 1732 212 1562 44 c 128
 1394 -126 1190 -210 951 -210 c 128
 712 -210 508 -126 340 44 c 128
 170 212 86 416 86 655 c 128
 86 894 170 1097 340 1266 c 128
 508 1435 712 1519 951 1519 c 128
 1190 1519 1394 1435 1562 1266 c 128
 1732 1097 1816 894 1816 655 c 0
1701 655 m 0
 1701 864 1628 1042 1482 1188 c 128
 1335 1336 1159 1409 952 1409 c 128
 745 1409 569 1336 422 1188 c 128
 276 1042 203 864 203 655 c 128
 203 446 276 268 422 121 c 128
 569 -26 745 -100 952 -100 c 128
 1159 -100 1335 -26 1482 121 c 128
 1628 268 1701 446 1701 655 c 0
1274 255 m 1
 1229 235 1185 218 1140 202 c 128
 1095 188 1043 180 982 180 c 0
 843 180 733 221 652 304 c 128
 571 386 531 505 531 660 c 0
 531 813 573 932 656 1016 c 128
 739 1101 848 1143 982 1143 c 0
 1037 1143 1090 1136 1141 1121 c 128
 1192 1106 1236 1089 1274 1070 c 1
 1274 889 l 1
 1258 889 l 1
 1229 914 1190 938 1139 962 c 128
 1088 984 1037 996 986 996 c 0
 904 996 838 969 790 914 c 128
 740 859 716 775 716 660 c 0
 716 552 739 470 786 412 c 128
 833 356 899 327 986 327 c 0
 1042 327 1095 339 1145 364 c 128
 1195 388 1233 411 1258 434 c 1
 1274 434 l 1
 1274 255 l 1
EndSplineSet
EndChar
StartChar: ordfeminine
Encoding: 108 170 110
OldEncoding: 170
Width: 1010
Flags: HW
Fore
874 566 m 1
 708 566 l 1
 708 657 l 1
 689 642 689 642 657 618 c 128
 636 603 615 590 594 581 c 0
 567 568 540 558 514 552 c 128
 487 544 451 541 404 541 c 0
 321 541 252 569 197 624 c 128
 142 680 114 752 114 839 c 0
 114 908 128 965 157 1008 c 128
 186 1052 227 1087 280 1112 c 0
 330 1136 393 1153 469 1163 c 128
 545 1173 625 1180 708 1184 c 1
 708 1203 l 2
 708 1238 702 1266 692 1287 c 128
 680 1308 664 1325 643 1337 c 0
 624 1348 600 1356 571 1360 c 128
 542 1363 513 1365 482 1365 c 0
 430 1365 377 1357 324 1342 c 128
 270 1326 230 1313 204 1304 c 1
 189 1304 l 1
 189 1474 l 1
 218 1483 262 1492 320 1503 c 128
 379 1514 433 1519 483 1519 c 0
 611 1519 708 1494 774 1442 c 128
 841 1392 874 1309 874 1194 c 2
 874 566 l 1
708 802 m 1
 708 1045 l 1
 665 1042 614 1038 557 1033 c 128
 500 1028 454 1020 420 1010 c 0
 380 999 348 980 323 954 c 128
 298 929 286 894 286 849 c 0
 286 799 301 761 330 735 c 128
 359 709 403 696 461 696 c 0
 512 696 557 707 598 729 c 128
 638 751 675 775 708 802 c 1
EndSplineSet
EndChar
StartChar: guillemotleft
Encoding: 109 171 111
OldEncoding: 171
Width: 1174
Flags: HW
Fore
1043 191 m 1
 555 610 l 1
 555 695 l 1
 1043 1113 l 1
 1043 925 l 1
 726 652 l 1
 1043 379 l 1
 1043 191 l 1
613 162 m 1
 103 608 l 1
 103 697 l 1
 613 1142 l 1
 613 946 l 1
 282 652 l 1
 613 358 l 1
 613 162 l 1
EndSplineSet
EndChar
StartChar: logicalnot
Encoding: 110 172 112
OldEncoding: 172
Width: 1490
Flags: HW
Fore
1323 57 m 1
 1152 57 l 1
 1152 602 l 1
 157 602 l 1
 157 762 l 1
 1323 762 l 1
 1323 57 l 1
EndSplineSet
EndChar
StartChar: registered
Encoding: 112 174 114
OldEncoding: 174
Width: 1902
Flags: HW
Fore
1816 655 m 0
 1816 416 1732 212 1562 44 c 128
 1394 -126 1190 -210 951 -210 c 128
 712 -210 508 -126 340 44 c 128
 170 212 86 416 86 655 c 128
 86 894 170 1097 340 1266 c 128
 508 1435 712 1519 951 1519 c 128
 1190 1519 1394 1435 1562 1266 c 128
 1732 1097 1816 894 1816 655 c 0
1701 655 m 0
 1701 864 1628 1042 1482 1188 c 128
 1335 1336 1159 1409 952 1409 c 128
 745 1409 569 1336 422 1188 c 128
 276 1042 203 864 203 655 c 128
 203 446 276 268 422 121 c 128
 569 -26 745 -100 952 -100 c 128
 1159 -100 1335 -26 1482 121 c 128
 1628 268 1701 446 1701 655 c 0
1448 215 m 1
 1221 215 l 1
 938 570 l 1
 815 570 l 1
 815 215 l 1
 650 215 l 1
 650 1130 l 1
 929 1130 l 2
 992 1130 1041 1128 1078 1123 c 128
 1114 1118 1151 1105 1188 1084 c 0
 1228 1061 1257 1034 1275 1002 c 128
 1293 970 1302 929 1302 879 c 0
 1302 812 1284 758 1246 715 c 128
 1210 672 1161 639 1102 615 c 1
 1448 215 l 1
1120 868 m 0
 1120 893 1116 914 1108 932 c 128
 1100 950 1086 965 1066 978 c 0
 1049 989 1031 996 1010 1000 c 128
 989 1003 963 1005 930 1005 c 2
 815 1005 l 1
 815 696 l 1
 913 696 l 2
 945 696 975 699 1003 706 c 128
 1031 712 1054 723 1071 738 c 128
 1088 753 1101 771 1108 791 c 128
 1116 811 1120 837 1120 868 c 0
EndSplineSet
EndChar
StartChar: macron
Encoding: 113 175 115
OldEncoding: 175
Width: 1118
Flags: HW
Fore
1134 1659 m 1
 -16 1659 l 1
 -16 1789 l 1
 1134 1789 l 1
 1134 1659 l 1
EndSplineSet
EndChar
StartChar: degree
Encoding: 114 176 116
OldEncoding: 176
Width: 964
Flags: HW
Fore
863 1135 m 0
 863 1028 826 938 753 865 c 128
 680 792 589 755 482 755 c 0
 376 755 286 791 212 864 c 128
 138 937 101 1027 101 1135 c 0
 101 1242 138 1332 211 1405 c 128
 284 1478 375 1515 482 1515 c 128
 589 1515 680 1478 753 1405 c 128
 826 1332 863 1242 863 1135 c 0
706 1135 m 0
 706 1199 685 1253 642 1297 c 128
 599 1341 546 1363 482 1363 c 128
 418 1363 365 1341 322 1297 c 128
 279 1253 258 1199 258 1135 c 0
 258 1070 280 1015 324 972 c 128
 367 929 420 907 482 907 c 0
 546 907 599 929 642 974 c 128
 685 1018 706 1072 706 1135 c 0
EndSplineSet
EndChar
StartChar: plusminus
Encoding: 115 177 117
OldEncoding: 177
Width: 1490
Flags: HW
Fore
1328 159 m 1
 162 159 l 1
 162 317 l 1
 662 317 l 1
 662 739 l 1
 162 739 l 1
 162 897 l 1
 662 897 l 1
 662 1402 l 1
 828 1402 l 1
 828 897 l 1
 1328 897 l 1
 1328 739 l 1
 828 739 l 1
 828 317 l 1
 1328 317 l 1
 1328 159 l 1
EndSplineSet
EndChar
StartChar: uni00B2
Encoding: 116 178 118
OldEncoding: 178
Width: 1010
Flags: HW
Fore
866 566 m 1
 185 566 l 1
 185 718 l 1
 262 777 262 777 332 832 c 128
 380 868 418 900 447 929 c 0
 518 997 564 1050 586 1088 c 128
 608 1127 619 1173 619 1227 c 0
 619 1273 605 1308 576 1334 c 128
 547 1358 508 1371 457 1371 c 0
 411 1371 364 1361 318 1341 c 128
 270 1321 233 1300 206 1279 c 1
 191 1279 l 1
 191 1458 l 1
 233 1476 280 1491 330 1502 c 128
 382 1513 432 1519 481 1519 c 0
 585 1519 665 1493 720 1440 c 128
 776 1388 804 1321 804 1239 c 0
 804 1182 791 1128 764 1076 c 128
 738 1023 689 965 617 900 c 0
 582 869 542 837 496 802 c 128
 427 751 427 751 373 710 c 1
 866 710 l 1
 866 566 l 1
EndSplineSet
EndChar
StartChar: uni00B3
Encoding: 117 179 119
OldEncoding: 179
Width: 1010
Flags: HW
Fore
837 828 m 0
 837 781 827 738 807 700 c 128
 787 663 761 633 729 611 c 0
 694 586 656 569 614 558 c 128
 574 547 527 542 474 542 c 0
 419 542 368 547 320 557 c 128
 273 567 227 581 184 600 c 1
 184 775 l 1
 201 775 l 1
 226 752 264 730 315 710 c 128
 366 691 418 681 471 681 c 0
 527 681 573 693 610 718 c 128
 647 742 665 778 665 826 c 0
 665 874 650 910 622 933 c 128
 592 956 543 968 474 968 c 2
 334 968 l 1
 334 1107 l 1
 459 1107 l 2
 517 1107 562 1120 594 1145 c 128
 625 1170 641 1205 641 1249 c 0
 641 1289 627 1321 600 1344 c 128
 573 1368 530 1380 472 1380 c 0
 428 1380 380 1370 330 1349 c 128
 278 1328 241 1306 216 1283 c 1
 199 1283 l 1
 199 1458 l 1
 242 1476 288 1491 338 1502 c 128
 388 1513 439 1519 492 1519 c 0
 593 1519 672 1496 729 1449 c 128
 786 1402 814 1346 814 1281 c 0
 814 1223 798 1175 766 1138 c 128
 733 1100 691 1072 640 1055 c 1
 640 1047 l 1
 693 1036 740 1013 778 976 c 128
 818 940 837 891 837 828 c 0
EndSplineSet
EndChar
StartChar: acute
Encoding: 118 180 120
OldEncoding: 180
Width: 1118
Flags: HW
Fore
871 1676 m 1
 598 1302 l 1
 449 1302 l 1
 628 1676 l 1
 871 1676 l 1
EndSplineSet
EndChar
StartChar: mu
Encoding: 119 181 121
OldEncoding: 181
Width: 1163
Flags: HW
Fore
1027 0 m 1
 855 0 l 1
 855 116 l 1
 849 116 l 1
 809 74 769 41 728 18 c 128
 688 -5 638 -17 578 -17 c 0
 517 -17 468 -5 433 18 c 128
 398 41 361 74 324 115 c 1
 324 -412 l 1
 136 -412 l 1
 136 1117 l 1
 324 1117 l 1
 324 275 l 1
 352 242 387 215 429 194 c 128
 471 174 521 164 578 164 c 0
 638 164 688 174 730 193 c 128
 770 212 807 240 839 275 c 1
 839 1117 l 1
 1027 1117 l 1
 1027 0 l 1
EndSplineSet
EndChar
StartChar: paragraph
Encoding: 120 182 122
OldEncoding: 182
Width: 1118
Flags: HW
Fore
982 -363 m 1
 842 -363 l 1
 842 1359 l 1
 655 1359 l 1
 655 -363 l 1
 515 -363 l 1
 515 593 l 1
 378 596 267 639 183 722 c 128
 99 805 57 914 57 1050 c 0
 57 1188 100 1296 187 1373 c 128
 274 1450 398 1489 560 1489 c 2
 982 1489 l 1
 982 -363 l 1
EndSplineSet
EndChar
StartChar: periodcentered
Encoding: 121 183 123
OldEncoding: 183
Width: 724
Flags: HW
Fore
482 832 m 1
 243 832 l 1
 243 1117 l 1
 482 1117 l 1
 482 832 l 1
EndSplineSet
EndChar
StartChar: cedilla
Encoding: 122 184 124
OldEncoding: 184
Width: 1118
Flags: HW
Fore
767 20 m 1
 768 8 769 -7 770 -26 c 128
 772 -44 773 -65 773 -89 c 0
 773 -197 744 -280 686 -337 c 128
 628 -394 555 -423 466 -423 c 0
 441 -423 412 -421 379 -417 c 128
 346 -413 316 -407 289 -399 c 1
 289 -239 l 1
 298 -239 l 1
 314 -246 335 -254 361 -262 c 128
 387 -269 413 -273 440 -273 c 0
 503 -273 547 -260 574 -234 c 128
 601 -207 614 -165 614 -107 c 0
 614 -90 614 -71 613 -50 c 128
 612 -29 611 -6 610 20 c 1
 767 20 l 1
EndSplineSet
EndChar
StartChar: uni0E01
Encoding: 123 3585 125
OldEncoding: 3585
Width: 1240
Flags: HW
Fore
1082 673 m 2
 1082 0 l 1
 922 0 l 1
 922 657 l 2
 922 762 902 839 863 888 c 0
 852 901 840 913 827 924 c 2
 819 930 l 2
 784 956 735 974 674 985 c 0
 656 988 639 989 624 989 c 0
 527 989 439 957 361 892 c 0
 336 872 315 850 296 825 c 1
 325 818 363 794 410 755 c 0
 453 720 478 689 486 663 c 1
 439 614 409 581 396 563 c 0
 374 530 360 499 355 470 c 0
 350 445 348 409 348 363 c 2
 348 0 l 1
 188 0 l 1
 188 363 l 2
 188 446 197 507 216 546 c 0
 231 576 265 618 316 671 c 1
 291 701 249 731 190 762 c 0
 163 776 139 786 118 792 c 1
 131 855 167 917 226 979 c 1
 331 1092 464 1149 624 1149 c 0
 769 1149 886 1102 974 1008 c 1
 1046 922 1082 810 1082 673 c 2
EndSplineSet
EndChar
StartChar: uni0E02
Encoding: 124 3586 126
OldEncoding: 3586
Width: 1400
Flags: HW
Fore
286 642 m 1
 312 641 l 1
 341 645 364 660 381 687 c 0
 385 695 l 0
 394 713 398 732 398 751 c 0
 398 766 395 780 390 793 c 0
 381 817 364 832 340 839 c 1
 312 841 l 1
 277 839 252 822 235 791 c 0
 232 786 230 780 228 773 c 0
 224 760 222 748 222 735 c 0
 222 724 224 713 227 703 c 1
 237 679 l 1
 250 658 266 645 286 642 c 1
834 771 m 1
 793 731 l 1
 736 670 707 618 707 575 c 2
 707 278 l 2
 707 247 729 218 772 189 c 0
 809 164 846 151 883 150 c 0
 930 150 973 166 1012 198 c 0
 1042 223 1057 250 1057 278 c 2
 1057 1139 l 1
 1217 1139 l 1
 1217 278 l 2
 1217 119 1139 25 984 -2 c 0
 953 -7 920 -10 883 -10 c 0
 774 -10 688 21 625 82 c 0
 573 133 547 199 547 278 c 2
 547 575 l 2
 547 625 584 685 657 755 c 0
 668 766 674 791 673 830 c 1
 669 867 658 900 639 927 c 0
 615 962 577 986 524 998 c 0
 509 1001 495 1003 480 1003 c 2
 433 1000 l 1
 384 993 338 968 295 925 c 1
 307 931 321 934 338 934 c 0
 345 934 354 934 363 933 c 0
 408 928 446 900 476 850 c 0
 489 827 496 798 496 765 c 0
 496 718 485 675 463 634 c 0
 442 595 406 568 356 553 c 0
 337 548 318 545 298 545 c 0
 289 545 280 546 271 547 c 0
 217 553 172 582 135 635 c 0
 132 640 129 644 126 649 c 0
 106 684 96 735 96 804 c 0
 96 818 97 831 98 843 c 0
 106 911 134 972 181 1025 c 0
 187 1032 193 1038 199 1043 c 0
 272 1110 359 1145 460 1149 c 0
 476 1149 l 0
 544 1149 611 1130 676 1092 c 0
 699 1079 719 1064 734 1049 c 0
 777 1006 808 939 826 847 c 0
 831 818 834 793 834 771 c 1
EndSplineSet
EndChar
StartChar: uni0E03
Encoding: 125 3587 127
OldEncoding: 3587
Width: 1450
Flags: HW
Fore
292 603 m 1
 318 603 l 1
 347 607 369 622 386 649 c 0
 388 652 390 654 391 656 c 0
 400 674 404 693 404 713 c 0
 404 728 401 742 396 754 c 0
 387 775 373 790 353 798 c 0
 351 799 349 799 346 800 c 2
 318 803 l 1
 283 800 257 784 241 753 c 0
 238 747 236 741 234 734 c 0
 230 721 228 709 228 696 c 0
 228 675 233 656 243 639 c 0
 256 619 272 607 292 603 c 1
186 1011 m 0
 218 1060 263 1100 321 1132 c 0
 337 1141 350 1146 360 1149 c 1
 360 1148 413 1112 519 1041 c 1
 663 1149 l 1
 702 1138 745 1110 792 1065 c 0
 801 1056 810 1046 819 1036 c 0
 854 995 882 936 901 859 c 0
 906 836 910 815 911 797 c 0
 911 789 911 789 911 783 c 1
 870 743 l 1
 813 682 784 630 784 587 c 2
 784 278 l 2
 784 247 806 218 849 189 c 0
 886 164 923 151 960 150 c 0
 1007 150 1050 166 1089 198 c 0
 1119 223 1134 250 1134 278 c 2
 1134 1139 l 1
 1294 1139 l 1
 1294 278 l 2
 1294 119 1216 25 1061 -2 c 1
 996 -9 l 2
 985 -10 973 -10 960 -10 c 0
 851 -10 765 21 702 82 c 0
 650 133 624 199 624 278 c 2
 624 587 l 2
 624 637 661 697 734 767 c 0
 745 778 750 794 750 814 c 128
 748 836 741 863 727 897 c 0
 716 923 694 950 663 979 c 1
 663 978 615 946 519 881 c 1
 382 963 l 1
 360 979 l 1
 341 966 324 943 309 908 c 1
 301 886 l 1
 313 893 327 896 344 896 c 0
 351 896 359 895 369 894 c 0
 414 889 452 861 482 812 c 0
 495 789 502 760 502 727 c 0
 502 680 491 636 469 595 c 0
 448 556 412 529 362 515 c 0
 343 510 324 507 303 507 c 0
 294 507 286 507 277 508 c 0
 223 515 178 544 141 596 c 0
 136 604 136 604 132 611 c 0
 112 646 102 697 102 765 c 0
 102 780 103 793 104 804 c 0
 111 871 139 940 186 1011 c 0
EndSplineSet
EndChar
StartChar: uni0E04
Encoding: 126 3588 128
OldEncoding: 3588
Width: 1370
Flags: HW
Fore
783 630 m 0
 777 635 770 638 762 640 c 1
 738 641 l 1
 701 638 671 618 650 579 c 0
 646 572 643 565 641 558 c 1
 638 532 l 1
 638 498 653 472 682 453 c 1
 694 446 706 443 719 443 c 0
 730 443 741 445 752 450 c 0
 782 463 803 488 816 523 c 0
 819 532 821 543 821 554 c 0
 821 587 808 613 783 630 c 0
380 256 m 1
 383 274 387 293 392 312 c 0
 425 456 463 559 508 621 c 0
 515 631 523 641 532 650 c 0
 573 695 618 725 665 738 c 0
 682 743 701 746 722 746 c 0
 769 746 809 733 840 708 c 2
 849 700 l 2
 896 659 920 610 920 553 c 0
 920 538 918 524 914 511 c 0
 908 490 899 470 887 449 c 0
 854 394 815 361 770 348 c 0
 753 344 737 342 720 342 c 0
 685 342 656 351 632 370 c 0
 609 389 595 407 589 424 c 1
 576 396 563 363 548 324 c 0
 496 188 465 80 455 0 c 1
 245 0 l 1
 245 108 l 2
 245 161 228 266 194 424 c 1
 173 513 163 596 163 673 c 0
 163 766 179 841 210 897 c 1
 249 964 300 1017 362 1057 c 1
 441 1106 524 1135 613 1146 c 1
 676 1149 l 1
 777 1148 863 1130 934 1095 c 1
 1009 1060 1069 1015 1112 959 c 0
 1115 956 1117 953 1119 950 c 0
 1170 881 1195 782 1195 651 c 2
 1195 0 l 1
 1035 0 l 1
 1035 702 l 2
 1035 708 1035 708 1035 715 c 0
 1030 761 1017 802 996 837 c 0
 971 878 928 915 868 948 c 0
 818 975 756 989 681 989 c 0
 614 989 554 976 502 950 c 0
 488 943 473 935 458 924 c 0
 409 889 374 851 353 808 c 0
 334 768 324 714 324 646 c 0
 324 603 328 562 337 525 c 1
 380 256 l 1
EndSplineSet
EndChar
StartChar: uni0E05
Encoding: 127 3589 129
OldEncoding: 3589
Width: 1370
Flags: HW
Fore
1142 926 m 0
 1144 922 l 0
 1175 857 1190 766 1190 651 c 2
 1190 0 l 1
 1030 0 l 1
 1030 702 l 1
 1030 721 l 2
 1030 782 1018 834 994 876 c 0
 964 928 916 966 851 989 c 1
 678 873 l 1
 514 989 l 1
 511 988 507 987 504 986 c 0
 433 963 380 912 344 834 c 0
 329 801 322 745 322 664 c 0
 322 613 325 567 332 525 c 2
 375 256 l 1
 378 274 382 293 387 312 c 0
 420 456 458 559 503 621 c 0
 510 631 518 641 527 650 c 0
 568 695 613 725 660 738 c 0
 677 743 696 746 717 746 c 0
 764 746 803 733 835 708 c 0
 838 705 841 703 844 700 c 0
 891 659 915 610 915 553 c 0
 915 538 913 524 909 511 c 0
 903 490 894 470 882 449 c 0
 849 394 810 361 765 348 c 0
 748 344 732 342 715 342 c 0
 680 342 651 351 627 370 c 0
 604 389 590 407 584 424 c 1
 571 396 558 363 543 324 c 0
 491 188 460 80 450 0 c 1
 240 0 l 1
 240 108 l 2
 240 161 223 266 189 424 c 1
 166 521 155 610 155 689 c 0
 155 739 159 785 168 826 c 0
 179 877 199 925 226 968 c 1
 256 1009 l 1
 323 1092 409 1138 514 1149 c 1
 678 1033 l 1
 851 1149 l 1
 880 1142 909 1133 936 1122 c 0
 1030 1081 1099 1015 1142 926 c 0
778 630 m 0
 772 635 765 638 757 640 c 1
 733 641 l 1
 696 638 666 618 645 579 c 0
 641 572 638 565 636 558 c 1
 632 532 l 1
 633 498 648 472 677 453 c 0
 688 446 700 443 713 443 c 0
 724 443 736 445 747 450 c 0
 777 463 798 488 811 523 c 0
 814 532 815 543 815 554 c 0
 815 587 803 613 778 630 c 0
EndSplineSet
EndChar
StartChar: uni0E06
Encoding: 128 3590 130
OldEncoding: 3590
Width: 1520
Flags: HW
Fore
303 603 m 1
 329 603 l 1
 358 607 380 622 397 649 c 0
 399 652 401 654 402 656 c 0
 411 674 415 693 415 713 c 0
 415 728 412 742 407 754 c 0
 398 775 384 790 364 798 c 0
 362 799 360 799 357 800 c 2
 329 803 l 1
 294 800 268 784 252 753 c 0
 249 747 247 741 245 734 c 0
 241 721 239 709 239 696 c 0
 239 675 244 656 254 639 c 0
 267 619 283 607 303 603 c 1
635 587 m 1
 636 637 672 697 745 767 c 0
 756 778 762 794 760 814 c 128
 760 836 752 863 738 897 c 0
 727 923 705 950 674 979 c 1
 674 978 626 946 530 881 c 1
 393 963 l 1
 371 979 l 1
 352 966 335 943 320 908 c 1
 312 886 l 1
 324 893 338 896 355 896 c 0
 362 896 370 895 380 894 c 0
 425 889 463 861 493 812 c 0
 506 789 513 760 513 727 c 0
 513 680 502 636 480 595 c 0
 459 556 423 529 373 515 c 0
 354 510 335 507 314 507 c 0
 305 507 297 507 288 508 c 0
 234 515 189 544 152 596 c 0
 147 604 147 604 143 611 c 0
 123 646 113 697 113 765 c 0
 113 780 114 793 115 804 c 0
 122 871 150 940 197 1011 c 0
 229 1060 274 1100 332 1132 c 0
 348 1141 361 1146 371 1149 c 1
 371 1148 424 1112 530 1041 c 1
 674 1149 l 1
 713 1138 756 1110 803 1065 c 0
 812 1056 821 1046 830 1036 c 0
 865 995 893 936 912 859 c 0
 917 836 921 815 922 797 c 0
 922 789 922 789 922 783 c 1
 881 743 l 1
 824 682 795 630 795 587 c 2
 795 409 l 1
 943 272 l 1
 1038 189 1106 148 1148 147 c 0
 1157 147 1166 149 1174 154 c 0
 1195 167 1205 201 1205 256 c 2
 1205 1139 l 1
 1365 1139 l 1
 1365 256 l 2
 1365 169 1355 108 1335 74 c 0
 1323 55 1306 39 1285 25 c 0
 1254 5 1221 -5 1186 -5 c 0
 1114 -5 1026 40 923 129 c 1
 804 235 l 1
 794 243 l 1
 791 146 l 1
 782 78 754 31 706 6 c 0
 685 -5 661 -10 636 -10 c 0
 589 -10 547 4 512 32 c 2
 499 43 l 1
 456 88 434 142 434 205 c 0
 434 267 449 319 478 362 c 0
 517 417 570 445 635 446 c 1
 635 587 l 1
644 328 m 1
 604 328 575 307 556 264 c 0
 547 244 542 223 542 202 c 0
 542 163 552 133 571 114 c 0
 578 107 587 103 596 103 c 0
 627 103 643 124 644 166 c 1
 644 200 l 1
 644 328 l 1
EndSplineSet
EndChar
StartChar: uni0E07
Encoding: 129 3591 131
OldEncoding: 3591
Width: 1000
Flags: HW
Fore
627 1042 m 2
 596 1042 571 1027 552 996 c 0
 541 979 536 962 536 945 c 1
 537 938 l 1
 540 892 557 861 588 844 c 0
 600 838 613 835 627 835 c 1
 663 838 685 853 694 882 c 0
 699 897 701 917 701 943 c 1
 698 994 685 1025 661 1036 c 1
 638 1041 l 1
 627 1042 l 2
855 272 m 2
 855 161 814 82 732 33 c 0
 683 4 624 -10 553 -10 c 0
 410 -10 311 51 257 173 c 0
 244 203 234 236 227 272 c 1
 145 719 l 1
 326 640 l 1
 358 455 379 333 388 272 c 0
 395 232 419 200 460 175 c 0
 488 158 519 150 553 150 c 0
 623 150 667 175 686 225 c 0
 691 239 694 255 694 272 c 2
 694 770 l 1
 683 756 661 747 630 743 c 0
 626 742 622 742 618 742 c 2
 584 744 l 1
 549 749 518 765 491 792 c 0
 441 842 427 913 449 1004 c 0
 460 1047 487 1084 530 1114 c 0
 563 1137 601 1149 643 1150 c 0
 651 1150 l 0
 705 1149 750 1131 787 1095 c 0
 832 1052 855 980 855 881 c 2
 855 272 l 2
EndSplineSet
EndChar
StartChar: uni0E08
Encoding: 130 3592 132
OldEncoding: 3592
Width: 1200
Flags: HW
Fore
401 645 m 0
 370 645 345 630 326 599 c 0
 316 582 311 565 311 548 c 2
 311 541 l 1
 314 495 332 464 363 447 c 0
 374 441 387 438 401 438 c 1
 437 441 460 456 469 485 c 0
 473 500 475 520 475 546 c 1
 473 597 460 628 436 639 c 0
 427 643 415 645 401 645 c 0
629 283 m 2
 629 194 669 150 748 150 c 0
 825 150 865 189 868 268 c 0
 868 273 868 273 868 279 c 2
 868 715 l 2
 868 786 854 841 827 882 c 0
 823 887 819 892 816 896 c 1
 759 952 678 983 575 988 c 0
 566 989 556 989 546 989 c 0
 454 989 375 962 308 909 c 0
 290 894 274 879 261 862 c 1
 242 835 l 1
 104 929 l 1
 183 1048 297 1119 446 1142 c 0
 477 1147 510 1149 544 1149 c 0
 665 1149 769 1122 857 1068 c 0
 895 1045 927 1018 952 987 c 0
 1003 924 1028 841 1028 740 c 2
 1028 279 l 2
 1028 168 990 87 915 36 c 0
 870 5 814 -10 748 -10 c 0
 562 -10 469 88 469 283 c 2
 469 373 l 1
 457 359 435 350 404 346 c 0
 401 345 397 345 393 344 c 1
 358 347 l 1
 324 352 293 368 266 395 c 0
 216 445 202 516 224 607 c 0
 235 650 262 687 305 717 c 0
 338 740 375 752 417 753 c 0
 421 753 421 753 426 753 c 0
 480 752 525 734 562 698 c 0
 607 655 629 583 629 484 c 2
 629 283 l 2
EndSplineSet
EndChar
StartChar: uni0E09
Encoding: 131 3593 133
OldEncoding: 3593
Width: 1395
Flags: HW
Fore
944 409 m 1
 944 422 944 422 944 715 c 0
 944 800 926 860 891 896 c 1
 834 952 754 983 651 988 c 0
 641 989 631 989 622 989 c 0
 530 989 451 962 384 909 c 0
 366 894 350 879 337 862 c 1
 318 835 l 1
 179 929 l 1
 259 1048 373 1119 522 1142 c 0
 553 1147 586 1149 619 1149 c 0
 740 1149 844 1122 933 1068 c 0
 971 1045 1002 1018 1027 987 c 0
 1078 924 1104 841 1104 740 c 2
 1104 446 l 1
 1169 445 1222 417 1261 362 c 0
 1290 319 1305 267 1305 205 c 0
 1305 142 1283 88 1240 43 c 0
 1211 14 1172 -4 1123 -9 c 0
 1116 -10 1110 -10 1103 -10 c 0
 1041 -10 996 18 968 75 c 0
 958 96 951 120 948 146 c 1
 945 227 l 1
 944 226 920 204 873 161 c 1
 756 52 657 -3 576 -3 c 0
 561 -3 547 -1 534 2 c 0
 515 6 496 14 479 25 c 0
 441 50 417 87 407 136 c 0
 402 164 399 204 399 256 c 2
 399 391 l 1
 388 377 366 368 335 364 c 0
 323 362 l 1
 289 365 l 1
 254 370 223 386 196 413 c 0
 146 463 132 534 154 625 c 0
 165 668 192 705 235 735 c 0
 268 758 305 770 347 771 c 0
 351 771 351 771 356 771 c 0
 410 770 455 752 492 716 c 0
 537 673 559 601 559 502 c 2
 559 256 l 2
 559 201 567 168 583 157 c 0
 586 156 588 155 590 154 c 2
 605 154 l 1
 638 160 716 216 839 322 c 0
 900 375 935 404 944 409 c 1
331 663 m 2
 300 663 275 648 256 617 c 0
 246 600 241 583 241 566 c 2
 241 559 l 1
 244 513 262 482 293 465 c 0
 304 459 317 456 331 456 c 1
 367 459 390 474 399 503 c 0
 404 518 406 538 406 564 c 1
 403 615 390 646 366 657 c 1
 343 662 l 1
 331 663 l 2
1095 328 m 1
 1095 200 l 2
 1095 164 1097 142 1100 133 c 0
 1107 113 1121 103 1143 103 c 0
 1165 103 1181 121 1191 156 c 0
 1195 171 1197 186 1197 202 c 0
 1197 242 1184 275 1159 301 c 0
 1141 319 1120 328 1095 328 c 1
EndSplineSet
EndChar
StartChar: uni0E0A
Encoding: 132 3594 134
OldEncoding: 3594
Width: 1390
Flags: HW
Fore
841 921 m 1
 904 930 949 940 976 949 c 0
 1005 960 1031 973 1053 990 c 0
 1094 1021 1120 1056 1129 1095 c 0
 1134 1114 1136 1136 1137 1163 c 1
 1137 1188 l 1
 1303 1188 l 1
 1303 1164 l 2
 1303 1053 1249 968 1140 909 c 0
 1103 888 1061 872 1014 861 c 1
 1094 802 l 2
 1114 787 1128 774 1137 765 c 0
 1184 714 1207 656 1208 592 c 1
 1208 278 l 2
 1208 248 1206 220 1201 195 c 0
 1181 90 1117 25 1008 1 c 1
 949 -8 l 1
 931 -9 912 -10 893 -10 c 0
 776 -10 690 27 635 101 c 0
 600 148 582 207 582 278 c 2
 582 575 l 2
 582 625 619 685 692 755 c 0
 703 766 709 791 708 830 c 1
 704 867 693 900 674 927 c 0
 650 962 612 986 559 998 c 0
 544 1001 530 1003 515 1003 c 2
 468 1000 l 1
 419 993 373 968 330 925 c 1
 342 931 356 934 373 934 c 0
 380 934 389 934 398 933 c 0
 443 928 481 900 511 850 c 0
 524 827 531 798 531 765 c 0
 531 718 520 675 498 634 c 0
 477 595 441 568 391 553 c 0
 372 548 353 545 333 545 c 0
 324 545 315 546 306 547 c 0
 252 553 207 582 170 635 c 0
 167 640 164 644 161 649 c 0
 141 684 131 735 131 804 c 0
 131 818 132 831 133 843 c 0
 141 911 169 972 216 1025 c 0
 222 1032 228 1038 234 1043 c 0
 307 1110 394 1145 495 1149 c 0
 511 1149 l 0
 579 1149 646 1130 711 1092 c 0
 734 1079 754 1064 769 1049 c 0
 798 1020 822 978 841 921 c 1
869 771 m 1
 828 731 l 1
 771 670 742 618 742 575 c 2
 742 278 l 2
 742 245 760 214 797 186 c 0
 827 163 859 151 893 150 c 0
 940 150 981 167 1014 202 c 0
 1037 225 1048 251 1048 278 c 2
 1048 581 l 2
 1048 606 1032 639 1001 679 c 0
 984 700 966 719 946 734 c 0
 921 753 895 766 869 771 c 1
321 642 m 1
 347 641 l 1
 376 645 399 660 416 687 c 0
 420 695 l 0
 429 713 433 732 433 751 c 0
 433 766 430 780 425 793 c 0
 416 817 399 832 375 839 c 1
 347 841 l 1
 312 839 287 822 270 791 c 0
 267 786 265 780 263 773 c 0
 259 760 257 748 257 735 c 0
 257 724 259 713 262 703 c 1
 272 679 l 1
 285 658 301 645 321 642 c 1
EndSplineSet
EndChar
StartChar: uni0E0B
Encoding: 133 3595 135
OldEncoding: 3595
Width: 1390
Flags: HW
Fore
261 603 m 1
 287 603 l 1
 316 607 338 622 355 649 c 0
 357 652 359 654 360 656 c 0
 369 674 373 693 373 713 c 0
 373 728 370 742 365 754 c 0
 356 775 342 790 322 798 c 0
 320 799 318 799 315 800 c 2
 287 803 l 1
 252 800 226 784 210 753 c 0
 207 747 205 741 203 734 c 0
 199 721 197 709 197 696 c 0
 197 675 202 656 212 639 c 0
 225 619 241 607 261 603 c 1
845 921 m 1
 908 930 953 940 980 949 c 0
 1009 960 1035 973 1057 990 c 0
 1098 1021 1124 1056 1133 1095 c 0
 1138 1114 1140 1136 1141 1163 c 1
 1141 1188 l 1
 1307 1188 l 1
 1307 1164 l 2
 1307 1053 1253 968 1144 909 c 0
 1107 888 1065 872 1018 861 c 1
 1098 802 l 2
 1118 787 1132 774 1141 765 c 0
 1188 714 1211 656 1212 592 c 1
 1212 278 l 2
 1212 248 1210 220 1205 195 c 0
 1185 90 1121 25 1012 1 c 1
 953 -8 l 1
 935 -9 916 -10 897 -10 c 0
 780 -10 694 27 639 101 c 0
 604 148 586 207 586 278 c 2
 586 575 l 2
 586 625 623 685 698 754 c 0
 710 765 717 773 718 776 c 128
 719 779 720 786 720 796 c 0
 720 827 712 860 696 897 c 0
 685 923 663 950 632 979 c 1
 632 978 584 946 488 881 c 1
 351 963 l 1
 329 979 l 1
 310 966 293 943 278 908 c 1
 270 886 l 1
 282 893 296 896 313 896 c 0
 320 896 328 895 338 894 c 0
 383 889 421 861 451 812 c 0
 464 789 471 760 471 727 c 0
 471 680 460 636 438 595 c 0
 417 556 381 529 331 515 c 0
 312 510 293 507 272 507 c 0
 263 507 255 507 246 508 c 0
 192 515 147 544 110 596 c 0
 105 604 105 604 101 611 c 0
 81 646 71 697 71 765 c 0
 71 780 72 793 73 804 c 0
 80 871 108 940 155 1011 c 0
 187 1060 232 1100 290 1132 c 0
 306 1141 319 1146 329 1149 c 1
 329 1148 382 1112 488 1041 c 1
 632 1149 l 1
 674 1138 716 1111 759 1068 c 0
 769 1058 779 1047 788 1036 c 0
 818 999 837 960 845 921 c 1
873 771 m 1
 832 731 l 1
 775 670 746 618 746 575 c 2
 746 278 l 2
 746 245 764 214 801 186 c 0
 831 163 863 151 897 150 c 0
 944 150 985 167 1018 202 c 0
 1041 225 1052 251 1052 278 c 2
 1052 581 l 2
 1052 606 1036 639 1005 679 c 0
 988 700 970 719 950 734 c 0
 925 753 899 766 873 771 c 1
EndSplineSet
EndChar
StartChar: uni0E0C
Encoding: 134 3596 136
OldEncoding: 3596
Width: 1750
Flags: HW
Fore
925 657 m 2
 925 761 906 838 867 887 c 0
 854 903 839 917 822 930 c 0
 787 956 739 974 677 985 c 0
 659 988 643 989 628 989 c 0
 530 989 442 957 364 892 c 0
 340 872 319 850 300 825 c 1
 329 818 367 794 414 755 c 0
 456 720 481 689 489 663 c 1
 442 614 412 581 400 563 c 0
 374 526 359 491 354 459 c 0
 352 444 351 425 351 403 c 2
 351 369 l 1
 363 383 385 392 416 396 c 0
 419 397 423 397 427 397 c 2
 462 395 l 1
 496 390 527 374 554 347 c 0
 604 297 618 226 596 135 c 1
 585 92 558 56 515 25 c 0
 482 2 445 -10 403 -11 c 2
 394 -11 l 2
 340 -10 295 8 258 44 c 0
 213 87 191 159 191 258 c 2
 191 403 l 2
 191 460 201 507 220 546 c 0
 235 576 268 618 320 671 c 1
 295 701 252 731 193 762 c 0
 166 776 142 786 122 792 c 1
 135 855 171 917 229 979 c 0
 334 1092 467 1149 628 1149 c 0
 773 1149 890 1102 977 1008 c 1
 1048 923 1084 811 1085 673 c 0
 1085 670 1085 670 1085 409 c 1
 1233 272 l 1
 1328 189 1396 148 1438 147 c 0
 1447 147 1456 149 1464 154 c 0
 1485 167 1495 201 1495 256 c 2
 1495 1139 l 1
 1655 1139 l 1
 1655 256 l 2
 1655 169 1645 108 1625 74 c 0
 1613 55 1596 39 1575 25 c 0
 1544 5 1511 -5 1476 -5 c 0
 1404 -5 1316 40 1213 129 c 1
 1094 235 l 2
 1084 243 l 1
 1081 146 l 1
 1072 78 1044 31 996 6 c 0
 975 -5 951 -10 926 -10 c 0
 879 -10 838 4 803 31 c 2
 789 43 l 1
 746 88 724 142 724 205 c 0
 724 267 739 319 768 362 c 0
 807 417 860 445 925 446 c 1
 925 657 l 2
934 328 m 1
 894 328 865 307 846 264 c 0
 837 244 832 223 832 202 c 0
 832 163 842 133 861 114 c 0
 868 107 877 103 886 103 c 0
 917 103 933 124 934 166 c 1
 934 200 l 1
 934 328 l 1
419 97 m 0
 450 97 475 112 494 143 c 0
 504 160 509 177 509 194 c 0
 509 198 509 198 509 201 c 0
 506 247 488 278 457 294 c 0
 446 301 433 304 419 304 c 1
 383 301 360 286 351 257 c 1
 346 222 l 1
 345 215 345 206 345 196 c 0
 347 145 360 114 384 103 c 0
 393 99 405 97 419 97 c 0
EndSplineSet
EndChar
StartChar: uni0E0D
Encoding: 135 3597 137
OldEncoding: 3597
Width: 1745
Flags: HW
Fore
900 -203 m 1
 902 -162 l 1
 910 -105 937 -62 984 -33 c 0
 1005 -20 1027 -12 1052 -9 c 1
 1089 -8 l 1
 1127 -10 1160 -25 1188 -53 c 0
 1213 -78 1228 -107 1233 -141 c 1
 1234 -174 l 1
 1231 -223 1211 -261 1174 -288 c 2
 1167 -293 l 1
 1176 -296 1190 -298 1209 -298 c 0
 1239 -298 1268 -294 1297 -285 c 0
 1391 -256 1451 -205 1478 -133 c 0
 1491 -100 1498 -60 1499 -13 c 1
 1615 -13 l 1
 1615 -146 1569 -249 1477 -323 c 0
 1445 -348 1409 -369 1369 -384 c 0
 1319 -404 1265 -414 1206 -414 c 0
 1112 -414 1035 -390 976 -343 c 0
 929 -306 904 -259 900 -203 c 1
1056 -84 m 1
 1026 -89 1005 -104 993 -131 c 0
 988 -141 986 -152 986 -164 c 0
 986 -169 987 -175 988 -181 c 0
 994 -209 1011 -227 1038 -236 c 0
 1046 -239 1055 -241 1064 -241 c 0
 1068 -241 1072 -241 1076 -240 c 0
 1111 -235 1135 -218 1148 -189 c 0
 1152 -180 1154 -170 1154 -160 c 0
 1154 -157 1154 -153 1153 -149 c 0
 1148 -121 1133 -101 1106 -89 c 0
 1095 -85 1084 -83 1072 -83 c 2
 1056 -84 l 1
419 97 m 0
 450 97 475 112 494 143 c 0
 504 160 509 177 509 194 c 0
 509 198 509 198 509 201 c 0
 506 247 488 278 457 294 c 0
 446 301 433 304 419 304 c 1
 383 301 360 286 351 257 c 1
 346 222 l 1
 345 215 345 206 345 196 c 0
 347 145 360 114 384 103 c 0
 393 99 405 97 419 97 c 0
1085 673 m 2
 1085 310 l 2
 1085 237 1117 188 1181 163 c 0
 1203 154 1226 150 1250 150 c 0
 1254 150 l 0
 1318 151 1362 166 1386 193 c 0
 1409 219 1420 258 1420 310 c 2
 1420 1139 l 1
 1580 1139 l 1
 1580 241 l 2
 1580 172 1548 114 1485 65 c 0
 1420 16 1339 -9 1244 -10 c 1
 1188 -6 l 1
 1102 5 1034 40 983 98 c 0
 944 143 925 193 925 249 c 2
 925 657 l 2
 925 762 905 839 866 888 c 0
 856 901 844 913 831 924 c 1
 822 930 l 2
 787 956 739 974 677 985 c 0
 659 988 643 989 628 989 c 0
 530 989 442 957 364 892 c 0
 340 872 319 850 300 825 c 1
 329 818 367 794 414 755 c 0
 456 720 481 689 489 663 c 1
 442 614 412 581 400 563 c 0
 374 526 359 491 354 459 c 0
 352 444 351 425 351 403 c 2
 351 369 l 1
 363 383 385 392 416 396 c 0
 419 397 423 397 427 397 c 2
 462 395 l 1
 496 390 527 374 554 347 c 0
 604 297 618 226 596 135 c 1
 585 92 558 56 515 25 c 0
 482 2 445 -10 403 -11 c 2
 394 -11 l 2
 340 -10 295 8 258 44 c 0
 213 87 191 159 191 258 c 2
 191 403 l 2
 191 460 201 507 220 546 c 0
 235 576 268 618 320 671 c 1
 295 701 252 731 193 762 c 0
 166 776 142 786 122 792 c 1
 135 855 171 917 229 979 c 0
 334 1092 467 1149 628 1149 c 0
 773 1149 890 1102 977 1008 c 1
 1049 922 1085 810 1085 673 c 2
EndSplineSet
EndChar
StartChar: uni0E0E
Encoding: 136 3598 138
OldEncoding: 3598
Width: 1375
Flags: HW
Fore
262 98 m 0
 297 98 319 113 328 142 c 0
 333 155 335 174 336 197 c 0
 336 250 324 282 301 295 c 1
 278 303 l 1
 273 304 268 304 262 305 c 0
 224 305 197 285 181 245 c 0
 176 232 173 217 172 202 c 1
 174 177 l 1
 181 146 197 124 224 109 c 0
 236 102 249 98 262 98 c 0
1063 -209 m 1
 1064 658 l 1
 1064 740 1053 804 1030 849 c 0
 1014 882 991 909 962 931 c 0
 927 957 878 975 816 986 c 0
 798 989 782 990 767 990 c 0
 669 990 581 958 503 893 c 0
 479 873 458 851 439 826 c 1
 468 819 506 795 553 756 c 0
 595 721 620 690 628 664 c 1
 581 615 551 582 539 564 c 0
 513 527 498 492 493 459 c 0
 491 444 490 425 490 404 c 2
 490 259 l 2
 490 160 468 89 423 45 c 0
 386 9 341 -9 287 -10 c 1
 242 -7 l 1
 216 -2 191 9 166 26 c 0
 123 56 96 93 85 136 c 0
 63 227 77 298 127 348 c 0
 162 382 201 399 246 399 c 0
 249 399 251 399 254 398 c 0
 287 397 313 387 330 370 c 1
 330 404 l 1
 331 461 340 509 359 547 c 0
 374 577 407 619 459 672 c 1
 434 702 391 732 332 763 c 0
 305 777 281 787 261 793 c 1
 274 856 310 918 368 980 c 0
 473 1093 606 1150 767 1150 c 0
 912 1150 1029 1103 1116 1009 c 1
 1188 923 1224 811 1224 674 c 2
 1224 -410 l 1
 1064 -410 l 1
 1010 -339 949 -278 882 -227 c 1
 867 -215 853 -205 839 -196 c 1
 818 -239 784 -283 736 -328 c 1
 715 -346 l 2
 665 -386 603 -408 530 -413 c 1
 502 -413 l 2
 443 -412 399 -394 370 -357 c 0
 353 -336 344 -304 344 -260 c 0
 344 -230 349 -203 358 -180 c 0
 375 -135 407 -94 456 -56 c 0
 489 -29 539 -13 605 -7 c 1
 656 -7 l 1
 697 -10 736 -19 774 -34 c 1
 867 140 l 1
 973 105 l 1
 882 -76 l 1
 925 -97 976 -133 1034 -182 c 0
 1047 -193 1056 -202 1063 -209 c 1
474 -210 m 0
 467 -234 467 -252 476 -264 c 0
 487 -281 505 -289 529 -289 c 0
 538 -289 547 -288 558 -286 c 0
 580 -282 606 -271 637 -253 c 1
 663 -240 687 -219 708 -191 c 0
 719 -176 727 -162 733 -147 c 1
 717 -130 686 -121 639 -121 c 2
 616 -121 l 2
 580 -122 544 -134 509 -159 c 1
 493 -172 481 -189 474 -210 c 0
EndSplineSet
EndChar
StartChar: uni0E0F
Encoding: 137 3599 139
OldEncoding: 3599
Width: 1375
Flags: HW
Fore
262 98 m 0
 297 98 319 113 328 142 c 0
 333 155 335 174 336 197 c 0
 336 250 324 282 301 295 c 1
 278 303 l 1
 273 304 268 304 262 305 c 0
 224 305 197 285 181 245 c 0
 176 232 173 217 172 202 c 1
 174 177 l 1
 181 146 197 124 224 109 c 0
 236 102 249 98 262 98 c 0
1064 -209 m 1
 1064 658 l 2
 1064 740 1053 804 1030 849 c 0
 1014 882 991 909 962 931 c 0
 927 957 878 975 816 986 c 0
 798 989 782 990 767 990 c 0
 669 990 581 958 503 893 c 0
 479 873 458 851 439 826 c 1
 468 819 506 795 553 756 c 0
 595 721 620 690 628 664 c 1
 581 615 551 582 539 564 c 0
 513 527 498 492 493 459 c 0
 491 444 490 425 490 404 c 2
 490 259 l 2
 490 160 468 89 423 45 c 0
 386 9 341 -9 287 -10 c 1
 242 -7 l 1
 216 -2 191 9 166 26 c 0
 123 56 96 93 85 136 c 0
 63 227 77 298 127 348 c 0
 162 382 201 399 246 399 c 0
 249 399 251 399 254 398 c 0
 287 397 313 387 330 370 c 1
 330 404 l 1
 331 461 340 509 359 547 c 0
 374 577 407 619 459 672 c 1
 434 702 391 732 332 763 c 0
 305 777 281 787 261 793 c 1
 274 856 310 918 368 980 c 0
 473 1093 606 1150 767 1150 c 0
 912 1150 1029 1103 1116 1009 c 1
 1188 923 1224 811 1224 674 c 2
 1224 -410 l 1
 1064 -410 l 1
 1026 -360 984 -311 939 -263 c 0
 933 -257 933 -257 928 -252 c 1
 924 -256 900 -278 857 -317 c 0
 840 -333 825 -348 812 -362 c 1
 790 -313 763 -271 731 -236 c 0
 715 -218 701 -207 689 -203 c 1
 667 -249 631 -294 580 -338 c 0
 570 -346 l 0
 520 -386 458 -408 385 -413 c 1
 357 -413 l 2
 298 -412 254 -394 225 -357 c 0
 208 -336 199 -304 199 -260 c 0
 199 -230 204 -203 213 -180 c 0
 230 -135 262 -94 311 -56 c 0
 344 -29 394 -13 460 -7 c 1
 511 -7 l 1
 552 -10 591 -19 629 -34 c 1
 722 140 l 1
 828 105 l 1
 737 -76 l 1
 770 -104 791 -124 801 -137 c 0
 806 -144 809 -150 812 -156 c 1
 896 -64 l 1
 907 -53 918 -45 928 -38 c 1
 952 -57 991 -106 1045 -183 c 2
 1064 -209 l 1
329 -210 m 0
 322 -234 322 -252 331 -264 c 0
 342 -281 360 -289 384 -289 c 0
 393 -289 402 -288 413 -286 c 0
 435 -282 461 -271 492 -253 c 1
 518 -240 542 -219 563 -191 c 0
 574 -176 582 -162 588 -147 c 1
 572 -130 541 -121 494 -121 c 2
 471 -121 l 2
 435 -122 399 -134 364 -159 c 1
 348 -172 336 -189 329 -210 c 0
EndSplineSet
EndChar
StartChar: uni0E10
Encoding: 138 3600 140
OldEncoding: 3600
Width: 1130
Flags: HW
Fore
289 589 m 0
 258 589 233 574 214 543 c 0
 204 526 199 509 199 492 c 2
 199 485 l 1
 202 439 220 408 251 391 c 0
 262 385 275 382 289 382 c 1
 325 385 348 400 357 429 c 0
 362 444 364 464 364 490 c 1
 361 541 348 572 324 583 c 1
 301 588 l 2
 297 589 293 589 289 589 c 0
757 529 m 2
 757 583 706 625 605 656 c 0
 476 695 301 730 80 762 c 1
 94 829 121 894 161 957 c 0
 198 1016 250 1063 316 1099 c 0
 377 1132 454 1149 549 1149 c 0
 626 1149 697 1134 764 1103 c 0
 819 1078 880 1065 948 1065 c 0
 974 1065 997 1067 1017 1072 c 1
 978 917 l 1
 961 913 942 911 920 912 c 0
 858 912 804 922 758 941 c 0
 755 942 753 943 751 944 c 0
 676 980 604 998 536 998 c 0
 527 998 517 998 508 997 c 0
 448 993 397 967 354 918 c 0
 341 903 331 887 324 872 c 1
 463 849 l 1
 612 815 720 780 787 744 c 0
 874 698 917 641 917 574 c 2
 917 279 l 2
 917 168 879 87 804 36 c 0
 758 5 702 -10 637 -10 c 0
 450 -10 357 88 357 283 c 2
 357 317 l 1
 346 303 324 294 293 290 c 0
 281 288 l 1
 247 291 l 1
 212 296 181 312 154 339 c 0
 104 389 90 460 112 551 c 0
 123 594 150 631 193 661 c 0
 226 684 263 696 305 697 c 0
 309 697 309 697 314 697 c 0
 368 696 413 678 450 642 c 0
 495 599 517 527 517 428 c 2
 517 283 l 2
 517 194 557 150 637 150 c 0
 713 150 753 189 756 268 c 0
 757 271 757 275 757 279 c 2
 757 529 l 2
772 -329 m 1
 772 -262 l 1
 762 -271 744 -276 718 -276 c 0
 712 -276 712 -276 707 -276 c 0
 680 -273 656 -263 635 -246 c 0
 610 -227 597 -201 597 -170 c 0
 597 -160 598 -149 601 -138 c 0
 602 -133 603 -129 605 -124 c 0
 612 -97 633 -74 666 -55 c 0
 691 -41 716 -34 743 -34 c 0
 794 -34 836 -45 868 -66 c 0
 899 -86 917 -118 922 -163 c 0
 924 -178 925 -198 925 -223 c 2
 925 -530 l 1
 775 -530 l 1
 762 -478 741 -443 711 -424 c 0
 700 -417 687 -413 674 -413 c 0
 648 -413 620 -434 590 -475 c 0
 578 -492 568 -510 560 -529 c 1
 532 -474 l 1
 518 -449 496 -427 466 -406 c 1
 433 -448 401 -478 372 -497 c 1
 335 -517 293 -529 246 -533 c 1
 205 -534 l 1
 157 -531 118 -512 87 -478 c 0
 74 -463 67 -441 67 -413 c 0
 67 -400 69 -387 72 -376 c 0
 76 -366 l 0
 90 -337 112 -314 141 -299 c 0
 147 -296 153 -294 159 -292 c 1
 191 -277 232 -269 281 -269 c 0
 327 -269 373 -277 418 -294 c 1
 421 -291 l 2
 428 -282 444 -254 470 -208 c 1
 558 -230 l 1
 502 -324 l 1
 525 -338 543 -351 555 -364 c 0
 556 -365 557 -367 558 -368 c 1
 603 -312 641 -284 674 -284 c 0
 715 -284 748 -299 772 -329 c 1
732 -95 m 0
 714 -95 698 -105 683 -124 c 0
 675 -134 671 -144 671 -154 c 1
 674 -177 l 1
 681 -200 696 -215 719 -220 c 0
 723 -221 727 -222 732 -222 c 0
 763 -219 781 -202 785 -172 c 0
 785 -165 785 -165 785 -157 c 0
 785 -121 771 -101 742 -96 c 0
 739 -95 735 -95 732 -95 c 0
148 -399 m 0
 145 -406 144 -412 144 -418 c 0
 143 -427 146 -435 152 -442 c 1
 167 -455 182 -461 197 -461 c 0
 201 -461 201 -461 204 -461 c 0
 239 -461 275 -453 310 -437 c 1
 324 -432 345 -413 372 -380 c 0
 378 -373 383 -367 386 -362 c 1
 367 -350 334 -344 286 -344 c 0
 249 -344 215 -351 184 -364 c 1
 165 -376 153 -388 148 -399 c 0
EndSplineSet
EndChar
StartChar: uni0E11
Encoding: 139 3601 141
OldEncoding: 3601
Width: 1700
Flags: HW
Fore
303 603 m 1
 329 603 l 1
 358 607 380 622 397 649 c 0
 399 652 401 654 402 656 c 0
 411 674 415 693 415 713 c 0
 415 728 412 742 407 754 c 0
 398 775 384 790 364 798 c 0
 362 799 360 799 357 800 c 2
 329 803 l 1
 294 800 268 784 252 753 c 0
 249 747 247 741 245 734 c 0
 241 721 239 709 239 696 c 0
 239 675 244 656 254 639 c 0
 267 619 283 607 303 603 c 1
636 0 m 1
 636 129 636 324 635 587 c 0
 635 637 672 697 745 767 c 0
 756 778 762 794 760 814 c 128
 760 836 752 863 738 897 c 0
 727 923 705 950 674 979 c 1
 674 978 626 946 530 881 c 1
 393 963 l 1
 371 979 l 1
 352 966 335 943 320 908 c 1
 312 886 l 1
 324 893 338 896 355 896 c 0
 362 896 370 895 380 894 c 0
 425 889 463 861 493 812 c 0
 506 789 513 760 513 727 c 0
 513 680 502 636 480 595 c 0
 459 556 423 529 373 515 c 0
 354 510 335 507 314 507 c 0
 305 507 297 507 288 508 c 0
 234 515 189 544 152 596 c 0
 147 604 147 604 143 611 c 0
 123 646 113 697 113 765 c 0
 113 780 114 793 115 804 c 0
 122 871 150 940 197 1011 c 0
 229 1060 274 1100 332 1132 c 0
 348 1141 361 1146 371 1149 c 1
 371 1148 424 1112 530 1041 c 1
 674 1149 l 1
 713 1138 756 1110 803 1065 c 0
 812 1056 821 1046 830 1036 c 0
 865 995 893 936 912 859 c 0
 917 836 921 815 922 797 c 0
 922 789 922 789 922 783 c 1
 881 743 l 1
 824 682 795 630 795 587 c 1
 796 263 l 1
 1132 990 l 1
 1166 1068 1220 1115 1293 1131 c 0
 1308 1134 1323 1136 1338 1136 c 0
 1357 1135 1376 1133 1393 1128 c 0
 1457 1110 1500 1067 1521 1000 c 0
 1530 973 1534 943 1534 910 c 2
 1534 0 l 1
 1374 0 l 1
 1374 719 l 2
 1374 809 1366 864 1351 885 c 1
 1341 894 l 1
 1331 898 l 1
 1310 899 l 1
 1281 895 1254 869 1231 821 c 2
 1219 796 l 1
 838 0 l 1
 636 0 l 1
EndSplineSet
EndChar
StartChar: uni0E12
Encoding: 140 3602 142
OldEncoding: 3602
Width: 1850
Flags: HW
Fore
993 734 m 2
 993 793 968 851 918 906 c 0
 885 942 851 966 816 979 c 1
 643 863 l 1
 479 979 l 1
 428 965 384 937 346 895 c 0
 331 879 320 862 312 845 c 0
 293 804 284 748 284 676 c 0
 284 631 288 589 296 551 c 1
 361 266 l 1
 366 241 370 218 373 197 c 1
 414 212 454 240 491 279 c 0
 518 308 535 337 542 365 c 1
 535 363 527 362 518 362 c 0
 458 362 414 386 386 434 c 1
 368 461 359 495 359 536 c 0
 359 574 366 609 381 641 c 1
 415 707 472 742 553 745 c 1
 587 743 l 1
 634 734 672 710 700 670 c 0
 705 663 710 655 714 647 c 0
 731 612 739 571 739 523 c 0
 739 508 738 493 736 477 c 0
 719 332 649 205 525 95 c 0
 477 52 432 21 389 0 c 1
 204 0 l 1
 204 108 l 2
 204 178 187 292 153 450 c 1
 132 541 121 625 121 702 c 0
 121 747 125 789 133 826 c 0
 159 939 215 1025 301 1084 c 0
 354 1121 413 1142 479 1149 c 1
 643 1033 l 1
 816 1149 l 1
 1041 1099 1153 942 1153 677 c 2
 1153 409 l 1
 1158 406 1193 374 1258 314 c 0
 1375 205 1451 151 1486 151 c 0
 1491 151 1495 152 1499 154 c 0
 1520 165 1530 199 1530 256 c 2
 1530 1139 l 1
 1690 1139 l 1
 1690 256 l 2
 1690 169 1680 108 1660 74 c 0
 1648 55 1631 39 1610 25 c 0
 1580 6 1548 -4 1514 -4 c 0
 1437 -4 1346 49 1241 154 c 2
 1153 242 l 1
 1152 243 l 1
 1149 146 l 1
 1140 78 1112 31 1064 6 c 0
 1043 -5 1019 -10 994 -10 c 0
 947 -10 906 4 871 31 c 2
 857 43 l 1
 814 88 792 142 792 205 c 0
 792 267 807 319 836 362 c 0
 875 417 928 445 993 446 c 1
 993 734 l 2
1002 328 m 1
 962 328 933 307 914 264 c 0
 905 244 900 223 900 202 c 0
 900 163 910 133 929 114 c 0
 936 107 945 103 954 103 c 0
 985 103 1001 124 1002 166 c 1
 1002 200 l 1
 1002 328 l 1
544 647 m 1
 526 646 l 1
 501 639 481 622 466 595 c 0
 459 582 455 567 454 552 c 1
 454 516 l 1
 459 473 479 449 514 444 c 0
 517 443 519 443 522 443 c 2
 544 445 l 1
 574 453 593 477 601 517 c 0
 603 525 604 533 604 542 c 1
 603 585 l 1
 598 620 578 641 544 647 c 1
EndSplineSet
EndChar
StartChar: uni0E13
Encoding: 141 3603 143
OldEncoding: 3603
Width: 1900
Flags: HW
Fore
928 657 m 2
 928 700 925 737 920 768 c 0
 907 839 876 893 826 930 c 0
 791 956 742 974 680 985 c 0
 663 988 646 989 631 989 c 0
 533 989 445 957 368 892 c 0
 343 872 322 850 303 825 c 1
 332 818 370 794 417 755 c 0
 459 720 484 689 492 663 c 1
 445 614 415 581 403 563 c 0
 378 526 363 491 358 459 c 0
 355 444 354 425 354 403 c 1
 355 369 l 1
 366 383 388 392 419 396 c 0
 423 397 427 397 430 397 c 2
 465 395 l 1
 500 390 531 374 558 347 c 0
 608 297 622 226 600 135 c 1
 589 92 562 56 519 25 c 0
 486 2 448 -10 406 -11 c 2
 398 -11 l 2
 344 -10 299 8 262 44 c 0
 217 87 194 159 194 258 c 2
 194 403 l 2
 194 460 204 507 223 546 c 0
 238 576 271 618 323 671 c 1
 298 701 255 731 196 762 c 0
 169 776 145 786 125 792 c 1
 138 855 174 917 232 979 c 0
 338 1092 471 1149 631 1149 c 0
 776 1149 893 1102 980 1008 c 1
 1052 922 1088 810 1088 673 c 2
 1088 256 l 2
 1088 209 1095 178 1110 161 c 0
 1113 158 1116 156 1119 154 c 0
 1126 149 1135 147 1144 147 c 0
 1188 147 1262 202 1367 313 c 0
 1424 372 1455 404 1461 409 c 1
 1461 460 1461 703 1460 1139 c 1
 1620 1139 l 1
 1620 446 l 1
 1686 445 1739 417 1778 362 c 0
 1807 319 1822 267 1822 205 c 0
 1822 142 1800 88 1757 43 c 0
 1728 14 1688 -4 1639 -9 c 0
 1632 -10 1626 -10 1620 -10 c 0
 1558 -10 1513 18 1485 75 c 0
 1475 96 1468 120 1464 146 c 1
 1462 243 l 1
 1449 233 1415 201 1360 148 c 1
 1286 74 1224 28 1173 9 c 0
 1150 -0 1127 -5 1104 -5 c 0
 1071 -5 1039 5 1008 25 c 0
 969 50 945 87 936 136 c 0
 931 164 928 204 928 256 c 2
 928 657 l 2
1612 328 m 1
 1612 200 l 2
 1612 164 1613 142 1616 133 c 0
 1623 113 1637 103 1660 103 c 0
 1681 103 1697 121 1707 156 c 0
 1712 171 1714 186 1714 202 c 0
 1714 242 1701 275 1676 301 c 0
 1658 319 1637 328 1612 328 c 1
422 97 m 0
 453 97 478 112 497 143 c 0
 508 160 513 177 513 194 c 0
 513 197 513 199 512 201 c 0
 509 247 492 278 461 294 c 0
 449 301 436 304 422 304 c 1
 386 301 364 286 355 257 c 1
 349 222 l 1
 348 215 348 206 348 196 c 0
 351 145 364 114 388 103 c 0
 397 99 408 97 422 97 c 0
EndSplineSet
EndChar
StartChar: uni0E14
Encoding: 142 3604 144
OldEncoding: 3604
Width: 1330
Flags: HW
Fore
562 647 m 1
 544 646 l 1
 519 639 499 622 485 595 c 0
 478 582 473 567 472 552 c 1
 472 516 l 1
 477 473 497 449 532 444 c 0
 535 443 537 443 540 443 c 2
 562 445 l 1
 592 453 611 477 619 517 c 0
 621 525 622 533 622 542 c 1
 621 585 l 1
 616 620 596 641 562 647 c 1
407 0 m 1
 222 0 l 1
 222 108 l 2
 222 178 205 292 171 450 c 1
 150 541 139 619 139 683 c 0
 139 724 143 764 151 801 c 0
 178 920 250 1011 367 1075 c 0
 456 1124 553 1148 660 1149 c 1
 732 1145 l 1
 870 1131 978 1079 1057 988 c 0
 1133 901 1171 789 1171 652 c 2
 1171 0 l 1
 1011 0 l 1
 1011 708 l 2
 1011 786 974 853 900 908 c 0
 835 957 762 984 682 989 c 0
 664 989 l 0
 594 989 523 970 452 932 c 0
 391 900 350 863 330 820 c 0
 311 780 302 729 302 668 c 0
 302 629 306 590 314 551 c 1
 379 266 l 1
 384 241 388 218 391 197 c 1
 432 212 472 240 509 279 c 0
 536 308 553 337 560 365 c 1
 553 363 545 362 536 362 c 0
 477 362 433 386 404 434 c 1
 386 461 377 495 377 536 c 0
 377 574 384 609 399 641 c 1
 433 707 490 742 571 745 c 1
 605 743 l 1
 652 734 690 710 718 670 c 0
 723 663 728 655 732 647 c 0
 749 612 757 571 757 523 c 0
 757 508 756 493 754 477 c 0
 737 332 667 205 543 95 c 0
 495 52 450 21 407 0 c 1
EndSplineSet
EndChar
StartChar: uni0E15
Encoding: 143 3605 145
OldEncoding: 3605
Width: 1330
Flags: HW
Fore
562 647 m 1
 544 646 l 1
 519 639 499 622 485 595 c 0
 478 582 473 567 472 552 c 1
 472 516 l 1
 477 473 497 449 532 444 c 0
 535 443 537 443 540 443 c 2
 562 445 l 1
 592 453 611 477 619 517 c 0
 621 525 622 533 622 542 c 1
 621 585 l 1
 616 620 596 641 562 647 c 1
407 0 m 1
 222 0 l 1
 222 108 l 2
 222 178 205 292 171 450 c 1
 150 541 139 625 139 702 c 0
 139 747 143 789 151 826 c 0
 177 939 233 1025 319 1084 c 0
 372 1121 431 1142 497 1149 c 1
 661 1033 l 1
 834 1149 l 1
 1059 1099 1171 942 1171 677 c 2
 1171 0 l 1
 1011 0 l 1
 1011 734 l 2
 1011 793 986 851 936 906 c 0
 903 942 869 966 834 979 c 1
 661 863 l 1
 497 979 l 1
 446 965 402 937 364 895 c 0
 349 879 338 862 330 845 c 0
 311 804 302 748 302 676 c 0
 302 631 306 589 314 551 c 1
 379 266 l 1
 384 241 388 218 391 197 c 1
 432 212 472 240 509 279 c 0
 536 308 553 337 560 365 c 1
 553 363 545 362 536 362 c 0
 477 362 433 386 404 434 c 1
 386 461 377 495 377 536 c 0
 377 574 384 609 399 641 c 1
 433 707 490 742 571 745 c 1
 605 743 l 1
 652 734 690 710 718 670 c 0
 723 663 728 655 732 647 c 0
 749 612 757 571 757 523 c 0
 757 508 756 493 754 477 c 0
 737 332 667 205 543 95 c 0
 495 52 450 21 407 0 c 1
EndSplineSet
EndChar
StartChar: uni0E16
Encoding: 144 3606 146
OldEncoding: 3606
Width: 1240
Flags: HW
Fore
1085 0 m 1
 925 0 l 1
 925 657 l 2
 925 761 906 838 867 887 c 0
 854 903 839 917 822 930 c 0
 787 956 739 974 677 985 c 0
 659 988 643 989 628 989 c 0
 530 989 442 957 364 892 c 0
 340 872 319 850 300 825 c 1
 329 818 367 794 414 755 c 0
 456 720 481 689 489 663 c 1
 442 614 412 581 400 563 c 0
 374 526 359 491 354 459 c 0
 352 444 351 425 351 403 c 2
 351 369 l 1
 363 383 385 392 416 396 c 0
 419 397 423 397 427 397 c 2
 462 395 l 1
 496 390 527 374 554 347 c 0
 604 297 618 226 596 135 c 1
 585 92 558 56 515 25 c 0
 482 2 445 -10 403 -11 c 2
 394 -11 l 2
 340 -10 295 8 258 44 c 0
 213 87 191 159 191 258 c 2
 191 403 l 2
 191 460 201 507 220 546 c 0
 235 576 268 618 320 671 c 1
 295 701 252 731 193 762 c 0
 166 776 142 786 122 792 c 1
 135 855 171 917 229 979 c 0
 334 1092 467 1149 628 1149 c 0
 773 1149 890 1102 977 1008 c 1
 1049 922 1085 810 1085 673 c 2
 1085 0 l 1
419 97 m 0
 450 97 475 112 494 143 c 0
 504 160 509 177 509 194 c 0
 509 198 509 198 509 201 c 0
 506 247 488 278 457 294 c 0
 446 301 433 304 419 304 c 1
 383 301 360 286 351 257 c 1
 346 222 l 1
 345 215 345 206 345 196 c 0
 347 145 360 114 384 103 c 0
 393 99 405 97 419 97 c 0
EndSplineSet
EndChar
StartChar: uni0E17
Encoding: 145 3607 147
OldEncoding: 3607
Width: 1350
Flags: HW
Fore
249 1042 m 0
 218 1042 193 1027 174 996 c 0
 164 979 159 962 159 945 c 2
 159 938 l 1
 162 892 180 861 211 844 c 0
 222 838 235 835 249 835 c 1
 285 838 308 853 317 882 c 0
 322 897 324 917 324 943 c 1
 321 994 308 1025 284 1036 c 0
 275 1040 263 1042 249 1042 c 0
318 0 m 1
 317 770 l 1
 306 756 284 747 253 743 c 0
 249 742 245 742 241 742 c 2
 207 744 l 1
 172 749 141 765 114 792 c 0
 64 842 50 913 72 1004 c 0
 83 1047 110 1084 153 1114 c 0
 186 1137 223 1149 265 1150 c 0
 269 1150 269 1150 274 1150 c 0
 328 1149 373 1131 410 1095 c 0
 455 1052 477 980 477 881 c 1
 478 263 l 1
 814 990 l 1
 848 1068 902 1115 975 1131 c 0
 990 1134 1005 1136 1020 1136 c 0
 1039 1135 1058 1133 1075 1128 c 0
 1139 1110 1182 1067 1203 1000 c 0
 1212 973 1216 943 1216 910 c 2
 1216 0 l 1
 1056 0 l 1
 1056 719 l 1
 1056 824 l 1
 1053 867 1039 891 1013 898 c 1
 992 900 l 1
 961 897 933 866 906 808 c 1
 901 796 l 1
 520 0 l 1
 318 0 l 1
EndSplineSet
EndChar
StartChar: uni0E18
Encoding: 146 3608 148
OldEncoding: 3608
Width: 1250
Flags: HW
Fore
864 480 m 2
 864 489 863 497 862 505 c 0
 853 560 812 601 739 626 c 0
 736 627 710 635 660 648 c 0
 454 703 282 741 143 761 c 1
 157 828 184 893 224 956 c 0
 261 1015 313 1062 379 1098 c 0
 414 1117 453 1131 496 1139 c 0
 531 1145 569 1148 612 1148 c 0
 689 1148 760 1133 827 1102 c 0
 882 1077 943 1064 1010 1064 c 0
 1037 1064 1060 1066 1080 1071 c 1
 1041 916 l 1
 1035 915 1028 914 1021 913 c 2
 970 911 l 1
 907 913 855 924 814 943 c 0
 749 974 686 992 627 996 c 1
 571 996 l 1
 541 994 512 985 483 970 c 0
 438 945 406 912 387 871 c 1
 425 863 l 2
 682 812 844 768 909 729 c 0
 920 722 931 715 940 708 c 1
 968 683 l 1
 1005 644 1024 589 1024 518 c 2
 1024 314 l 2
 1024 195 991 110 924 59 c 0
 863 13 763 -10 624 -10 c 0
 597 -10 571 -9 547 -6 c 0
 349 13 250 120 250 314 c 2
 250 650 l 1
 410 650 l 1
 410 314 l 2
 410 269 426 233 459 205 c 0
 499 170 554 152 624 150 c 0
 632 150 l 0
 668 150 703 155 737 166 c 0
 822 192 864 241 864 314 c 2
 864 480 l 2
EndSplineSet
EndChar
StartChar: uni0E19
Encoding: 147 3609 149
OldEncoding: 3609
Width: 1400
Flags: HW
Fore
296 1042 m 0
 265 1042 240 1027 221 996 c 0
 211 979 206 962 206 945 c 2
 206 938 l 1
 209 892 227 861 258 844 c 0
 269 838 282 835 296 835 c 1
 332 838 355 853 364 882 c 0
 369 897 371 917 371 943 c 1
 368 994 355 1025 331 1036 c 1
 308 1041 l 2
 304 1042 300 1042 296 1042 c 0
364 256 m 2
 364 770 l 1
 353 756 331 747 300 743 c 0
 296 742 292 742 288 742 c 2
 254 744 l 1
 219 749 188 765 161 792 c 0
 111 842 97 913 119 1004 c 0
 130 1047 157 1084 200 1114 c 0
 233 1137 270 1149 312 1150 c 0
 316 1150 316 1150 321 1150 c 0
 375 1149 420 1131 457 1095 c 0
 502 1052 524 980 524 881 c 2
 524 256 l 2
 524 201 534 167 555 154 c 0
 562 149 571 147 582 147 c 0
 645 148 771 229 962 391 c 0
 978 404 978 404 984 409 c 1
 984 1139 l 1
 1144 1139 l 1
 1144 475 l 1
 1209 474 1262 446 1301 391 c 0
 1330 350 1344 296 1345 229 c 1
 1343 169 l 1
 1338 128 1325 93 1304 66 c 0
 1271 22 1228 -3 1175 -8 c 0
 1165 -9 1154 -10 1143 -10 c 0
 1081 -10 1036 18 1008 75 c 0
 998 96 991 120 988 146 c 1
 985 243 l 1
 837 125 l 1
 722 39 626 -4 548 -5 c 0
 523 -5 499 -0 476 9 c 0
 465 13 455 18 444 25 c 0
 406 50 382 87 372 136 c 0
 367 164 364 204 364 256 c 2
1135 328 m 1
 1135 200 l 2
 1135 164 1137 142 1140 133 c 0
 1147 113 1161 103 1183 103 c 0
 1205 103 1221 121 1231 156 c 0
 1235 171 1237 186 1237 202 c 0
 1237 242 1224 275 1199 301 c 0
 1181 319 1160 328 1135 328 c 1
EndSplineSet
EndChar
StartChar: uni0E1A
Encoding: 148 3610 150
OldEncoding: 3610
Width: 1300
Flags: HW
Fore
260 1042 m 0
 229 1042 204 1027 185 996 c 0
 175 979 170 962 170 945 c 2
 170 938 l 1
 173 892 191 861 222 844 c 0
 233 838 246 835 260 835 c 1
 296 838 319 853 328 882 c 0
 333 897 335 917 335 943 c 1
 332 994 319 1025 295 1036 c 1
 272 1041 l 2
 268 1042 264 1042 260 1042 c 0
488 339 m 2
 488 242 535 182 629 160 c 0
 656 154 687 151 723 150 c 1
 789 152 l 1
 911 164 978 216 991 308 c 0
 992 318 993 328 993 339 c 2
 993 1139 l 1
 1153 1139 l 5
 1153 273 l 2
 1153 142 1090 57 964 18 c 0
 903 -1 821 -10 718 -10 c 0
 565 -10 455 27 389 101 c 0
 348 146 328 204 328 273 c 2
 328 770 l 1
 317 756 295 747 264 743 c 0
 260 742 256 742 252 742 c 2
 218 744 l 1
 183 749 152 765 125 792 c 0
 75 842 61 913 83 1004 c 0
 94 1047 121 1084 164 1114 c 0
 197 1137 234 1149 276 1150 c 0
 280 1150 280 1150 285 1150 c 0
 339 1149 384 1131 421 1095 c 0
 466 1052 488 980 488 881 c 2
 488 339 l 2
EndSplineSet
EndChar
StartChar: uni0E1B
Encoding: 149 3611 151
OldEncoding: 3611
Width: 1300
Flags: HW
Fore
267 1042 m 0
 236 1042 211 1027 192 996 c 0
 182 979 177 962 177 945 c 2
 177 938 l 1
 180 892 198 861 229 844 c 0
 240 838 253 835 267 835 c 1
 303 838 326 853 335 882 c 0
 340 897 342 917 342 943 c 1
 339 994 326 1025 302 1036 c 1
 279 1041 l 2
 275 1042 271 1042 267 1042 c 0
495 339 m 2
 495 242 542 182 636 160 c 0
 663 154 694 151 730 150 c 1
 796 152 l 1
 918 164 985 216 998 308 c 0
 999 318 1000 328 1000 339 c 2
 1000 1480 l 1
 1160 1480 l 1
 1160 273 l 2
 1160 142 1097 57 971 18 c 0
 910 -1 828 -10 725 -10 c 0
 572 -10 462 27 396 101 c 0
 355 146 335 204 335 273 c 2
 335 770 l 1
 324 756 302 747 271 743 c 0
 267 742 263 742 259 742 c 2
 225 744 l 1
 190 749 159 765 132 792 c 0
 82 842 68 913 90 1004 c 0
 101 1047 128 1084 171 1114 c 0
 204 1137 241 1149 283 1150 c 0
 287 1150 287 1150 292 1150 c 0
 346 1149 391 1131 428 1095 c 0
 473 1052 495 980 495 881 c 2
 495 339 l 2
EndSplineSet
EndChar
StartChar: uni0E1C
Encoding: 150 3612 152
OldEncoding: 3612
Width: 1200
Flags: HW
Fore
362 1042 m 0
 327 1042 305 1027 296 998 c 0
 291 985 289 966 288 943 c 0
 288 890 300 858 323 845 c 0
 333 840 346 836 362 835 c 1
 400 835 427 855 443 895 c 0
 448 908 451 923 452 938 c 1
 450 963 l 1
 443 994 427 1016 400 1031 c 0
 388 1038 375 1042 362 1042 c 0
134 248 m 2
 134 881 l 2
 134 980 156 1052 201 1095 c 0
 238 1131 283 1149 337 1150 c 1
 382 1147 l 1
 408 1142 433 1131 458 1114 c 0
 501 1084 528 1047 539 1004 c 0
 561 913 547 842 497 792 c 0
 462 758 423 741 378 741 c 0
 375 741 373 741 370 742 c 0
 337 743 311 753 294 770 c 1
 294 248 l 2
 294 217 308 190 335 167 c 0
 354 150 374 142 395 142 c 0
 434 142 465 158 488 189 c 0
 501 207 507 227 507 248 c 2
 507 698 l 1
 667 698 l 1
 667 248 l 2
 667 215 684 188 717 165 c 0
 739 150 762 142 787 142 c 0
 821 142 847 159 866 193 c 0
 875 210 880 229 880 248 c 2
 880 1139 l 1
 1040 1139 l 1
 1040 248 l 2
 1040 151 1011 79 954 32 c 0
 919 3 876 -11 825 -12 c 1
 755 -9 l 1
 692 -2 642 20 603 59 c 0
 600 62 597 66 594 69 c 1
 561 24 509 -2 438 -9 c 1
 378 -12 l 1
 327 -9 l 1
 229 5 168 60 144 157 c 0
 137 185 134 215 134 248 c 2
EndSplineSet
EndChar
StartChar: uni0E1D
Encoding: 151 3613 153
OldEncoding: 3613
Width: 1200
Flags: HW
Fore
361 1042 m 0
 326 1042 304 1027 295 998 c 0
 290 985 288 966 287 943 c 0
 287 890 299 858 322 845 c 0
 332 840 345 836 361 835 c 1
 399 835 426 855 442 895 c 0
 447 908 450 923 451 938 c 1
 449 963 l 1
 442 994 426 1016 399 1031 c 0
 387 1038 374 1042 361 1042 c 0
133 248 m 2
 133 881 l 2
 133 980 155 1052 200 1095 c 0
 237 1131 282 1149 336 1150 c 1
 381 1147 l 1
 407 1142 432 1131 457 1114 c 0
 500 1084 527 1047 538 1004 c 0
 560 913 546 842 496 792 c 0
 461 758 422 741 377 741 c 0
 374 741 372 741 369 742 c 0
 336 743 310 753 293 770 c 1
 293 248 l 2
 293 217 307 190 334 167 c 0
 353 150 373 142 394 142 c 0
 433 142 464 158 487 189 c 0
 500 207 506 227 506 248 c 2
 506 698 l 1
 666 698 l 1
 666 248 l 2
 666 215 683 188 716 165 c 0
 738 150 761 142 786 142 c 0
 820 142 846 159 865 193 c 0
 874 210 879 229 879 248 c 2
 879 1480 l 1
 1039 1480 l 1
 1039 248 l 2
 1039 151 1010 79 953 32 c 0
 918 3 875 -11 824 -12 c 1
 754 -9 l 1
 691 -2 641 20 602 59 c 0
 599 62 596 66 593 69 c 1
 560 24 508 -2 437 -9 c 1
 377 -12 l 1
 326 -9 l 1
 228 5 167 60 143 157 c 0
 136 185 133 215 133 248 c 2
EndSplineSet
EndChar
StartChar: uni0E1E
Encoding: 152 3614 154
OldEncoding: 3614
Width: 1350
Flags: HW
Fore
301 248 m 2
 301 776 l 1
 281 757 255 747 224 747 c 0
 186 747 151 763 119 795 c 0
 69 844 55 914 77 1005 c 0
 88 1049 115 1086 157 1116 c 0
 182 1133 207 1144 233 1148 c 1
 277 1151 l 1
 317 1150 357 1132 396 1097 c 0
 432 1064 453 1009 459 933 c 0
 460 910 461 877 461 835 c 2
 461 248 l 2
 461 217 475 190 502 167 c 0
 521 150 541 142 562 142 c 0
 601 142 632 158 655 189 c 0
 668 207 674 227 674 248 c 2
 674 1039 l 1
 834 1039 l 1
 834 248 l 2
 834 215 851 188 884 165 c 0
 906 150 929 142 954 142 c 0
 988 142 1014 159 1033 193 c 0
 1042 210 1047 229 1047 248 c 2
 1047 1139 l 1
 1207 1139 l 1
 1207 248 l 2
 1207 151 1178 79 1121 32 c 1
 1092 12 l 1
 1058 -2 l 1
 1019 -10 l 2
 1010 -11 1001 -12 992 -12 c 2
 922 -9 l 1
 859 -2 809 20 770 59 c 0
 767 62 764 66 761 69 c 1
 728 24 676 -2 605 -9 c 1
 545 -12 l 1
 494 -9 l 1
 396 5 335 60 311 157 c 0
 304 185 301 215 301 248 c 2
246 1043 m 0
 219 1043 198 1029 181 1000 c 1
 171 976 l 1
 168 949 l 1
 168 946 168 946 168 944 c 0
 171 903 186 875 211 858 c 0
 221 851 233 847 246 847 c 0
 288 850 309 879 309 936 c 0
 309 950 l 0
 309 1012 288 1043 246 1043 c 0
EndSplineSet
EndChar
StartChar: uni0E1F
Encoding: 153 3615 155
OldEncoding: 3615
Width: 1450
Flags: HW
Fore
365 248 m 2
 365 776 l 1
 345 757 319 747 288 747 c 0
 250 747 215 763 183 795 c 0
 133 844 119 914 141 1005 c 0
 152 1049 179 1086 221 1116 c 0
 246 1133 271 1144 297 1148 c 1
 341 1151 l 1
 381 1150 421 1132 460 1097 c 0
 496 1064 517 1009 523 933 c 0
 524 910 525 877 525 835 c 2
 525 248 l 2
 525 217 539 190 566 167 c 0
 585 150 605 142 626 142 c 0
 665 142 696 158 719 189 c 0
 732 207 738 227 738 248 c 2
 738 1039 l 1
 898 1039 l 1
 898 248 l 2
 898 215 915 188 948 165 c 0
 970 150 993 142 1018 142 c 0
 1052 142 1078 159 1097 193 c 0
 1106 210 1111 229 1111 248 c 2
 1111 1480 l 1
 1271 1480 l 1
 1271 248 l 2
 1271 151 1242 79 1185 32 c 1
 1156 12 l 1
 1122 -2 l 1
 1083 -10 l 2
 1074 -11 1065 -12 1056 -12 c 2
 986 -9 l 1
 923 -2 873 20 834 59 c 0
 831 62 828 66 825 69 c 1
 792 24 740 -2 669 -9 c 1
 609 -12 l 1
 558 -9 l 1
 460 5 399 60 375 157 c 0
 368 185 365 215 365 248 c 2
310 1043 m 0
 283 1043 262 1029 245 1000 c 1
 235 976 l 1
 232 949 l 1
 232 946 232 946 232 944 c 0
 235 903 250 875 275 858 c 0
 285 851 297 847 310 847 c 0
 352 850 373 879 373 936 c 0
 373 950 l 0
 373 1012 352 1043 310 1043 c 0
EndSplineSet
EndChar
StartChar: uni0E20
Encoding: 154 3616 156
OldEncoding: 3616
Width: 1350
Flags: HW
Fore
250 97 m 0
 285 97 307 112 316 141 c 0
 321 154 323 173 324 196 c 0
 324 249 312 281 289 294 c 0
 279 299 266 303 250 304 c 1
 212 304 185 284 169 244 c 0
 164 231 161 216 160 201 c 1
 162 176 l 1
 169 145 185 123 212 108 c 0
 224 101 237 97 250 97 c 0
478 403 m 2
 478 258 l 2
 478 159 456 88 411 44 c 0
 374 8 329 -10 275 -11 c 1
 230 -8 l 1
 204 -3 179 8 154 25 c 0
 111 55 84 92 73 135 c 0
 51 226 65 297 115 347 c 0
 150 381 189 398 234 398 c 0
 237 398 239 398 242 397 c 0
 275 396 301 386 318 369 c 1
 318 392 318 417 318 446 c 128
 319 475 328 508 347 546 c 0
 362 576 395 618 447 671 c 1
 422 701 379 731 320 762 c 0
 293 776 269 786 249 792 c 1
 262 855 298 917 356 979 c 0
 461 1092 594 1149 755 1149 c 0
 900 1149 1017 1102 1104 1008 c 1
 1176 922 1212 810 1212 673 c 2
 1212 0 l 1
 1052 0 l 1
 1052 657 l 2
 1052 761 1033 838 994 887 c 0
 981 903 967 917 950 930 c 0
 915 956 866 974 804 985 c 0
 786 988 770 989 755 989 c 0
 657 989 569 957 491 892 c 0
 467 872 446 850 427 825 c 1
 456 818 494 794 541 755 c 0
 583 720 608 689 616 663 c 1
 569 614 539 581 527 563 c 0
 501 526 486 491 481 458 c 0
 479 443 478 424 478 403 c 2
EndSplineSet
EndChar
StartChar: uni0E21
Encoding: 155 3617 157
OldEncoding: 3617
Width: 1350
Flags: HW
Fore
303 1042 m 0
 272 1042 247 1027 228 996 c 0
 218 979 213 962 213 945 c 2
 213 938 l 1
 216 892 234 861 265 844 c 0
 276 838 289 835 303 835 c 1
 339 838 362 853 371 882 c 0
 376 897 378 917 378 943 c 1
 375 994 362 1025 338 1036 c 0
 329 1040 317 1042 303 1042 c 0
371 446 m 1
 371 770 l 1
 364 759 347 749 320 742 c 0
 313 741 306 740 300 739 c 1
 266 741 l 1
 229 748 196 765 168 792 c 0
 118 842 104 913 126 1004 c 0
 137 1047 164 1084 207 1114 c 0
 240 1137 277 1149 319 1150 c 0
 323 1150 323 1150 328 1150 c 0
 382 1149 427 1131 464 1095 c 0
 509 1052 531 980 531 881 c 2
 531 409 l 1
 661 301 l 1
 791 198 882 147 933 147 c 0
 944 147 953 149 960 154 c 0
 981 167 991 201 991 256 c 2
 991 1139 l 1
 1151 1139 l 1
 1151 256 l 2
 1151 169 1141 108 1121 74 c 0
 1109 55 1092 39 1071 25 c 0
 1040 5 1006 -5 967 -5 c 0
 904 -5 829 23 743 79 c 0
 716 97 686 119 653 144 c 1
 530 243 l 1
 527 146 l 1
 518 78 490 31 442 6 c 0
 421 -5 397 -10 372 -10 c 0
 325 -10 283 4 248 32 c 0
 243 35 239 39 235 43 c 0
 192 88 170 142 170 205 c 0
 170 267 185 319 214 362 c 0
 253 417 306 445 371 446 c 1
380 328 m 1
 340 328 311 307 292 264 c 0
 283 244 278 223 278 202 c 0
 278 163 288 133 307 114 c 0
 314 107 323 103 332 103 c 0
 363 103 379 124 380 166 c 1
 380 200 l 1
 380 328 l 1
EndSplineSet
EndChar
StartChar: uni0E22
Encoding: 156 3618 158
OldEncoding: 3618
Width: 1200
Flags: HW
Fore
416 1046 m 0
 381 1046 359 1031 350 1002 c 0
 345 989 343 970 342 947 c 0
 342 894 354 862 377 849 c 0
 387 844 400 840 416 839 c 1
 455 839 482 859 497 899 c 0
 502 912 505 927 506 942 c 1
 504 967 l 1
 498 998 481 1020 454 1035 c 0
 442 1042 429 1046 416 1046 c 0
219 451 m 0
 241 493 285 530 350 562 c 1
 318 568 284 587 248 620 c 0
 215 649 195 701 187 777 c 0
 185 795 184 813 184 831 c 0
 184 905 187 956 194 983 c 0
 205 1024 227 1060 261 1093 c 0
 294 1126 337 1144 391 1149 c 1
 436 1149 l 1
 484 1145 526 1122 562 1080 c 0
 565 1076 565 1076 569 1071 c 0
 598 1034 613 986 613 926 c 0
 613 873 596 830 563 795 c 0
 529 761 485 744 431 743 c 1
 393 746 l 1
 372 751 354 759 339 770 c 1
 341 741 l 1
 343 729 347 718 352 708 c 0
 363 687 378 671 398 660 c 0
 438 637 484 624 537 620 c 0
 560 619 589 618 624 618 c 1
 624 505 l 1
 527 505 460 497 423 481 c 0
 371 458 345 413 345 347 c 0
 346 250 389 190 474 165 c 0
 510 155 556 150 612 150 c 0
 618 150 l 0
 711 151 776 165 811 192 c 0
 848 221 867 270 867 341 c 2
 867 1139 l 1
 1027 1139 l 1
 1027 269 l 2
 1027 144 971 61 859 22 c 0
 798 1 717 -10 614 -10 c 0
 456 -10 345 19 282 78 c 0
 235 121 208 183 201 264 c 1
 199 349 l 1
 201 396 208 430 219 451 c 0
EndSplineSet
EndChar
StartChar: uni0E23
Encoding: 157 3619 159
OldEncoding: 3619
Width: 1100
Flags: HW
Fore
883 303 m 2
 883 207 877 142 864 109 c 0
 855 84 839 61 818 42 c 0
 780 7 741 -10 701 -11 c 1
 657 -8 l 2
 655 -8 l 0
 609 -1 569 23 535 64 c 0
 504 101 489 150 489 211 c 0
 489 266 506 310 541 344 c 0
 584 387 632 401 685 386 c 0
 700 381 713 374 723 363 c 1
 723 529 l 2
 723 584 692 626 629 656 c 1
 520 692 345 727 104 762 c 1
 118 829 145 894 185 957 c 0
 222 1016 274 1063 340 1099 c 0
 401 1132 478 1149 573 1149 c 0
 650 1149 721 1134 788 1103 c 0
 843 1078 905 1065 972 1065 c 0
 998 1065 1021 1067 1041 1072 c 1
 1002 917 l 1
 986 913 967 911 944 912 c 0
 882 912 828 922 782 941 c 0
 779 942 777 943 775 944 c 0
 700 980 628 998 561 998 c 0
 551 998 541 998 532 997 c 0
 473 993 422 967 379 918 c 0
 366 903 355 887 348 872 c 1
 487 849 l 1
 610 821 705 786 772 745 c 0
 835 706 871 659 880 603 c 0
 882 594 883 584 883 574 c 2
 883 573 l 1
 883 303 l 2
741 189 m 0
 741 258 718 293 671 293 c 0
 635 293 610 274 595 235 c 0
 590 222 587 208 586 193 c 1
 588 166 l 1
 595 135 612 113 637 99 c 0
 646 94 656 92 665 92 c 0
 712 92 737 119 740 173 c 0
 741 178 741 184 741 189 c 0
EndSplineSet
EndChar
StartChar: uni0E24
Encoding: 158 3620 160
OldEncoding: 3620
Width: 1240
Flags: HW
Fore
1085 -380 m 1
 925 -380 l 1
 925 657 l 2
 925 761 906 838 867 887 c 0
 854 903 839 917 822 930 c 0
 787 956 739 974 677 985 c 0
 659 988 643 989 628 989 c 0
 530 989 442 957 364 892 c 0
 340 872 319 850 300 825 c 1
 329 818 367 794 414 755 c 0
 456 720 481 689 489 663 c 1
 442 614 412 581 400 563 c 0
 374 526 359 491 354 459 c 0
 352 444 351 425 351 403 c 2
 351 369 l 1
 363 383 385 392 416 396 c 0
 419 397 423 397 427 397 c 2
 462 395 l 1
 496 390 527 374 554 347 c 0
 604 297 618 226 596 135 c 1
 585 92 558 56 515 25 c 0
 482 2 445 -10 403 -11 c 2
 394 -11 l 2
 340 -10 295 8 258 44 c 0
 213 87 191 159 191 258 c 2
 191 403 l 2
 191 460 201 507 220 546 c 0
 235 576 268 618 320 671 c 1
 295 701 252 731 193 762 c 0
 166 776 142 786 122 792 c 1
 135 855 171 917 229 979 c 0
 334 1092 467 1149 628 1149 c 0
 773 1149 890 1102 977 1008 c 1
 1049 922 1085 810 1085 673 c 2
 1085 -380 l 1
419 97 m 0
 450 97 475 112 494 143 c 0
 504 160 509 177 509 194 c 0
 509 198 509 198 509 201 c 0
 506 247 488 278 457 294 c 0
 446 301 433 304 419 304 c 1
 383 301 360 286 351 257 c 1
 346 222 l 1
 345 215 345 206 345 196 c 0
 347 145 360 114 384 103 c 0
 393 99 405 97 419 97 c 0
EndSplineSet
EndChar
StartChar: uni0E25
Encoding: 159 3621 161
OldEncoding: 3621
Width: 1255
Flags: HW
Fore
221 435 m 2
 221 516 248 579 303 624 c 0
 321 639 343 654 370 668 c 0
 434 703 510 720 597 720 c 0
 678 720 754 706 826 677 c 0
 876 658 909 635 924 609 c 1
 924 714 l 2
 924 797 908 855 875 888 c 1
 823 939 754 971 668 984 c 0
 646 987 624 989 601 989 c 0
 510 989 431 962 363 909 c 0
 336 887 314 862 297 835 c 1
 157 929 l 1
 196 996 261 1050 350 1092 c 0
 430 1130 513 1149 598 1149 c 0
 787 1149 923 1096 1004 990 c 0
 1057 921 1084 829 1084 713 c 2
 1084 0 l 1
 924 0 l 1
 924 263 l 2
 924 376 882 459 798 511 c 0
 745 544 679 560 601 560 c 0
 492 560 423 530 394 471 c 0
 385 453 381 432 381 407 c 2
 381 369 l 1
 392 383 414 392 446 396 c 0
 450 397 454 397 457 397 c 2
 492 395 l 1
 526 390 557 374 584 347 c 0
 634 297 648 226 626 135 c 0
 615 92 588 56 545 25 c 0
 512 2 475 -10 433 -11 c 2
 424 -11 l 2
 370 -10 325 8 288 44 c 0
 243 87 221 159 221 258 c 2
 221 435 l 2
449 97 m 0
 480 97 505 112 524 143 c 0
 534 160 539 177 539 194 c 0
 539 198 539 198 539 201 c 0
 536 247 518 278 487 294 c 0
 476 301 463 304 449 304 c 1
 413 301 391 286 382 257 c 1
 376 222 l 1
 375 215 375 206 375 196 c 0
 377 145 390 114 414 103 c 0
 423 99 435 97 449 97 c 0
EndSplineSet
EndChar
StartChar: uni0E26
Encoding: 160 3622 162
OldEncoding: 3622
Width: 1350
Flags: HW
Fore
250 97 m 0
 285 97 307 112 316 141 c 0
 321 154 323 173 324 196 c 0
 324 249 312 281 289 294 c 0
 279 299 266 303 250 304 c 1
 212 304 185 284 169 244 c 0
 164 231 161 216 160 201 c 1
 162 176 l 1
 169 145 185 123 212 108 c 0
 224 101 237 97 250 97 c 0
478 403 m 2
 478 258 l 2
 478 159 456 88 411 44 c 0
 374 8 329 -10 275 -11 c 1
 230 -8 l 1
 204 -3 179 8 154 25 c 0
 111 55 84 92 73 135 c 0
 51 226 65 297 115 347 c 0
 150 381 189 398 234 398 c 0
 237 398 239 398 242 397 c 0
 275 396 301 386 318 369 c 1
 318 403 l 1
 319 460 328 508 347 546 c 0
 362 576 395 618 447 671 c 1
 422 701 379 731 320 762 c 0
 293 776 269 786 249 792 c 1
 262 855 298 917 356 979 c 0
 461 1092 594 1149 755 1149 c 0
 900 1149 1017 1102 1104 1008 c 1
 1176 922 1212 810 1212 673 c 2
 1212 -380 l 1
 1052 -380 l 1
 1052 657 l 2
 1052 761 1033 838 994 887 c 0
 981 903 967 917 950 930 c 0
 915 956 866 974 804 985 c 0
 786 988 770 989 755 989 c 0
 657 989 569 957 491 892 c 0
 467 872 446 850 427 825 c 1
 456 818 494 794 541 755 c 0
 583 720 608 689 616 663 c 1
 569 614 539 581 527 563 c 0
 501 526 486 491 481 458 c 0
 479 443 478 424 478 403 c 2
EndSplineSet
EndChar
StartChar: uni0E27
Encoding: 161 3623 163
OldEncoding: 3623
Width: 1150
Flags: HW
Fore
765 97 m 0
 800 97 822 112 831 141 c 0
 836 154 838 173 839 196 c 0
 839 249 827 281 804 294 c 0
 794 299 781 303 765 304 c 1
 727 304 700 284 684 244 c 0
 679 231 676 216 675 201 c 1
 677 176 l 1
 684 145 700 123 727 108 c 0
 739 101 752 97 765 97 c 0
994 714 m 2
 994 258 l 2
 994 159 971 88 926 44 c 0
 889 8 844 -10 790 -11 c 1
 745 -8 l 1
 719 -3 694 8 669 25 c 0
 626 55 599 92 588 135 c 0
 566 226 580 297 630 347 c 0
 665 381 704 398 749 398 c 0
 752 398 754 398 757 397 c 0
 791 396 817 386 834 369 c 1
 834 715 834 715 834 773 c 128
 834 812 820 848 791 883 c 1
 777 897 l 0
 711 958 623 989 512 989 c 0
 403 989 308 948 228 866 c 0
 219 857 211 848 202 838 c 1
 68 929 l 1
 109 996 174 1051 263 1093 c 0
 342 1130 425 1149 510 1149 c 0
 623 1149 729 1119 828 1059 c 0
 899 1016 947 960 970 891 c 1
 983 839 l 1
 990 803 994 761 994 714 c 2
EndSplineSet
EndChar
StartChar: uni0E28
Encoding: 162 3624 164
OldEncoding: 3624
Width: 1300
Flags: HW
Fore
718 630 m 0
 707 638 694 642 679 642 c 0
 643 642 613 624 590 588 c 1
 585 579 l 2
 577 564 573 549 572 533 c 0
 572 521 574 510 579 499 c 0
 586 480 599 464 617 453 c 0
 628 446 640 443 653 443 c 0
 664 443 676 445 687 450 c 0
 717 463 738 488 751 523 c 0
 754 532 756 543 755 554 c 0
 755 587 743 613 718 630 c 0
936 1059 m 1
 985 1093 1027 1148 1062 1224 c 1
 1280 1224 l 1
 1243 1108 1172 1011 1065 934 c 1
 1108 867 1130 773 1130 651 c 2
 1130 0 l 1
 970 0 l 1
 970 702 l 2
 970 739 960 778 940 819 c 0
 937 826 934 832 931 837 c 0
 906 878 863 915 803 948 c 0
 753 975 691 989 616 989 c 0
 549 989 489 976 437 950 c 1
 392 929 351 895 316 850 c 1
 304 836 295 822 288 808 c 0
 269 768 259 714 259 646 c 0
 259 603 263 562 272 525 c 1
 315 256 l 1
 336 375 367 476 407 559 c 0
 419 584 431 605 443 621 c 0
 479 671 524 707 577 730 c 0
 585 733 593 736 600 738 c 0
 617 743 637 746 658 746 c 0
 705 746 744 733 775 708 c 0
 825 668 852 619 855 562 c 1
 853 527 l 1
 849 511 l 1
 833 458 805 415 765 381 c 0
 746 365 726 354 705 348 c 0
 688 344 672 342 655 342 c 0
 620 342 591 351 567 370 c 0
 544 389 530 407 524 424 c 1
 480 329 442 222 411 104 c 0
 400 62 393 27 390 0 c 1
 180 0 l 1
 180 108 l 2
 180 161 163 266 129 424 c 1
 108 513 98 596 98 673 c 0
 98 766 114 841 145 897 c 1
 184 964 235 1017 297 1057 c 1
 390 1114 487 1145 589 1149 c 0
 611 1149 l 0
 712 1148 798 1130 869 1095 c 1
 893 1084 915 1072 936 1059 c 1
EndSplineSet
EndChar
StartChar: uni0E29
Encoding: 163 3625 165
OldEncoding: 3625
Width: 1350
Flags: HW
Fore
227 1039 m 0
 196 1039 171 1024 152 993 c 0
 142 976 137 959 137 942 c 2
 137 935 l 1
 140 889 158 858 189 841 c 0
 200 835 213 832 227 832 c 1
 263 835 286 850 295 879 c 0
 300 894 302 914 302 940 c 1
 299 991 286 1022 262 1033 c 0
 253 1037 241 1039 227 1039 c 0
960 433 m 1
 942 426 920 422 894 422 c 0
 841 422 794 434 754 457 c 0
 717 479 690 512 673 557 c 0
 664 580 659 602 660 625 c 0
 660 642 662 658 667 673 c 1
 675 706 697 732 733 749 c 0
 752 758 772 763 794 763 c 0
 811 763 829 760 846 754 c 0
 873 744 894 727 907 702 c 0
 920 680 925 655 923 628 c 1
 918 598 904 574 879 557 c 0
 870 552 862 548 854 546 c 1
 862 535 880 530 907 529 c 1
 937 532 l 1
 946 534 953 537 960 541 c 1
 960 1136 l 1
 1120 1136 l 1
 1120 652 l 1
 1147 679 1161 719 1161 771 c 1
 1268 767 l 1
 1268 724 l 1
 1263 673 1248 627 1223 586 c 0
 1201 552 1167 520 1120 491 c 1
 1120 273 l 2
 1120 153 1074 72 981 31 c 0
 918 4 824 -10 698 -10 c 0
 541 -10 428 26 359 99 c 0
 316 144 295 201 295 270 c 2
 295 767 l 1
 284 753 262 744 231 740 c 0
 219 738 l 1
 185 741 l 1
 150 746 119 762 92 789 c 0
 42 839 28 910 50 1001 c 0
 61 1044 88 1081 131 1111 c 0
 164 1134 201 1146 243 1147 c 0
 247 1147 247 1147 252 1147 c 0
 306 1146 351 1128 388 1092 c 0
 433 1049 455 977 455 878 c 2
 455 336 l 2
 455 243 498 186 583 163 c 0
 612 155 648 151 690 150 c 1
 757 152 l 1
 892 165 959 227 960 336 c 1
 960 433 l 1
837 595 m 1
 851 611 858 626 857 640 c 0
 857 654 850 669 837 684 c 1
 824 697 809 704 792 704 c 0
 785 704 777 703 770 700 c 0
 761 697 753 691 746 684 c 0
 733 671 726 656 726 641 c 0
 726 626 733 610 746 595 c 1
 759 583 774 577 792 577 c 0
 810 577 825 583 837 595 c 1
EndSplineSet
EndChar
StartChar: uni0E2A
Encoding: 164 3626 166
OldEncoding: 3626
Width: 1250
Flags: HW
Fore
421 97 m 0
 452 97 477 112 496 143 c 0
 506 160 511 177 511 194 c 0
 511 198 511 198 511 201 c 0
 508 247 490 278 459 294 c 0
 448 301 435 304 421 304 c 1
 385 301 363 286 354 257 c 1
 348 222 l 1
 347 215 347 206 347 196 c 0
 349 145 362 114 386 103 c 0
 395 99 407 97 421 97 c 0
1009 938 m 1
 1040 877 1056 802 1056 713 c 2
 1056 0 l 1
 896 0 l 1
 896 263 l 2
 896 376 854 459 770 511 c 0
 717 544 651 560 573 560 c 0
 464 560 395 530 366 471 c 0
 357 453 353 432 353 407 c 2
 353 369 l 1
 364 383 386 392 418 396 c 0
 422 397 426 397 429 397 c 2
 464 395 l 1
 498 390 529 374 556 347 c 0
 606 297 620 226 598 135 c 0
 587 92 560 56 517 25 c 0
 484 2 447 -10 405 -11 c 2
 396 -11 l 2
 342 -10 297 8 260 44 c 0
 215 87 193 159 193 258 c 2
 193 435 l 2
 193 516 220 579 275 624 c 0
 293 639 315 654 342 668 c 0
 406 703 482 720 569 720 c 0
 650 720 726 706 798 677 c 0
 848 658 881 635 896 609 c 1
 896 714 l 2
 896 797 880 855 847 888 c 1
 795 939 726 971 640 984 c 0
 618 987 596 989 573 989 c 0
 482 989 403 962 335 909 c 0
 308 887 286 862 269 835 c 1
 129 929 l 1
 168 996 233 1050 322 1092 c 0
 402 1130 485 1149 570 1149 c 0
 725 1149 843 1113 926 1042 c 1
 971 1078 1011 1134 1046 1209 c 1
 1212 1209 l 1
 1193 1130 1151 1061 1085 1000 c 0
 1064 981 1038 960 1009 938 c 1
EndSplineSet
EndChar
StartChar: uni0E2B
Encoding: 165 3627 167
OldEncoding: 3627
Width: 1350
Flags: HW
Fore
492 190 m 1
 525 288 584 400 667 527 c 0
 738 636 804 716 865 767 c 1
 812 792 782 840 776 911 c 0
 775 922 775 935 775 950 c 0
 775 997 791 1040 823 1079 c 0
 852 1114 893 1135 946 1142 c 0
 955 1143 963 1144 972 1144 c 0
 1047 1144 1104 1119 1144 1068 c 0
 1169 1037 1182 1000 1185 956 c 1
 1184 904 l 1
 1177 862 l 1
 1166 820 1142 787 1107 764 c 1
 1138 747 1163 719 1182 678 c 0
 1193 655 1198 632 1198 610 c 2
 1198 0 l 1
 1038 0 l 1
 1038 594 l 2
 1038 633 1017 665 976 690 c 1
 907 638 830 546 746 415 c 0
 651 266 589 134 560 18 c 0
 556 0 l 1
 332 0 l 1
 332 776 l 1
 313 757 288 748 255 748 c 0
 217 748 182 763 150 794 c 1
 100 844 86 915 108 1006 c 0
 119 1050 146 1087 188 1116 c 0
 212 1133 237 1144 264 1148 c 1
 310 1152 l 1
 393 1151 448 1111 475 1032 c 0
 486 1001 492 965 492 924 c 2
 492 190 l 1
275 1049 m 0
 244 1049 219 1034 200 1003 c 0
 190 986 185 969 185 952 c 2
 185 945 l 1
 188 899 206 868 237 852 c 0
 248 845 261 842 275 842 c 1
 311 845 334 860 343 889 c 0
 348 904 350 924 350 950 c 1
 347 1001 334 1032 310 1043 c 1
 287 1048 l 2
 283 1049 279 1049 275 1049 c 0
976 830 m 1
 1003 832 l 1
 1036 839 1058 860 1070 893 c 0
 1074 905 1076 918 1076 931 c 0
 1076 940 1075 948 1073 957 c 0
 1067 989 1050 1013 1021 1028 c 1
 997 1037 l 1
 981 1039 l 1
 957 1036 l 1
 932 1029 913 1015 898 993 c 0
 889 980 885 959 885 931 c 2
 885 911 l 1
 888 895 l 1
 894 881 905 868 920 856 c 0
 939 840 958 831 976 830 c 1
EndSplineSet
EndChar
StartChar: uni0E2C
Encoding: 166 3628 168
OldEncoding: 3628
Width: 1400
Flags: HW
Fore
1221 1159 m 1
 1221 248 l 2
 1221 151 1192 79 1135 32 c 1
 1106 12 l 1
 1072 -2 l 1
 1033 -10 l 2
 1024 -11 1015 -12 1006 -12 c 2
 936 -9 l 1
 873 -2 823 20 784 59 c 0
 781 62 778 66 775 69 c 1
 742 24 690 -2 619 -9 c 1
 559 -12 l 1
 508 -9 l 1
 410 5 349 60 325 157 c 0
 318 185 315 215 315 248 c 2
 315 776 l 1
 295 757 269 747 238 747 c 0
 200 747 165 763 133 795 c 0
 83 844 69 914 91 1005 c 0
 102 1049 129 1086 171 1116 c 0
 196 1133 221 1144 247 1148 c 1
 291 1151 l 1
 331 1150 371 1132 410 1097 c 0
 446 1064 467 1009 473 933 c 0
 474 910 475 877 475 835 c 2
 475 248 l 2
 475 217 489 190 516 167 c 0
 535 150 555 142 576 142 c 0
 615 142 646 158 669 189 c 0
 682 207 688 227 688 248 c 2
 688 1039 l 1
 848 1039 l 1
 848 248 l 2
 848 215 865 188 898 165 c 0
 920 150 943 142 968 142 c 0
 1002 142 1028 159 1047 193 c 0
 1056 210 1061 229 1061 248 c 2
 1061 1167 l 1
 1010 1171 969 1190 937 1225 c 0
 909 1255 895 1296 895 1348 c 0
 895 1370 898 1391 904 1411 c 0
 917 1454 946 1485 991 1505 c 0
 1014 1514 1037 1519 1062 1519 c 0
 1091 1519 1119 1512 1145 1498 c 0
 1187 1475 1212 1438 1219 1387 c 0
 1221 1370 1222 1343 1222 1305 c 2
 1222 1281 l 1
 1259 1284 1288 1297 1311 1318 c 0
 1343 1349 1359 1399 1359 1467 c 1
 1459 1467 l 1
 1459 1406 1455 1364 1448 1340 c 0
 1445 1329 1440 1317 1435 1306 c 0
 1419 1269 1392 1236 1354 1207 c 1
 1315 1175 1270 1159 1221 1159 c 1
260 1043 m 0
 233 1043 212 1029 195 1000 c 1
 185 976 l 1
 182 949 l 1
 182 946 182 946 182 944 c 0
 185 903 200 875 225 858 c 0
 235 851 247 847 260 847 c 0
 302 850 323 879 323 936 c 0
 323 950 l 0
 323 1012 302 1043 260 1043 c 0
1062 1263 m 0
 1100 1263 1126 1279 1141 1310 c 0
 1146 1323 1149 1337 1149 1353 c 0
 1149 1396 1131 1423 1095 1435 c 0
 1085 1438 1074 1440 1062 1440 c 0
 1025 1440 999 1425 984 1394 c 0
 978 1381 975 1367 975 1351 c 0
 975 1320 988 1296 1013 1278 c 0
 1028 1268 1044 1263 1062 1263 c 0
EndSplineSet
EndChar
StartChar: uni0E2D
Encoding: 167 3629 169
OldEncoding: 3629
Width: 1230
Flags: HW
Fore
452 642 m 0
 417 642 395 627 386 598 c 1
 379 563 l 1
 378 543 l 1
 378 490 390 458 414 445 c 0
 423 440 436 436 452 435 c 1
 491 435 518 455 533 495 c 0
 538 508 541 523 542 538 c 1
 541 563 l 1
 534 594 518 616 491 631 c 0
 478 638 465 642 452 642 c 0
223 270 m 2
 223 434 l 2
 223 529 230 595 245 631 c 0
 255 654 270 675 290 694 c 0
 340 739 401 756 472 745 c 0
 519 738 559 713 593 672 c 0
 623 634 638 585 638 525 c 0
 638 470 621 426 586 392 c 0
 543 349 495 335 442 350 c 1
 407 361 388 368 383 373 c 1
 383 304 383 304 383 262 c 128
 383 233 418 205 487 176 c 0
 527 160 571 151 619 150 c 1
 675 153 l 1
 756 163 816 192 855 240 c 0
 878 269 890 302 890 339 c 2
 890 715 l 2
 890 796 875 852 845 882 c 0
 797 930 733 963 654 980 c 0
 625 986 597 989 568 989 c 0
 451 989 361 958 299 895 c 1
 269 862 l 1
 256 843 l 1
 124 929 l 1
 165 996 230 1051 319 1093 c 0
 398 1130 480 1149 565 1149 c 0
 662 1149 757 1126 850 1079 c 0
 903 1052 945 1021 974 987 c 0
 1022 933 1047 854 1050 751 c 1
 1050 273 l 2
 1050 184 1005 113 916 60 c 0
 836 13 736 -10 615 -10 c 0
 505 -10 412 18 335 73 c 0
 260 127 223 193 223 270 c 2
EndSplineSet
EndChar
StartChar: uni0E2E
Encoding: 168 3630 170
OldEncoding: 3630
Width: 1250
Flags: HW
Fore
459 642 m 0
 424 642 402 627 393 598 c 1
 386 563 l 1
 385 543 l 1
 385 490 397 458 421 445 c 0
 430 440 443 436 459 435 c 1
 498 435 525 455 540 495 c 0
 545 508 548 523 549 538 c 1
 548 563 l 1
 541 594 525 616 498 631 c 0
 485 638 472 642 459 642 c 0
897 718 m 2
 897 752 896 770 893 772 c 1
 892 773 891 777 890 782 c 1
 890 784 l 1
 885 807 878 827 868 842 c 1
 804 790 711 764 588 764 c 1
 510 767 l 1
 390 777 303 807 250 856 c 0
 218 885 202 919 202 958 c 0
 202 1006 240 1049 315 1086 c 0
 394 1126 484 1147 585 1149 c 0
 590 1149 590 1149 596 1149 c 0
 695 1149 787 1126 871 1080 c 0
 885 1072 885 1072 898 1064 c 1
 926 1100 943 1131 950 1158 c 1
 1072 1116 l 1
 1049 1061 1023 1014 994 975 c 1
 1030 922 1050 859 1055 786 c 1
 1057 669 l 1
 1057 639 1057 639 1057 625 c 2
 1057 273 l 2
 1057 184 1012 113 923 60 c 0
 843 13 743 -10 622 -10 c 0
 512 -10 419 18 342 73 c 0
 267 127 230 193 230 270 c 2
 230 434 l 2
 230 529 237 595 252 631 c 0
 262 654 277 675 297 694 c 0
 347 739 408 756 479 745 c 0
 526 738 566 713 600 672 c 0
 630 634 645 585 645 525 c 0
 645 470 628 426 593 392 c 0
 550 349 502 335 449 350 c 1
 414 361 395 368 390 373 c 1
 390 304 390 304 390 262 c 128
 390 233 425 205 494 176 c 0
 534 160 578 151 626 150 c 1
 682 153 l 1
 763 163 823 192 862 240 c 0
 885 269 897 302 897 339 c 2
 897 718 l 2
824 952 m 1
 754 1004 678 1033 596 1038 c 0
 584 1038 l 2
 531 1035 l 1
 475 1028 429 1014 392 995 c 0
 368 982 355 970 354 958 c 1
 357 945 l 1
 369 921 410 901 479 886 c 0
 516 879 550 875 583 875 c 0
 673 875 753 901 824 952 c 1
EndSplineSet
EndChar
StartChar: uni0E2F
Encoding: 169 3631 171
OldEncoding: 3631
Width: 1150
Flags: HW
Fore
1025 1149 m 1
 1025 0 l 1
 865 0 l 1
 865 830 l 1
 800 764 722 721 631 702 c 0
 584 691 536 686 487 686 c 0
 392 686 315 703 254 738 c 1
 201 765 163 803 141 852 c 0
 132 872 126 893 125 914 c 0
 122 979 144 1034 191 1078 c 0
 223 1108 261 1126 306 1132 c 0
 366 1141 418 1126 463 1087 c 0
 495 1059 515 1024 522 982 c 0
 531 924 511 874 462 832 c 1
 483 823 520 825 573 838 c 0
 684 866 765 921 816 1003 c 0
 843 1046 860 1095 865 1149 c 1
 1025 1149 l 1
309 1042 m 0
 273 1036 248 1016 233 983 c 0
 227 970 224 955 224 940 c 0
 224 932 225 924 226 917 c 0
 233 886 251 863 281 850 c 0
 294 845 307 842 320 842 c 0
 324 842 328 842 333 843 c 0
 372 849 400 868 416 901 c 0
 423 915 426 930 426 946 c 0
 426 950 426 954 425 958 c 0
 420 990 403 1015 374 1032 c 0
 359 1040 344 1044 328 1044 c 0
 322 1044 316 1043 309 1042 c 0
EndSplineSet
EndChar
StartChar: uni0E30
Encoding: 170 3632 172
OldEncoding: 3632
Width: 1100
Flags: HW
Fore
171 289 m 1
 173 330 l 1
 181 387 208 430 255 459 c 0
 276 472 298 480 323 483 c 1
 360 484 l 1
 398 482 431 467 459 439 c 0
 484 414 499 385 504 351 c 1
 505 318 l 1
 502 269 482 231 445 204 c 2
 438 199 l 1
 447 196 462 194 483 194 c 0
 516 194 547 198 576 207 c 0
 669 236 731 283 764 349 c 0
 781 384 792 427 798 479 c 1
 914 479 l 1
 914 357 868 258 775 181 c 0
 738 150 695 126 648 108 c 0
 598 88 543 78 484 78 c 0
 389 78 311 101 250 148 c 0
 201 185 175 232 171 289 c 1
327 408 m 0
 297 403 276 388 264 361 c 0
 259 351 257 340 257 328 c 0
 257 323 258 317 259 311 c 0
 265 283 282 265 309 256 c 0
 317 253 326 251 335 251 c 0
 339 251 343 251 347 252 c 0
 382 257 406 274 419 303 c 0
 423 312 425 322 425 332 c 0
 425 335 425 339 424 343 c 0
 419 371 404 391 377 403 c 0
 366 407 355 409 343 409 c 0
 338 409 332 409 327 408 c 0
179 814 m 1
 181 855 l 1
 189 912 216 955 263 984 c 0
 284 997 306 1005 331 1008 c 1
 369 1009 l 1
 406 1007 439 992 467 964 c 0
 492 939 507 910 512 876 c 1
 513 843 l 1
 511 818 504 794 492 772 c 1
 474 748 l 1
 465 739 456 731 446 724 c 1
 455 721 470 719 491 719 c 0
 524 719 555 723 584 732 c 0
 677 761 739 808 772 874 c 0
 789 909 801 952 806 1004 c 1
 922 1004 l 1
 922 882 876 783 784 706 c 1
 746 675 703 651 656 633 c 0
 606 613 551 603 492 603 c 0
 397 603 319 626 258 673 c 0
 209 710 183 757 179 814 c 1
335 933 m 1
 306 928 285 913 272 886 c 0
 268 876 266 865 265 853 c 0
 265 848 266 842 267 836 c 0
 273 808 290 790 317 781 c 0
 325 778 334 776 343 776 c 0
 347 776 351 776 356 777 c 0
 391 782 414 799 427 828 c 0
 431 837 433 847 433 857 c 0
 433 860 433 864 432 868 c 0
 428 896 412 916 385 928 c 0
 376 932 366 934 355 934 c 2
 335 933 l 1
EndSplineSet
EndChar
StartChar: uni0E31
Encoding: 171 3633 173
OldEncoding: 3633
Width: 0
Flags: HW
Fore
-726 1444 m 1
 -724 1485 l 1
 -716 1542 -689 1585 -642 1614 c 0
 -621 1627 -599 1635 -574 1638 c 1
 -537 1639 l 1
 -499 1637 -466 1622 -438 1594 c 0
 -413 1569 -398 1540 -393 1506 c 1
 -392 1473 l 1
 -395 1424 -415 1386 -452 1359 c 2
 -459 1354 l 1
 -450 1351 -435 1349 -414 1349 c 0
 -381 1349 -350 1353 -321 1362 c 0
 -228 1391 -166 1438 -133 1504 c 0
 -116 1539 -105 1582 -99 1634 c 1
 17 1634 l 1
 17 1512 -29 1413 -122 1336 c 0
 -159 1305 -202 1281 -249 1263 c 0
 -299 1243 -354 1233 -413 1233 c 0
 -508 1233 -586 1256 -647 1303 c 0
 -696 1340 -722 1387 -726 1444 c 1
-570 1563 m 0
 -600 1558 -621 1543 -633 1516 c 0
 -638 1506 -640 1495 -640 1483 c 0
 -640 1478 -639 1472 -638 1466 c 0
 -632 1438 -615 1420 -588 1411 c 0
 -580 1408 -571 1406 -562 1406 c 0
 -558 1406 -554 1406 -550 1407 c 0
 -515 1412 -491 1429 -478 1458 c 0
 -474 1467 -472 1477 -472 1487 c 0
 -472 1490 -472 1494 -473 1498 c 0
 -478 1526 -493 1546 -520 1558 c 0
 -531 1562 -542 1564 -554 1564 c 0
 -559 1564 -565 1564 -570 1563 c 0
EndSplineSet
EndChar
StartChar: uni0E32
Encoding: 172 3634 174
OldEncoding: 3634
Width: 1150
Flags: HW
Fore
956 753 m 2
 956 0 l 1
 796 0 l 1
 796 729 l 2
 796 887 719 973 565 987 c 0
 554 988 544 989 533 989 c 2
 500 986 l 1
 447 975 399 944 356 891 c 0
 335 865 320 838 311 811 c 1
 138 837 l 1
 157 918 201 988 270 1049 c 0
 346 1116 430 1149 522 1149 c 0
 650 1149 754 1115 833 1047 c 0
 902 989 942 909 953 806 c 0
 955 789 956 771 956 753 c 2
EndSplineSet
EndChar
StartChar: uni0E33
Encoding: 173 3635 175
OldEncoding: 3635
Width: 1050
Flags: HW
Fore
905 753 m 2
 905 0 l 1
 745 0 l 1
 745 729 l 2
 745 887 668 973 514 987 c 0
 503 988 493 989 482 989 c 2
 449 986 l 1
 396 975 348 944 305 891 c 0
 284 865 269 838 260 811 c 1
 87 837 l 1
 106 918 150 988 219 1049 c 0
 295 1116 379 1149 471 1149 c 0
 599 1149 703 1115 782 1047 c 0
 851 989 891 909 902 806 c 0
 904 789 905 771 905 753 c 2
-299 1668 m 0
 -229 1668 -170 1642 -123 1591 c 0
 -85 1550 -66 1500 -66 1441 c 0
 -66 1368 -95 1308 -152 1263 c 0
 -195 1229 -244 1212 -299 1212 c 0
 -364 1212 -419 1237 -466 1288 c 0
 -507 1332 -527 1383 -527 1441 c 0
 -527 1507 -501 1563 -449 1610 c 0
 -406 1649 -356 1668 -299 1668 c 0
-297 1540 m 0
 -336 1540 -366 1524 -387 1492 c 1
 -398 1468 l 1
 -401 1458 -402 1448 -402 1437 c 0
 -402 1400 -387 1371 -357 1350 c 0
 -339 1338 -319 1332 -297 1332 c 0
 -251 1332 -219 1350 -200 1385 c 0
 -191 1401 -187 1418 -187 1437 c 0
 -187 1477 -204 1506 -238 1525 c 0
 -255 1535 -275 1540 -297 1540 c 0
EndSplineSet
EndChar
StartChar: uni0E34
Encoding: 174 3636 176
OldEncoding: 3636
Width: 0
Flags: HW
Fore
-180 1227 m 5
 -323 1258 -533 1284 -810 1307 c 0
 -941 1317 -1046 1322 -1124 1322 c 1
 -1103 1391 -1056 1458 -981 1523 c 0
 -953 1547 -925 1567 -897 1583 c 0
 -829 1622 -749 1641 -658 1641 c 0
 -638 1641 -618 1640 -598 1638 c 0
 -507 1628 -424 1593 -348 1532 c 0
 -341 1527 -334 1521 -327 1515 c 0
 -254 1450 -205 1354 -180 1227 c 5
-365 1359 m 1
 -370 1391 -395 1424 -438 1459 c 0
 -491 1502 -551 1525 -616 1530 c 1
 -672 1530 l 1
 -756 1525 -822 1497 -871 1448 c 1
 -893 1421 l 1
 -894 1418 -896 1416 -898 1413 c 1
 -810 1412 l 1
 -667 1404 -535 1390 -416 1369 c 0
 -395 1366 -378 1362 -365 1359 c 1
EndSplineSet
EndChar
StartChar: uni0E35
Encoding: 175 3637 177
OldEncoding: 3637
Width: 0
Flags: HW
Fore
-187 1260 m 1
 -184 1249 -182 1238 -180 1228 c 5
 -323 1259 -533 1285 -810 1308 c 0
 -941 1318 -1046 1323 -1124 1323 c 1
 -1103 1392 -1056 1459 -981 1524 c 0
 -953 1548 -925 1568 -897 1584 c 0
 -829 1623 -749 1642 -658 1642 c 0
 -638 1642 -618 1641 -598 1639 c 0
 -508 1629 -425 1594 -348 1533 c 0
 -344 1530 -340 1528 -337 1525 c 1
 -337 1735 l 1
 -187 1735 l 1
 -187 1260 l 1
-379 1370 m 1
 -394 1401 -425 1432 -472 1461 c 0
 -519 1490 -567 1506 -616 1511 c 1
 -664 1512 l 1
 -731 1508 -789 1489 -839 1454 c 1
 -864 1434 l 2
 -867 1431 -870 1427 -873 1424 c 1
 -775 1424 -651 1413 -501 1392 c 0
 -448 1385 -408 1377 -379 1370 c 1
EndSplineSet
EndChar
StartChar: uni0E36
Encoding: 176 3638 178
OldEncoding: 3638
Width: 0
Flags: HW
Fore
-367 1548 m 1
 -357 1585 -340 1614 -316 1635 c 0
 -282 1666 -243 1681 -198 1681 c 0
 -143 1681 -97 1661 -60 1620 c 0
 -29 1587 -14 1548 -14 1502 c 0
 -14 1445 -37 1398 -82 1362 c 0
 -116 1335 -156 1321 -202 1321 c 1
 -196 1304 -189 1273 -180 1228 c 5
 -323 1259 -533 1285 -810 1308 c 0
 -941 1318 -1046 1323 -1124 1323 c 1
 -1103 1392 -1056 1459 -981 1524 c 0
 -953 1548 -925 1568 -897 1584 c 0
 -829 1623 -749 1642 -658 1642 c 0
 -638 1642 -618 1641 -598 1639 c 0
 -517 1630 -440 1599 -367 1548 c 1
-198 1568 m 0
 -226 1568 -247 1556 -260 1533 c 1
 -267 1523 -270 1512 -270 1500 c 0
 -270 1473 -258 1452 -233 1438 c 0
 -222 1432 -211 1429 -198 1429 c 0
 -166 1429 -144 1442 -131 1468 c 0
 -126 1478 -124 1489 -124 1500 c 0
 -124 1528 -137 1548 -164 1561 c 0
 -175 1566 -186 1568 -198 1568 c 0
-374 1358 m 1
 -389 1389 -420 1421 -466 1454 c 0
 -516 1489 -566 1508 -616 1513 c 1
 -660 1514 l 1
 -723 1509 -783 1487 -838 1448 c 1
 -867 1423 l 2
 -871 1420 -874 1416 -877 1412 c 1
 -778 1412 -653 1401 -501 1380 c 0
 -445 1373 -403 1365 -374 1358 c 1
EndSplineSet
EndChar
StartChar: uni0E37
Encoding: 177 3639 179
OldEncoding: 3639
Width: 0
Flags: HW
Fore
-416 1544 m 1
 -401 1544 -376 1528 -341 1497 c 0
 -338 1494 -338 1494 -337 1493 c 1
 -337 1695 l 1
 -187 1695 l 1
 -187 1258 l 1
 -185 1201 l 5
 -327 1232 -542 1258 -830 1281 c 0
 -949 1291 -1041 1296 -1105 1296 c 1
 -1074 1389 -1009 1468 -909 1534 c 0
 -853 1571 -784 1594 -701 1604 c 1
 -641 1607 l 1
 -614 1606 -589 1603 -566 1598 c 1
 -566 1696 l 1
 -416 1696 l 1
 -416 1544 l 1
-399 1343 m 1
 -418 1382 -450 1415 -495 1442 c 0
 -532 1464 -573 1476 -616 1479 c 1
 -671 1479 l 1
 -754 1472 -816 1443 -858 1390 c 2
 -860 1387 l 1
 -737 1382 l 1
 -568 1371 -455 1358 -399 1343 c 1
EndSplineSet
EndChar
StartChar: uni0E38
Encoding: 178 3640 180
OldEncoding: 3640
Width: 0
Flags: HW
Fore
-341 -534 m 1
 -341 -360 l 1
 -351 -369 -362 -374 -374 -375 c 2
 -408 -376 l 1
 -437 -374 -463 -362 -486 -341 c 0
 -512 -318 -525 -285 -525 -244 c 0
 -525 -228 -523 -211 -518 -192 c 0
 -509 -157 -486 -129 -449 -107 c 0
 -424 -92 -399 -85 -372 -85 c 1
 -335 -88 l 1
 -293 -96 -262 -115 -243 -145 c 0
 -222 -178 -211 -230 -210 -299 c 0
 -210 -313 l 2
 -210 -534 l 1
 -341 -534 l 1
-383 -163 m 0
 -390 -163 -397 -165 -404 -168 c 0
 -419 -175 -431 -186 -440 -203 c 0
 -445 -214 -448 -225 -448 -236 c 0
 -448 -279 -429 -303 -392 -307 c 0
 -389 -308 -386 -308 -383 -308 c 0
 -376 -308 -369 -305 -362 -300 c 0
 -343 -286 -333 -265 -333 -237 c 0
 -333 -234 -333 -234 -333 -232 c 0
 -335 -187 -352 -164 -383 -163 c 0
EndSplineSet
EndChar
StartChar: uni0E39
Encoding: 179 3641 181
OldEncoding: 3641
Width: 0
Flags: HW
Fore
-351 -96 m 1
 -217 -96 l 1
 -217 -534 l 1
 -627 -534 l 1
 -627 -360 l 1
 -637 -369 -648 -374 -660 -375 c 2
 -694 -376 l 1
 -723 -374 -749 -362 -772 -341 c 0
 -798 -318 -811 -285 -811 -244 c 0
 -811 -228 -809 -211 -804 -192 c 0
 -795 -157 -772 -129 -735 -107 c 0
 -710 -92 -685 -85 -658 -85 c 1
 -621 -88 l 1
 -579 -96 -548 -115 -529 -145 c 0
 -508 -178 -497 -230 -496 -299 c 0
 -496 -313 l 2
 -496 -435 l 1
 -351 -435 l 1
 -351 -96 l 1
-669 -163 m 0
 -676 -163 -683 -165 -690 -168 c 0
 -705 -175 -717 -186 -726 -203 c 0
 -731 -214 -734 -225 -734 -236 c 0
 -734 -279 -715 -303 -678 -307 c 0
 -675 -308 -672 -308 -669 -308 c 0
 -662 -308 -655 -305 -648 -300 c 0
 -629 -286 -619 -265 -619 -237 c 0
 -619 -234 -619 -234 -619 -232 c 0
 -621 -187 -638 -164 -669 -163 c 0
EndSplineSet
EndChar
StartChar: uni0E3A
Encoding: 180 3642 182
OldEncoding: 3642
Width: 0
Flags: HW
Fore
-246 -60 m 0
 -209 -60 -178 -73 -152 -99 c 0
 -125 -128 -111 -160 -111 -195 c 0
 -111 -232 -125 -263 -152 -289 c 1
 -178 -316 -209 -330 -246 -330 c 0
 -281 -330 -313 -316 -340 -289 c 0
 -367 -262 -380 -231 -380 -195 c 0
 -380 -160 -367 -128 -340 -99 c 1
 -313 -73 -282 -60 -246 -60 c 0
EndSplineSet
EndChar
StartChar: uni0E3F
Encoding: 181 3647 183
OldEncoding: 3647
Width: 1250
Flags: HW
Fore
883 827 m 1
 972 802 1041 757 1089 693 c 1
 1137 627 1161 548 1161 457 c 0
 1161 324 1114 216 1020 133 c 0
 926 50 804 6 653 2 c 1
 653 -133 l 1
 541 -133 l 1
 541 0 l 1
 152 0 l 1
 152 1489 l 1
 541 1489 l 1
 541 1595 l 1
 653 1595 l 1
 653 1489 l 1
 798 1487 908 1458 982 1402 c 0
 1055 1347 1092 1261 1092 1144 c 0
 1092 1082 1073 1022 1036 965 c 0
 998 908 947 865 883 836 c 1
 883 827 l 1
541 885 m 1
 541 1321 l 1
 348 1321 l 1
 348 885 l 1
 541 885 l 1
653 887 m 1
 712 888 765 906 814 941 c 0
 861 976 885 1037 885 1124 c 0
 885 1189 868 1235 833 1264 c 0
 798 1293 754 1310 702 1315 c 1
 691 1315 674 1316 653 1319 c 1
 653 887 l 1
541 170 m 1
 541 719 l 1
 348 719 l 1
 348 170 l 1
 541 170 l 1
653 174 m 1
 741 178 813 202 869 246 c 0
 926 291 954 359 954 449 c 0
 954 518 944 569 925 602 c 0
 905 635 872 662 827 683 c 1
 782 706 724 717 653 717 c 1
 653 174 l 1
EndSplineSet
EndChar
StartChar: uni0E40
Encoding: 182 3648 184
OldEncoding: 3648
Width: 700
Flags: HW
Fore
167 1149 m 1
 327 1149 l 1
 327 403 l 1
 327 369 l 1
 339 383 361 392 392 396 c 0
 395 397 399 397 403 397 c 2
 438 395 l 1
 472 390 503 374 530 347 c 0
 580 297 594 226 572 135 c 0
 561 92 534 55 491 25 c 0
 458 2 421 -10 379 -11 c 0
 375 -11 375 -11 370 -11 c 0
 316 -10 271 8 234 44 c 0
 189 87 167 159 167 258 c 2
 167 403 l 1
 167 1149 l 1
395 97 m 0
 426 97 451 112 470 143 c 0
 480 160 485 177 485 194 c 0
 485 198 485 198 485 201 c 0
 482 247 464 278 433 294 c 0
 422 301 409 304 395 304 c 1
 359 301 336 286 327 257 c 0
 323 242 321 222 321 196 c 1
 323 145 336 114 360 103 c 0
 369 99 381 97 395 97 c 0
EndSplineSet
EndChar
StartChar: uni0E41
Encoding: 183 3649 185
OldEncoding: 3649
Width: 1320
Flags: HW
Fore
804 1149 m 1
 964 1149 l 1
 964 403 l 1
 964 369 l 1
 976 383 998 392 1029 396 c 0
 1032 397 1036 397 1040 397 c 2
 1075 395 l 1
 1109 390 1140 374 1167 347 c 0
 1217 297 1231 226 1209 135 c 0
 1198 92 1171 55 1128 25 c 0
 1095 2 1058 -10 1016 -11 c 0
 1012 -11 1012 -11 1007 -11 c 0
 953 -10 908 8 871 44 c 0
 826 87 804 159 804 258 c 2
 804 403 l 1
 804 1149 l 1
1032 97 m 0
 1063 97 1088 112 1107 143 c 0
 1117 160 1122 177 1122 194 c 0
 1122 198 1122 198 1122 201 c 0
 1119 247 1101 278 1070 294 c 0
 1059 301 1046 304 1032 304 c 1
 996 301 973 286 964 257 c 0
 960 242 958 222 958 196 c 1
 960 145 973 114 997 103 c 0
 1006 99 1018 97 1032 97 c 0
191 1149 m 1
 351 1149 l 1
 351 403 l 1
 351 369 l 1
 363 383 385 392 416 396 c 0
 419 397 423 397 427 397 c 2
 462 395 l 1
 496 390 527 374 554 347 c 0
 604 297 618 226 596 135 c 0
 585 92 558 55 515 25 c 0
 482 2 445 -10 403 -11 c 0
 399 -11 399 -11 394 -11 c 0
 340 -10 295 8 258 44 c 0
 213 87 191 159 191 258 c 2
 191 403 l 1
 191 1149 l 1
419 97 m 0
 450 97 475 112 494 143 c 0
 504 160 509 177 509 194 c 0
 509 198 509 198 509 201 c 0
 506 247 488 278 457 294 c 0
 446 301 433 304 419 304 c 1
 383 301 360 286 351 257 c 0
 347 242 345 222 345 196 c 1
 347 145 360 114 384 103 c 0
 393 99 405 97 419 97 c 0
EndSplineSet
EndChar
StartChar: uni0E42
Encoding: 184 3650 186
OldEncoding: 3650
Width: 1100
Flags: HW
Fore
561 850 m 2
 561 931 551 987 531 1017 c 0
 517 1038 491 1057 453 1076 c 0
 364 1120 220 1153 21 1175 c 1
 21 1204 41 1256 82 1331 c 0
 90 1346 98 1359 105 1370 c 0
 156 1451 222 1507 303 1539 c 0
 344 1556 387 1564 431 1564 c 0
 438 1564 445 1564 452 1563 c 0
 491 1561 549 1546 625 1517 c 0
 669 1500 702 1488 724 1483 c 0
 777 1470 827 1463 872 1463 c 0
 950 1463 1011 1483 1056 1524 c 1
 1034 1370 l 1
 975 1339 910 1323 839 1323 c 0
 796 1323 753 1329 710 1340 c 0
 694 1345 651 1361 580 1388 c 1
 528 1409 485 1421 450 1424 c 1
 415 1423 l 1
 356 1416 303 1381 256 1319 c 0
 245 1306 237 1293 230 1280 c 1
 375 1255 486 1220 565 1174 c 0
 578 1167 589 1159 598 1152 c 0
 646 1114 678 1077 694 1041 c 0
 712 999 721 936 721 852 c 2
 721 403 l 1
 721 369 l 1
 733 383 755 392 786 396 c 0
 790 397 794 397 798 397 c 2
 832 395 l 1
 867 390 898 374 925 347 c 0
 975 297 989 226 967 135 c 0
 956 92 929 55 886 25 c 0
 853 2 815 -10 773 -11 c 0
 765 -11 l 0
 711 -10 666 8 629 44 c 0
 584 87 561 159 561 258 c 2
 561 403 l 1
 561 850 l 2
789 97 m 0
 820 97 845 112 864 143 c 0
 875 160 880 177 880 194 c 0
 880 197 880 199 879 201 c 0
 876 247 859 278 828 294 c 0
 816 301 803 304 789 304 c 1
 753 301 731 286 722 257 c 0
 717 242 715 222 715 196 c 1
 718 145 731 114 755 103 c 0
 764 99 775 97 789 97 c 0
EndSplineSet
EndChar
StartChar: uni0E43
Encoding: 185 3651 187
OldEncoding: 3651
Width: 1000
Flags: HW
Fore
694 632 m 2
 694 403 l 1
 694 369 l 1
 705 383 727 392 759 396 c 0
 762 397 766 397 770 397 c 2
 805 395 l 1
 839 390 870 374 897 347 c 0
 947 297 961 226 939 135 c 0
 928 92 901 55 858 25 c 0
 825 2 788 -10 746 -11 c 0
 742 -11 742 -11 737 -11 c 0
 683 -10 638 8 601 44 c 0
 556 87 534 159 534 258 c 2
 534 403 l 1
 534 634 l 2
 534 721 544 786 565 830 c 0
 570 841 576 853 583 865 c 0
 590 877 615 909 658 961 c 0
 718 1034 752 1095 760 1144 c 1
 762 1180 l 1
 762 1187 761 1193 760 1200 c 0
 746 1278 704 1336 634 1374 c 0
 596 1394 557 1404 518 1404 c 1
 560 1373 582 1322 583 1250 c 1
 579 1200 l 1
 572 1153 558 1116 536 1088 c 0
 482 1021 412 988 325 987 c 0
 306 987 287 989 266 992 c 0
 193 1003 139 1038 102 1095 c 0
 89 1114 80 1134 74 1157 c 0
 69 1175 66 1195 66 1217 c 0
 67 1276 82 1330 112 1380 c 0
 117 1389 123 1396 128 1403 c 0
 203 1492 304 1543 430 1557 c 0
 449 1559 467 1560 486 1560 c 2
 547 1557 l 1
 658 1544 746 1499 811 1424 c 0
 857 1371 886 1305 899 1226 c 0
 902 1207 904 1188 904 1169 c 0
 903 1082 873 1006 814 942 c 0
 767 891 737 849 723 816 c 0
 704 772 694 711 694 632 c 2
762 97 m 0
 793 97 818 112 837 143 c 0
 847 160 852 177 852 194 c 0
 852 198 852 198 852 201 c 0
 849 247 831 278 800 294 c 0
 789 301 776 304 762 304 c 1
 726 301 703 286 694 257 c 0
 690 242 688 222 688 196 c 1
 690 145 703 114 727 103 c 0
 736 99 748 97 762 97 c 0
320 1350 m 0
 279 1347 245 1330 220 1298 c 0
 205 1277 197 1255 197 1231 c 0
 197 1229 197 1229 197 1226 c 0
 200 1173 222 1135 264 1113 c 0
 283 1104 304 1099 328 1099 c 1
 362 1102 l 1
 407 1111 439 1135 458 1172 c 0
 466 1189 470 1207 470 1226 c 0
 470 1230 l 0
 468 1274 447 1307 408 1330 c 0
 385 1343 360 1350 331 1350 c 0
 326 1350 326 1350 320 1350 c 0
EndSplineSet
EndChar
StartChar: uni0E44
Encoding: 186 3652 188
OldEncoding: 3652
Width: 1140
Flags: HW
Fore
829 1341 m 2
 829 403 l 1
 829 369 l 1
 841 383 863 392 894 396 c 0
 898 397 902 397 905 397 c 2
 940 395 l 1
 974 390 1005 374 1032 347 c 0
 1082 297 1096 226 1074 135 c 0
 1063 92 1036 55 993 25 c 0
 960 2 923 -10 881 -11 c 0
 877 -11 877 -11 872 -11 c 0
 818 -10 773 8 736 44 c 0
 691 87 669 159 669 258 c 2
 669 403 l 1
 669 1327 l 2
 669 1394 653 1427 622 1427 c 0
 598 1427 580 1406 567 1363 c 1
 532 1221 l 1
 528 1208 524 1195 519 1184 c 0
 493 1122 456 1084 407 1069 c 0
 385 1062 358 1059 326 1059 c 0
 258 1059 206 1084 169 1133 c 0
 133 1181 87 1303 30 1498 c 0
 27 1506 25 1514 23 1521 c 1
 172 1521 l 1
 230 1306 l 1
 246 1241 271 1199 306 1180 c 0
 315 1175 323 1173 332 1173 c 0
 366 1173 392 1197 410 1246 c 0
 413 1256 420 1281 431 1322 c 0
 458 1422 481 1483 499 1504 c 1
 519 1531 552 1551 597 1564 c 0
 614 1569 630 1572 644 1572 c 0
 733 1568 790 1530 814 1457 c 1
 824 1411 l 1
 829 1352 l 1
 829 1346 829 1346 829 1341 c 2
897 97 m 0
 928 97 953 112 972 143 c 0
 982 160 987 177 987 194 c 0
 987 198 987 198 987 201 c 0
 984 247 966 278 935 294 c 0
 924 301 911 304 897 304 c 1
 861 301 839 286 830 257 c 0
 825 242 823 222 823 196 c 1
 825 145 838 114 862 103 c 0
 871 99 883 97 897 97 c 0
EndSplineSet
EndChar
StartChar: uni0E45
Encoding: 187 3653 189
OldEncoding: 3653
Width: 1000
Flags: HW
Fore
883 753 m 2
 883 -380 l 1
 723 -380 l 1
 723 729 l 2
 723 887 646 973 492 987 c 0
 481 988 471 989 460 989 c 2
 427 986 l 1
 374 975 326 944 283 891 c 0
 262 865 247 838 238 811 c 1
 65 837 l 1
 84 918 128 988 197 1049 c 0
 273 1116 357 1149 449 1149 c 0
 577 1149 681 1115 760 1047 c 0
 829 989 869 909 880 806 c 0
 882 789 883 771 883 753 c 2
EndSplineSet
EndChar
StartChar: uni0E46
Encoding: 188 3654 190
OldEncoding: 3654
Width: 1100
Flags: HW
Fore
328 609 m 1
 354 608 l 1
 383 612 406 627 423 654 c 0
 427 662 l 0
 436 680 440 699 440 718 c 0
 440 733 438 747 433 760 c 0
 424 781 410 796 389 804 c 0
 387 805 385 805 382 806 c 2
 354 808 l 1
 319 806 294 789 278 758 c 0
 275 753 272 747 270 740 c 0
 267 727 265 715 265 702 c 1
 268 673 l 1
 278 647 l 1
 291 626 307 613 328 609 c 1
788 -374 m 1
 788 789 788 789 788 817 c 128
 788 836 780 864 763 903 c 0
 752 929 731 956 699 985 c 1
 699 984 651 952 555 887 c 1
 419 968 l 2
 406 977 398 982 396 985 c 1
 378 972 361 948 345 913 c 1
 337 892 l 1
 349 898 363 901 380 901 c 0
 387 901 396 901 405 900 c 0
 451 895 489 867 519 817 c 1
 532 794 538 765 538 732 c 0
 538 685 527 642 505 601 c 0
 484 562 448 535 398 520 c 0
 379 515 360 512 340 512 c 0
 331 512 322 513 313 514 c 0
 259 520 214 549 178 602 c 0
 168 616 l 0
 148 651 138 702 138 771 c 0
 138 785 139 798 140 810 c 0
 148 877 175 946 222 1017 c 1
 255 1065 300 1105 358 1137 c 1
 373 1146 386 1152 396 1155 c 1
 396 1154 449 1118 555 1047 c 1
 699 1155 l 1
 738 1144 781 1116 828 1071 c 0
 837 1062 846 1052 855 1042 c 0
 891 1001 918 941 937 864 c 0
 944 834 948 809 948 789 c 2
 948 -374 l 1
 788 -374 l 1
EndSplineSet
EndChar
StartChar: uni0E47
Encoding: 189 3655 191
OldEncoding: 3655
Width: 0
Flags: HW
Fore
-453 1583 m 0
 -478 1582 -496 1570 -507 1548 c 1
 -513 1528 l 1
 -513 1517 l 1
 -512 1491 -498 1474 -473 1465 c 0
 -465 1462 -456 1460 -445 1460 c 0
 -419 1461 -401 1473 -390 1495 c 0
 -387 1502 -385 1510 -385 1519 c 0
 -385 1546 -397 1565 -422 1576 c 0
 -431 1581 -441 1583 -453 1583 c 0
-526 1434 m 0
 -558 1454 -574 1483 -575 1522 c 0
 -575 1533 -573 1544 -570 1553 c 0
 -555 1596 -523 1623 -475 1633 c 0
 -468 1634 -460 1635 -452 1636 c 1
 -414 1634 l 1
 -365 1627 -331 1605 -312 1566 c 0
 -299 1539 -292 1509 -292 1476 c 0
 -292 1447 -297 1420 -307 1395 c 0
 -332 1334 -375 1298 -435 1287 c 0
 -446 1285 -457 1284 -468 1284 c 0
 -543 1284 -607 1300 -660 1333 c 2
 -709 1362 l 1
 -724 1369 -739 1372 -754 1372 c 0
 -775 1372 -786 1354 -788 1318 c 0
 -789 1296 -792 1285 -795 1284 c 0
 -894 1284 -964 1320 -1005 1393 c 0
 -1025 1428 -1035 1467 -1035 1510 c 0
 -1035 1529 -1033 1546 -1029 1563 c 0
 -1006 1654 -948 1716 -856 1749 c 0
 -854 1750 -852 1750 -849 1751 c 0
 -799 1768 -730 1777 -641 1778 c 0
 -581 1779 -540 1782 -517 1789 c 0
 -470 1803 -436 1827 -413 1862 c 0
 -406 1872 -400 1883 -397 1894 c 1
 -255 1894 l 1
 -260 1841 -288 1790 -341 1742 c 0
 -378 1708 -418 1686 -459 1675 c 0
 -491 1666 -547 1661 -628 1660 c 0
 -708 1659 -768 1650 -807 1631 c 0
 -851 1610 -877 1578 -885 1537 c 1
 -887 1505 l 1
 -881 1472 l 1
 -873 1444 -859 1430 -839 1430 c 1
 -834 1461 l 1
 -822 1503 -795 1524 -754 1524 c 0
 -732 1524 -705 1511 -673 1486 c 0
 -634 1455 -603 1435 -580 1426 c 0
 -551 1415 -520 1409 -485 1409 c 0
 -472 1409 -462 1412 -455 1417 c 1
 -488 1418 l 1
 -500 1421 -513 1426 -526 1434 c 0
EndSplineSet
EndChar
StartChar: uni0E48
Encoding: 190 3656 192
OldEncoding: 3656
Width: 0
Flags: HW
Fore
-333 2106 m 1
 -191 2106 l 1
 -191 1826 l 1
 -333 1826 l 1
 -333 2106 l 1
EndSplineSet
EndChar
StartChar: uni0E49
Encoding: 191 3657 193
OldEncoding: 3657
Width: 0
Flags: HW
Fore
67 2156 m 1
 34 2021 -51 1910 -187 1825 c 0
 -294 1758 -408 1718 -531 1706 c 1
 -591 1703 l 1
 -591 1783 l 1
 -559 1791 -532 1810 -511 1840 c 0
 -503 1851 -496 1869 -489 1893 c 1
 -506 1886 -524 1882 -543 1882 c 0
 -577 1882 -609 1895 -638 1920 c 0
 -665 1943 -679 1977 -679 2020 c 0
 -679 2030 l 0
 -677 2069 -663 2101 -637 2127 c 0
 -611 2153 -578 2167 -539 2170 c 1
 -517 2170 l 1
 -476 2167 -444 2158 -422 2143 c 0
 -411 2135 -399 2125 -388 2113 c 0
 -362 2084 -349 2049 -349 2009 c 0
 -349 2004 -349 2004 -349 1998 c 0
 -353 1943 -366 1897 -387 1862 c 1
 -397 1848 l 1
 -282 1891 -194 1957 -131 2046 c 0
 -106 2081 -88 2117 -75 2156 c 1
 67 2156 l 1
-525 1945 m 0
 -500 1945 -479 1957 -462 1981 c 0
 -453 1994 -448 2009 -448 2024 c 0
 -448 2049 -460 2070 -484 2087 c 0
 -497 2097 -511 2102 -525 2102 c 0
 -552 2102 -575 2090 -592 2066 c 0
 -601 2053 -606 2039 -606 2024 c 0
 -606 1994 -592 1971 -565 1956 c 0
 -552 1949 -539 1945 -525 1945 c 0
EndSplineSet
EndChar
StartChar: uni0E4A
Encoding: 192 3658 194
OldEncoding: 3658
Width: 0
Flags: HW
Fore
-579 1799 m 0
 -580 1822 -592 1839 -613 1850 c 0
 -621 1854 -629 1856 -638 1856 c 0
 -641 1856 -641 1856 -643 1856 c 0
 -668 1854 -684 1841 -693 1817 c 1
 -696 1794 l 1
 -696 1792 l 0
 -695 1767 -685 1750 -664 1741 c 0
 -657 1738 -649 1736 -640 1736 c 0
 -615 1736 -596 1748 -585 1771 c 0
 -581 1779 -579 1788 -579 1799 c 0
-155 1839 m 1
 -10 2169 l 1
 125 2169 l 2
 124 2169 81 2057 -4 1832 c 0
 -37 1747 -120 1695 -254 1677 c 0
 -277 1674 -301 1672 -325 1672 c 1
 -290 1725 -273 1781 -273 1840 c 0
 -273 1877 -280 1910 -295 1941 c 0
 -311 1974 -334 2001 -365 2020 c 1
 -507 1902 l 1
 -605 1988 l 1
 -624 2004 -638 2015 -647 2020 c 1
 -694 2001 -725 1966 -739 1915 c 0
 -743 1900 -745 1886 -745 1871 c 0
 -745 1859 -744 1848 -741 1837 c 1
 -740 1846 -733 1859 -722 1875 c 0
 -704 1901 -675 1914 -635 1914 c 0
 -623 1914 -613 1913 -604 1910 c 0
 -562 1897 -537 1869 -528 1826 c 0
 -527 1820 -526 1814 -525 1807 c 1
 -527 1774 l 1
 -534 1732 -555 1703 -592 1686 c 0
 -617 1674 -645 1668 -676 1668 c 0
 -704 1668 -730 1672 -754 1681 c 0
 -803 1700 -838 1738 -858 1795 c 0
 -867 1822 -872 1853 -872 1886 c 0
 -872 1893 -872 1901 -871 1908 c 0
 -866 1980 -825 2044 -747 2101 c 0
 -714 2124 -680 2142 -647 2154 c 1
 -507 2036 l 1
 -365 2154 l 1
 -308 2135 -258 2097 -215 2042 c 1
 -172 1989 -151 1933 -151 1876 c 0
 -151 1863 -152 1851 -155 1839 c 1
EndSplineSet
EndChar
StartChar: uni0E4B
Encoding: 193 3659 195
OldEncoding: 3659
Width: 0
Flags: HW
Fore
-164 1812 m 1
 -306 1812 l 1
 -306 1670 l 1
 -448 1670 l 1
 -448 1812 l 1
 -590 1812 l 1
 -590 1954 l 1
 -448 1954 l 1
 -448 2096 l 1
 -306 2096 l 1
 -306 1954 l 1
 -164 1954 l 1
 -164 1812 l 1
EndSplineSet
EndChar
StartChar: uni0E4C
Encoding: 194 3660 196
OldEncoding: 3660
Width: 0
Flags: HW
Fore
28 2169 m 1
 11 2122 -32 2076 -103 2030 c 0
 -130 2012 -130 2012 -133 2010 c 0
 -162 1989 -209 1970 -274 1952 c 1
 -321 1942 l 1
 -274 1932 -242 1906 -225 1864 c 1
 -211 1817 l 1
 -209 1789 l 1
 -210 1764 -220 1734 -239 1699 c 0
 -259 1662 -297 1637 -354 1625 c 0
 -366 1623 -378 1622 -389 1621 c 1
 -432 1624 l 1
 -489 1633 -532 1651 -562 1680 c 0
 -563 1681 -563 1681 -565 1683 c 0
 -596 1716 -613 1756 -617 1805 c 1
 -617 1831 l 1
 -612 1891 -590 1937 -553 1969 c 0
 -519 1998 -454 2023 -357 2044 c 0
 -315 2053 -289 2060 -279 2063 c 0
 -231 2079 -190 2102 -156 2133 c 0
 -143 2146 -133 2158 -127 2169 c 1
 28 2169 l 1
-409 1885 m 0
 -444 1885 -471 1871 -489 1844 c 1
 -499 1821 l 1
 -502 1812 -504 1803 -504 1792 c 0
 -504 1775 -498 1758 -485 1742 c 1
 -464 1717 -437 1705 -404 1705 c 1
 -364 1710 -337 1728 -322 1758 c 0
 -317 1769 -314 1782 -314 1795 c 0
 -314 1834 -331 1861 -364 1876 c 0
 -377 1882 -392 1885 -409 1885 c 0
EndSplineSet
EndChar
StartChar: uni0E4D
Encoding: 195 3661 197
OldEncoding: 3661
Width: 0
Flags: HW
Fore
-262 1514 m 0
 -221 1514 -185 1499 -156 1470 c 0
 -127 1440 -113 1404 -113 1362 c 0
 -113 1321 -127 1286 -156 1257 c 0
 -185 1228 -221 1213 -262 1213 c 0
 -303 1213 -338 1228 -368 1257 c 0
 -397 1286 -412 1321 -412 1362 c 0
 -412 1404 -397 1440 -368 1470 c 0
 -339 1499 -303 1514 -262 1514 c 0
-263 1285 m 0
 -241 1285 -222 1292 -207 1307 c 0
 -191 1322 -183 1341 -183 1362 c 0
 -183 1383 -191 1402 -207 1418 c 0
 -222 1433 -241 1441 -263 1441 c 0
 -284 1441 -303 1433 -319 1418 c 0
 -335 1402 -343 1383 -343 1362 c 0
 -343 1341 -335 1322 -319 1307 c 0
 -303 1292 -284 1285 -263 1285 c 0
EndSplineSet
EndChar
StartChar: uni0E4E
Encoding: 196 3662 198
OldEncoding: 3662
Width: 0
Flags: HW
Fore
-102 1901 m 1
 -165 1917 -221 1925 -270 1925 c 0
 -355 1925 -397 1905 -397 1866 c 0
 -397 1821 -344 1798 -238 1798 c 2
 -168 1798 l 1
 -168 1686 l 1
 -233 1686 l 2
 -358 1686 -420 1666 -420 1626 c 0
 -420 1606 -401 1589 -364 1575 c 0
 -327 1561 -276 1554 -213 1554 c 2
 -135 1554 l 1
 -135 1444 l 1
 -219 1444 l 2
 -319 1444 -398 1461 -456 1495 c 128
 -514 1529 -543 1569 -543 1616 c 0
 -543 1644 -533 1670 -513 1694 c 128
 -493 1717 -467 1734 -434 1743 c 1
 -491 1772 -520 1815 -520 1872 c 0
 -520 1921 -499 1961 -456 1991 c 0
 -413 2021 -354 2036 -279 2036 c 0
 -223 2036 -164 2028 -102 2013 c 1
 -102 1901 l 1
EndSplineSet
EndChar
StartChar: uni0E4F
Encoding: 197 3663 199
OldEncoding: 3663
Width: 1250
Flags: HW
Fore
617 917 m 0
 504 917 407 877 327 797 c 1
 246 717 206 621 206 508 c 0
 206 396 246 299 327 219 c 0
 407 139 504 100 617 100 c 0
 730 100 828 139 908 219 c 1
 988 299 1029 396 1029 508 c 0
 1029 621 988 717 908 797 c 0
 828 877 730 917 617 917 c 0
617 361 m 0
 662 361 699 375 727 403 c 0
 756 431 770 466 770 509 c 0
 770 552 756 588 727 616 c 0
 699 644 662 658 617 658 c 0
 573 658 536 644 507 616 c 0
 479 588 464 552 464 509 c 0
 464 466 479 431 507 403 c 0
 536 375 573 361 617 361 c 0
616 1040 m 0
 760 1040 883 988 985 884 c 0
 1086 780 1137 655 1137 509 c 0
 1137 363 1086 238 985 134 c 1
 883 30 760 -21 616 -21 c 0
 473 -21 351 30 250 134 c 0
 148 238 97 363 97 509 c 0
 97 655 148 780 250 884 c 1
 351 988 473 1040 616 1040 c 0
616 258 m 0
 542 258 482 282 434 330 c 0
 387 377 363 438 363 511 c 0
 363 584 387 644 434 692 c 0
 482 739 542 763 616 763 c 0
 690 763 751 739 798 692 c 0
 846 644 870 584 870 511 c 0
 870 438 846 377 798 330 c 0
 751 282 690 258 616 258 c 0
EndSplineSet
EndChar
StartChar: uni0E50
Encoding: 198 3664 200
OldEncoding: 3664
Width: 1250
Flags: HW
Fore
625 163 m 0
 712 163 786 192 847 250 c 0
 908 308 939 377 939 457 c 0
 939 540 907 611 844 668 c 0
 783 723 710 751 625 751 c 0
 540 750 468 721 409 663 c 0
 351 606 322 537 322 457 c 0
 322 370 354 297 418 240 c 0
 475 189 544 163 625 163 c 0
622 -10 m 0
 503 -10 399 28 310 105 c 0
 223 180 171 275 154 390 c 0
 151 412 150 435 150 458 c 0
 150 576 190 679 269 767 c 0
 345 850 439 901 552 918 c 0
 575 922 599 924 622 924 c 1
 685 921 l 1
 800 907 898 860 978 779 c 0
 1061 695 1106 595 1111 479 c 0
 1112 472 1112 465 1112 458 c 0
 1112 347 1073 247 996 159 c 0
 921 74 828 20 716 -1 c 0
 685 -7 654 -10 622 -10 c 0
EndSplineSet
EndChar
StartChar: uni0E51
Encoding: 199 3665 201
OldEncoding: 3665
Width: 1300
Flags: HW
Fore
930 529 m 0
 908 647 842 721 733 751 c 0
 700 760 663 765 623 765 c 0
 551 765 492 740 446 690 c 0
 429 671 416 651 407 629 c 0
 396 600 390 571 390 541 c 0
 390 514 395 488 404 465 c 0
 406 460 408 456 411 452 c 0
 440 395 491 366 564 363 c 0
 567 363 570 363 573 362 c 0
 586 362 599 364 611 368 c 0
 640 377 658 390 665 409 c 1
 667 421 l 1
 656 413 640 409 620 409 c 1
 586 412 l 1
 575 415 566 418 558 422 c 0
 521 441 499 473 491 519 c 1
 489 550 l 1
 491 599 513 637 555 663 c 0
 564 669 574 674 585 677 c 0
 606 684 628 687 653 687 c 0
 680 687 706 683 730 675 c 0
 771 662 803 632 826 585 c 0
 832 574 836 564 839 553 c 0
 849 520 854 489 853 462 c 0
 853 426 846 392 831 360 c 0
 799 289 746 242 671 218 c 0
 640 208 607 203 572 203 c 0
 479 203 398 232 327 291 c 0
 300 314 278 339 259 367 c 0
 228 414 212 476 212 552 c 0
 212 606 221 653 239 692 c 0
 240 694 241 696 242 697 c 0
 309 832 415 906 561 921 c 0
 578 923 595 924 612 924 c 2
 688 921 l 1
 854 904 972 836 1042 715 c 0
 1067 672 1084 624 1095 570 c 0
 1103 531 1107 492 1107 453 c 0
 1107 338 1074 240 1007 159 c 0
 932 66 818 12 665 -4 c 0
 640 -7 612 -9 583 -10 c 1
 514 -8 l 1
 402 1 307 31 228 82 c 0
 212 93 198 104 185 115 c 1
 271 254 l 1
 336 197 417 162 514 149 c 0
 535 146 555 145 574 145 c 0
 578 145 578 145 581 145 c 0
 668 146 746 172 815 223 c 0
 830 234 843 246 856 259 c 0
 902 307 928 371 934 450 c 1
 933 501 l 1
 932 511 931 520 930 529 c 0
585 545 m 0
 585 520 596 503 618 492 c 0
 627 487 636 485 647 485 c 0
 678 485 698 500 706 529 c 0
 708 535 709 541 709 548 c 0
 709 569 698 585 676 596 c 0
 667 601 656 603 645 603 c 0
 618 602 600 591 590 568 c 0
 587 561 585 553 585 545 c 0
EndSplineSet
EndChar
StartChar: uni0E52
Encoding: 200 3666 202
OldEncoding: 3666
Width: 1350
Flags: HW
Fore
591 513 m 0
 591 489 602 471 624 460 c 0
 633 455 642 453 653 453 c 0
 684 453 704 468 712 497 c 0
 714 503 715 509 715 516 c 0
 715 537 704 553 682 564 c 0
 673 569 663 571 651 571 c 0
 624 570 606 559 596 536 c 0
 593 529 591 521 591 513 c 0
656 0 m 2
 582 0 525 1 484 4 c 128
 444 6 392 35 327 92 c 0
 317 101 307 110 297 120 c 0
 264 153 242 216 232 307 c 1
 208 611 l 1
 187 801 143 975 75 1134 c 1
 269 1134 l 1
 329 979 370 788 393 560 c 0
 406 426 414 351 417 334 c 0
 424 293 433 266 445 252 c 0
 481 210 518 185 555 178 c 0
 571 175 595 173 627 173 c 2
 657 173 l 1
 1041 174 l 1
 1041 506 l 2
 1041 570 1029 624 1004 667 c 0
 987 695 967 719 944 738 c 2
 936 744 l 1
 936 743 901 720 832 674 c 1
 718 744 l 1
 693 733 672 711 653 679 c 1
 680 679 l 1
 718 675 752 657 782 624 c 0
 790 616 797 607 802 598 c 0
 818 570 826 541 826 511 c 0
 826 469 811 430 780 394 c 0
 751 360 711 343 659 343 c 0
 636 343 612 347 589 355 c 0
 579 358 569 363 560 368 c 0
 491 405 456 473 456 570 c 0
 456 586 l 0
 459 664 482 732 526 790 c 0
 545 816 578 845 625 877 c 0
 659 900 690 915 718 924 c 1
 718 923 756 892 832 831 c 1
 936 924 l 1
 979 913 1023 887 1067 847 c 1
 1100 815 l 1
 1102 813 l 2
 1143 765 1172 720 1187 679 c 0
 1205 631 1214 573 1214 506 c 2
 1214 0 l 1
 656 0 l 2
EndSplineSet
EndChar
StartChar: uni0E53
Encoding: 201 3667 203
OldEncoding: 3667
Width: 1400
Flags: HW
Fore
315 136 m 0
 321 114 335 100 357 94 c 1
 378 92 l 1
 383 93 387 93 391 94 c 0
 421 103 436 122 436 152 c 0
 436 159 435 165 434 171 c 0
 429 191 415 204 392 209 c 1
 370 210 l 1
 358 207 l 0
 333 200 318 184 314 160 c 1
 314 140 l 1
 315 139 315 137 315 136 c 0
191 108 m 0
 157 182 128 285 105 416 c 0
 95 476 90 524 89 561 c 1
 93 622 l 1
 106 738 150 822 224 873 c 0
 272 907 332 924 403 924 c 1
 458 922 l 1
 544 913 614 878 669 819 c 0
 684 802 696 785 705 768 c 1
 740 829 788 873 850 900 c 0
 887 916 926 924 967 924 c 0
 1187 924 1298 779 1299 489 c 1
 1295 387 l 1
 1287 276 1265 147 1229 0 c 1
 1053 0 l 1
 1094 188 1118 328 1125 419 c 1
 1129 511 l 1
 1127 672 1078 753 983 753 c 0
 923 753 875 723 840 663 c 0
 823 634 812 603 807 570 c 0
 791 475 780 373 775 264 c 0
 774 245 774 229 774 216 c 1
 644 216 l 1
 644 292 632 392 609 515 c 0
 605 539 601 558 597 573 c 0
 578 645 545 697 496 728 c 0
 471 745 443 753 412 753 c 0
 323 753 274 701 264 597 c 1
 262 540 l 1
 262 463 274 392 297 326 c 0
 301 314 l 1
 326 326 354 332 383 332 c 0
 422 332 456 321 483 300 c 0
 528 265 551 219 551 163 c 0
 551 133 544 102 529 70 c 0
 507 22 462 -5 394 -11 c 1
 348 -11 l 2
 345 -10 343 -10 341 -10 c 0
 277 -3 229 32 198 94 c 0
 195 99 193 103 191 108 c 0
EndSplineSet
EndChar
StartChar: uni0E54
Encoding: 202 3668 204
OldEncoding: 3668
Width: 1550
Flags: HW
Fore
1462 1262 m 1
 1447 1097 1393 972 1299 888 c 0
 1205 804 1076 762 913 762 c 2
 653 762 l 2
 420 762 303 662 303 461 c 0
 303 373 330 300 386 244 c 128
 440 186 509 158 590 158 c 0
 651 158 769 182 942 231 c 1
 907 257 876 292 851 335 c 0
 826 378 813 420 813 459 c 0
 813 533 834 590 876 631 c 0
 919 672 972 692 1036 692 c 0
 1089 692 1134 673 1171 636 c 0
 1208 599 1227 555 1227 504 c 0
 1227 455 1210 411 1176 374 c 0
 1141 337 1095 317 1038 313 c 1
 1069 282 1104 262 1141 254 c 0
 1246 229 1327 193 1382 145 c 1
 1253 -2 l 1
 1227 22 1198 41 1166 55 c 0
 1135 69 1089 76 1030 76 c 0
 987 76 924 64 841 40 c 0
 735 9 648 -6 580 -6 c 0
 454 -6 347 40 259 132 c 128
 171 224 127 336 127 469 c 0
 127 618 177 731 277 808 c 128
 377 885 509 924 672 924 c 2
 918 924 l 2
 1130 924 1250 1037 1278 1262 c 1
 1462 1262 l 1
1036 428 m 0
 1057 428 1075 435 1090 450 c 0
 1105 464 1112 481 1112 502 c 0
 1112 524 1105 543 1090 558 c 0
 1075 573 1057 580 1036 580 c 0
 1015 580 998 572 983 558 c 128
 968 542 961 524 961 502 c 0
 961 481 968 464 983 450 c 0
 998 435 1015 428 1036 428 c 0
EndSplineSet
EndChar
StartChar: uni0E55
Encoding: 203 3669 205
OldEncoding: 3669
Width: 1550
Flags: HW
Fore
1462 1262 m 1
 1447 1097 1393 972 1299 888 c 0
 1205 804 1076 762 913 762 c 2
 653 762 l 2
 420 762 303 662 303 461 c 0
 303 373 330 300 386 244 c 128
 440 186 509 158 590 158 c 0
 651 158 769 182 942 231 c 1
 907 257 876 292 851 335 c 0
 826 378 813 420 813 459 c 0
 813 533 834 590 876 631 c 0
 919 672 972 692 1036 692 c 0
 1089 692 1134 673 1171 636 c 0
 1208 599 1227 555 1227 504 c 0
 1227 455 1210 411 1176 374 c 0
 1141 337 1095 317 1038 313 c 1
 1069 282 1103 262 1139 254 c 0
 1244 229 1325 193 1380 145 c 1
 1253 -2 l 1
 1227 22 1198 41 1166 55 c 0
 1135 69 1089 76 1030 76 c 0
 987 76 924 64 841 40 c 0
 735 9 648 -6 580 -6 c 0
 454 -6 347 40 259 132 c 128
 171 224 127 336 127 469 c 0
 127 602 170 709 256 788 c 0
 341 867 462 912 618 922 c 1
 607 948 602 973 602 997 c 0
 602 1049 621 1093 658 1130 c 0
 695 1167 740 1186 793 1186 c 0
 845 1186 890 1167 927 1130 c 0
 964 1093 983 1049 983 997 c 0
 983 970 978 947 969 926 c 1
 1150 945 1253 1057 1278 1262 c 1
 1462 1262 l 1
793 922 m 0
 813 922 831 929 846 944 c 0
 861 958 868 975 868 995 c 0
 868 1017 861 1035 846 1050 c 0
 831 1065 814 1073 793 1073 c 0
 772 1073 754 1066 739 1050 c 128
 724 1036 717 1017 717 995 c 0
 717 975 725 958 740 944 c 0
 755 929 772 922 793 922 c 0
1036 428 m 0
 1057 428 1075 435 1090 450 c 0
 1105 464 1112 481 1112 502 c 0
 1112 524 1105 543 1090 558 c 0
 1075 573 1057 580 1036 580 c 0
 1015 580 998 572 983 558 c 128
 968 542 961 524 961 502 c 0
 961 481 968 464 983 450 c 0
 998 435 1015 428 1036 428 c 0
EndSplineSet
EndChar
StartChar: uni0E56
Encoding: 204 3670 206
OldEncoding: 3670
Width: 1300
Flags: HW
Fore
422 885 m 1
 498 914 575 928 653 928 c 0
 813 928 943 883 1044 792 c 0
 1145 702 1196 583 1196 436 c 0
 1196 301 1150 191 1059 108 c 0
 968 25 854 -16 719 -16 c 0
 608 -16 515 20 440 91 c 0
 365 162 328 245 328 338 c 0
 328 413 349 474 392 522 c 0
 435 570 488 594 551 594 c 0
 603 594 648 575 685 538 c 0
 722 501 741 457 741 406 c 0
 741 356 724 313 690 276 c 0
 657 239 612 219 555 215 c 1
 566 195 589 177 622 162 c 0
 655 147 687 139 719 139 c 0
 806 139 878 166 935 222 c 128
 992 276 1020 348 1020 436 c 0
 1020 535 986 613 919 672 c 0
 852 731 763 760 653 760 c 0
 540 760 439 741 348 702 c 1
 247 945 135 1131 12 1262 c 1
 260 1262 l 1
 337 1141 391 1015 422 885 c 1
553 330 m 0
 574 330 591 337 606 352 c 0
 621 366 629 383 629 403 c 0
 629 425 622 444 606 458 c 128
 592 474 574 481 553 481 c 0
 532 481 515 473 500 458 c 1
 485 443 477 425 477 403 c 0
 477 383 485 366 500 352 c 0
 515 337 532 330 553 330 c 0
EndSplineSet
EndChar
StartChar: uni0E57
Encoding: 205 3671 207
OldEncoding: 3671
Width: 1540
Flags: HW
Fore
1417 334 m 2
 1417 111 1297 -0 1057 0 c 2
 791 0 l 1
 791 10 l 1
 818 53 842 117 865 203 c 0
 888 289 899 367 899 436 c 0
 899 550 891 632 875 684 c 128
 859 734 834 760 799 760 c 0
 725 760 688 662 688 467 c 1
 514 467 l 1
 514 662 478 760 406 760 c 0
 337 760 303 652 303 436 c 0
 303 389 305 359 309 348 c 1
 329 357 358 362 395 362 c 0
 449 362 494 343 530 306 c 0
 566 268 584 223 584 172 c 0
 584 120 565 76 528 39 c 0
 490 2 445 -16 393 -16 c 0
 310 -16 245 23 198 101 c 0
 151 179 127 291 127 436 c 0
 127 761 220 924 406 924 c 0
 498 924 563 875 602 776 c 1
 643 875 708 924 799 924 c 0
 984 924 1077 761 1077 436 c 0
 1077 349 1065 263 1042 178 c 1
 1057 178 l 2
 1172 178 1229 231 1229 338 c 2
 1229 1130 l 1
 1417 1130 l 1
 1417 334 l 2
393 96 m 0
 423 96 445 109 459 135 c 0
 466 147 469 160 469 174 c 0
 469 203 456 224 431 238 c 0
 419 245 406 248 393 248 c 0
 364 248 342 236 327 211 c 0
 320 200 317 187 317 174 c 0
 317 143 330 120 357 105 c 0
 368 99 380 96 393 96 c 0
EndSplineSet
EndChar
StartChar: uni0E58
Encoding: 206 3672 208
OldEncoding: 3672
Width: 1580
Flags: HW
Fore
1462 1262 m 1
 1447 1099 1393 975 1299 888 c 0
 1230 825 1124 787 979 776 c 0
 954 774 873 772 736 769 c 0
 606 766 512 753 453 728 c 0
 392 701 349 659 326 600 c 1
 312 555 l 1
 306 527 303 496 303 461 c 0
 303 382 325 315 370 260 c 0
 415 205 469 175 532 170 c 1
 532 251 548 318 580 370 c 128
 612 423 656 449 713 449 c 0
 748 449 783 439 820 420 c 0
 856 401 904 357 963 287 c 0
 1014 228 1052 191 1078 176 c 0
 1105 161 1130 154 1155 154 c 0
 1194 154 1225 169 1250 200 c 0
 1274 230 1287 271 1288 324 c 1
 1269 314 1240 309 1202 309 c 0
 1149 309 1104 328 1068 366 c 0
 1032 403 1014 448 1014 500 c 0
 1014 551 1033 595 1070 632 c 0
 1107 669 1152 688 1204 688 c 0
 1279 688 1340 660 1387 603 c 0
 1434 546 1458 472 1458 381 c 0
 1458 258 1430 161 1374 92 c 0
 1318 23 1245 -12 1155 -12 c 0
 1110 -12 1064 1 1017 28 c 0
 970 54 911 110 840 196 c 0
 792 254 760 283 743 283 c 0
 714 283 700 236 700 141 c 2
 700 0 l 1
 575 0 l 2
 446 0 339 45 254 134 c 0
 169 223 127 335 127 469 c 0
 127 615 177 728 277 808 c 0
 354 869 466 906 613 917 c 0
 629 918 705 921 842 925 c 0
 969 929 1061 944 1119 971 c 0
 1216 1015 1268 1102 1277 1232 c 0
 1278 1242 1278 1252 1278 1262 c 1
 1462 1262 l 1
1204 424 m 0
 1234 424 1256 437 1270 462 c 0
 1277 473 1280 485 1280 498 c 0
 1280 529 1267 552 1241 566 c 1
 1219 574 l 1
 1204 575 l 2
 1173 575 1151 562 1137 535 c 1
 1129 513 l 1
 1128 508 1128 503 1128 498 c 0
 1128 469 1141 448 1166 434 c 0
 1177 427 1190 424 1204 424 c 0
EndSplineSet
EndChar
StartChar: uni0E59
Encoding: 207 3673 209
OldEncoding: 3673
Width: 1500
Flags: HW
Fore
1399 1130 m 1
 1388 912 1359 762 1310 679 c 0
 1261 596 1197 555 1120 555 c 0
 1088 555 1057 564 1028 582 c 0
 999 599 968 637 933 696 c 0
 908 739 889 760 874 760 c 0
 840 760 805 708 768 604 c 1
 999 0 l 1
 825 0 l 1
 621 546 l 1
 594 616 569 669 546 706 c 0
 523 742 497 760 467 760 c 0
 414 760 374 732 346 676 c 128
 317 620 303 540 303 436 c 0
 303 395 305 366 309 348 c 1
 329 357 358 362 395 362 c 0
 449 362 494 343 530 306 c 0
 566 268 584 223 584 172 c 0
 584 120 565 76 528 39 c 0
 490 2 445 -16 393 -16 c 0
 310 -16 245 23 198 101 c 0
 151 179 127 291 127 436 c 0
 127 593 156 714 214 798 c 0
 273 882 357 924 467 924 c 0
 570 924 649 875 702 776 c 1
 745 875 802 924 874 924 c 0
 899 924 923 916 946 900 c 128
 970 884 999 849 1033 794 c 0
 1064 745 1087 721 1104 721 c 0
 1163 721 1200 857 1214 1130 c 1
 1399 1130 l 1
393 96 m 0
 414 96 431 103 446 118 c 0
 461 133 469 152 469 174 c 0
 469 194 461 211 446 226 c 0
 431 241 414 248 393 248 c 128
 372 248 355 241 340 226 c 0
 325 211 317 194 317 174 c 0
 317 152 324 134 340 118 c 128
 354 104 372 96 393 96 c 0
EndSplineSet
EndChar
StartChar: uni0E5A
Encoding: 208 3674 210
OldEncoding: 3674
Width: 1400
Flags: HW
Fore
1025 1120 m 1
 1025 0 l 1
 845 0 l 1
 845 777 l 1
 789 728 737 695 689 678 c 1
 631 662 l 1
 584 651 536 646 487 646 c 0
 392 646 315 663 254 698 c 1
 207 721 172 758 147 808 c 0
 134 834 126 860 125 885 c 0
 122 950 144 1005 191 1049 c 0
 223 1079 261 1097 306 1103 c 0
 366 1112 418 1097 463 1058 c 0
 495 1030 515 995 522 953 c 0
 531 895 511 845 462 803 c 1
 483 794 520 796 573 809 c 0
 694 840 775 906 818 1008 c 0
 832 1042 841 1079 845 1120 c 1
 1025 1120 l 1
317 994 m 0
 289 989 270 975 260 951 c 1
 255 929 l 1
 256 909 l 1
 261 886 276 871 300 862 c 0
 308 859 316 858 325 858 c 0
 328 858 331 858 334 859 c 0
 366 864 387 879 398 904 c 0
 401 912 403 920 403 929 c 0
 403 932 403 934 402 937 c 0
 399 960 385 978 361 989 c 0
 351 993 341 995 331 995 c 0
 326 995 322 995 317 994 c 0
1253 0 m 1
 1065 0 l 1
 1065 1120 l 1
 1253 1120 l 1
 1253 0 l 1
EndSplineSet
EndChar
StartChar: uni0E5B
Encoding: 209 3675 211
OldEncoding: 3675
Width: 2370
Flags: HW
Fore
1776 340 m 0
 1732 340 1706 94 1600 94 c 0
 1508 94 1504 351 1450 351 c 0
 1405 351 1397 88 1292 88 c 0
 1175 88 1172 284 1146 376 c 1
 1114 372 1098 236 1004 138 c 1
 935 47 822 -12 604 -10 c 0
 469 -9 349 54 260 150 c 0
 170 246 133 342 133 483 c 0
 133 622 176 762 260 844 c 0
 369 950 488 986 578 986 c 0
 670 986 812 964 892 848 c 0
 963 746 977 600 944 504 c 0
 896 364 762 274 612 272 c 0
 484 270 392 364 382 464 c 0
 370 584 424 666 480 706 c 0
 533 744 594 742 646 714 c 0
 679 697 697 678 708 642 c 0
 719 606 716 566 702 537 c 0
 686 504 662 486 628 473 c 0
 602 463 570 458 540 471 c 1
 539 457 611 411 686 436 c 0
 738 453 792 514 796 612 c 0
 802 750 684 812 572 812 c 0
 492 812 412 768 376 730 c 0
 315 666 287 582 287 483 c 0
 287 384 310 319 370 254 c 0
 412 208 515 145 608 148 c 0
 872 156 927 289 966 340 c 1
 1048 456 1053 615 1151 615 c 0
 1292 615 1242 357 1292 357 c 0
 1368 357 1309 615 1457 615 c 8
 1578 615 1546 348 1616 348 c 0
 1670 348 1662 507 1760 507 c 0
 1846 507 1839 326 1979 326 c 2
 2358 326 l 9
 2358 218 l 17
 1973 218 l 2
 1839 218 1793 340 1776 340 c 0
632 605 m 0
 632 635 609 658 578 658 c 0
 548 658 522 633 524 602 c 0
 525 573 548 549 580 550 c 0
 610 550 633 574 632 605 c 0
EndSplineSet
EndChar
StartChar: afii61664
Encoding: 210 8204 212
OldEncoding: 8204
Width: 0
Flags: HW
Fore
36 1289 m 1
 36 -275 l 1
 -36 -275 l 1
 -36 1289 l 1
 36 1289 l 1
EndSplineSet
EndChar
StartChar: afii301
Encoding: 211 8205 213
OldEncoding: 8205
Width: 0
Flags: HW
Fore
36 -275 m 1
 -36 -275 l 1
 -36 1114 l 1
 -170 978 l 1
 -219 1027 l 1
 -48 1196 l 1
 -219 1364 l 1
 -170 1413 l 1
 0 1242 l 1
 170 1413 l 1
 219 1364 l 1
 48 1196 l 1
 219 1027 l 1
 170 978 l 1
 36 1114 l 1
 36 -275 l 1
EndSplineSet
EndChar
StartChar: afii299
Encoding: 212 8206 214
OldEncoding: 8206
Width: 0
Flags: HW
Fore
430 1198 m 1
 213 984 l 1
 164 1033 l 1
 301 1163 l 1
 35 1163 l 1
 35 -275 l 1
 -36 -275 l 1
 -36 1234 l 1
 301 1234 l 1
 164 1364 l 1
 213 1413 l 1
 430 1198 l 1
EndSplineSet
EndChar
StartChar: afii300
Encoding: 213 8207 215
OldEncoding: 8207
Width: 0
Flags: HW
Fore
35 -275 m 1
 -36 -275 l 1
 -36 1163 l 1
 -302 1163 l 1
 -165 1033 l 1
 -214 984 l 1
 -431 1198 l 1
 -214 1413 l 1
 -165 1364 l 1
 -302 1234 l 1
 35 1234 l 1
 35 -275 l 1
EndSplineSet
EndChar
StartChar: uni2010
Encoding: 214 8208 216
OldEncoding: 8208
Width: 973
Flags: HW
Fore
190 745 m 1
 815 745 l 1
 815 580 l 1
 190 580 l 1
 190 745 l 1
EndSplineSet
EndChar
StartChar: endash
Encoding: 215 8211 217
OldEncoding: 8211
Width: 1125
Flags: HW
Fore
1122 572 m 1
 -4 572 l 1
 -4 732 l 1
 1122 732 l 1
 1122 572 l 1
EndSplineSet
EndChar
StartChar: emdash
Encoding: 216 8212 218
OldEncoding: 8212
Width: 1886
Flags: HW
Fore
1866 572 m 1
 -4 572 l 1
 -4 732 l 1
 1866 732 l 1
 1866 572 l 1
EndSplineSet
EndChar
StartChar: afii00208
Encoding: 217 8213 219
OldEncoding: 8213
Width: 1862
Flags: HW
Fore
1752 572 m 1
 110 572 l 1
 110 732 l 1
 1752 732 l 1
 1752 572 l 1
EndSplineSet
EndChar
StartChar: underscoredbl
Encoding: 218 8215 220
OldEncoding: 8215
Width: 1118
Flags: HW
Fore
1134 -212 m 1
 -16 -212 l 1
 -16 -82 l 1
 1134 -82 l 1
 1134 -212 l 1
1134 -423 m 1
 -16 -423 l 1
 -16 -293 l 1
 1134 -293 l 1
 1134 -423 l 1
EndSplineSet
EndChar
StartChar: quoteleft
Encoding: 219 8216 221
OldEncoding: 8216
Width: 450
Flags: HW
Fore
335 997 m 1
 197 997 l 1
 -64 1556 l 1
 178 1556 l 1
 335 997 l 1
EndSplineSet
EndChar
StartChar: quoteright
Encoding: 220 8217 222
OldEncoding: 8217
Width: 580
Flags: HW
Fore
496 1556 m 1
 235 997 l 1
 97 997 l 1
 254 1556 l 1
 496 1556 l 1
EndSplineSet
EndChar
StartChar: quotesinglbase
Encoding: 221 8218 223
OldEncoding: 8218
Width: 432
Flags: HW
Fore
386 283 m 1
 125 -276 l 1
 -13 -276 l 1
 144 283 l 1
 386 283 l 1
EndSplineSet
EndChar
StartChar: quotereversed
Encoding: 222 8219 224
OldEncoding: 8219
Width: 432
Flags: HW
Fore
335 1556 m 1
 178 997 l 1
 -64 997 l 1
 197 1556 l 1
 335 1556 l 1
EndSplineSet
EndChar
StartChar: quotedblleft
Encoding: 223 8220 225
OldEncoding: 8220
Width: 850
Flags: HW
Fore
725 997 m 1
 591 997 l 1
 330 1556 l 1
 568 1556 l 1
 725 997 l 1
331 997 m 1
 197 997 l 1
 -64 1556 l 1
 174 1556 l 1
 331 997 l 1
EndSplineSet
EndChar
StartChar: quotedblright
Encoding: 224 8221 226
OldEncoding: 8221
Width: 1000
Flags: HW
Fore
896 1556 m 1
 635 997 l 1
 501 997 l 1
 658 1556 l 1
 896 1556 l 1
502 1556 m 1
 241 997 l 1
 107 997 l 1
 264 1556 l 1
 502 1556 l 1
EndSplineSet
EndChar
StartChar: quotedblbase
Encoding: 225 8222 227
OldEncoding: 8222
Width: 814
Flags: HW
Fore
781 283 m 1
 520 -276 l 1
 386 -276 l 1
 543 283 l 1
 781 283 l 1
387 283 m 1
 126 -276 l 1
 -8 -276 l 1
 149 283 l 1
 387 283 l 1
EndSplineSet
EndChar
StartChar: dagger
Encoding: 226 8224 228
OldEncoding: 8224
Width: 1118
Flags: HW
Fore
983 1034 m 1
 620 1039 l 1
 625 135 l 1
 493 135 l 1
 498 1039 l 1
 135 1034 l 1
 135 1163 l 1
 498 1158 l 1
 493 1556 l 1
 625 1556 l 1
 620 1158 l 1
 983 1163 l 1
 983 1034 l 1
EndSplineSet
EndChar
StartChar: daggerdbl
Encoding: 227 8225 229
OldEncoding: 8225
Width: 1118
Flags: HW
Fore
983 507 m 1
 620 512 l 1
 625 124 l 1
 493 124 l 1
 498 512 l 1
 135 507 l 1
 135 636 l 1
 498 631 l 1
 498 1049 l 1
 135 1044 l 1
 135 1173 l 1
 498 1168 l 1
 493 1556 l 1
 625 1556 l 1
 620 1168 l 1
 983 1173 l 1
 983 1044 l 1
 620 1049 l 1
 620 631 l 1
 983 636 l 1
 983 507 l 1
EndSplineSet
EndChar
StartChar: bullet
Encoding: 228 8226 230
OldEncoding: 8226
Width: 950
Flags: HW
Fore
817 662 m 0
 817 565 782 483 714 414 c 128
 644 345 562 311 465 311 c 0
 368 311 286 345 217 414 c 128
 148 483 114 565 114 662 c 128
 114 759 148 841 217 910 c 128
 286 979 368 1013 465 1013 c 0
 562 1013 645 979 714 910 c 0
 783 841 817 759 817 662 c 0
EndSplineSet
EndChar
StartChar: ellipsis
Encoding: 229 8230 231
OldEncoding: 8230
Width: 1650
Flags: HW
Fore
1497 0 m 1
 1293 0 l 1
 1293 223 l 1
 1497 223 l 1
 1497 0 l 1
939 0 m 1
 735 0 l 1
 735 223 l 1
 939 223 l 1
 939 0 l 1
381 0 m 1
 177 0 l 1
 177 223 l 1
 381 223 l 1
 381 0 l 1
EndSplineSet
EndChar
StartChar: perthousand
Encoding: 230 8240 232
OldEncoding: 8240
Width: 2848
Flags: HW
Fore
807 1076 m 0
 807 926 777 815 716 742 c 128
 656 670 569 634 455 634 c 0
 339 634 251 671 192 744 c 128
 132 817 102 928 102 1075 c 0
 102 1224 132 1335 193 1408 c 128
 254 1481 341 1517 455 1517 c 0
 571 1517 659 1480 718 1407 c 128
 777 1334 807 1223 807 1076 c 0
1473 1489 m 1
 693 0 l 1
 528 0 l 1
 1308 1489 l 1
 1473 1489 l 1
1897 413 m 0
 1897 263 1867 152 1806 80 c 128
 1746 7 1659 -29 1545 -29 c 0
 1429 -29 1341 8 1282 81 c 128
 1222 154 1192 265 1192 412 c 0
 1192 561 1222 672 1283 745 c 128
 1344 818 1431 854 1545 854 c 0
 1661 854 1749 817 1808 744 c 128
 1867 671 1897 560 1897 413 c 0
629 1076 m 0
 629 1177 617 1254 594 1306 c 128
 570 1358 524 1384 455 1384 c 128
 386 1384 340 1358 316 1305 c 128
 292 1252 280 1176 280 1075 c 0
 280 975 291 899 314 846 c 128
 337 793 384 767 455 767 c 0
 524 767 570 793 594 846 c 128
 617 899 629 975 629 1076 c 0
1719 413 m 0
 1719 514 1707 591 1684 643 c 128
 1660 695 1614 721 1545 721 c 128
 1476 721 1430 695 1406 642 c 128
 1382 589 1370 513 1370 412 c 0
 1370 312 1381 236 1404 183 c 128
 1427 130 1474 104 1545 104 c 0
 1614 104 1660 130 1684 183 c 128
 1707 236 1719 312 1719 413 c 0
2741 413 m 0
 2741 263 2711 152 2650 80 c 128
 2590 7 2503 -29 2389 -29 c 0
 2273 -29 2185 8 2126 81 c 128
 2066 154 2036 265 2036 412 c 0
 2036 561 2066 672 2127 745 c 128
 2188 818 2275 854 2389 854 c 0
 2505 854 2593 817 2652 744 c 128
 2711 671 2741 560 2741 413 c 0
2563 413 m 0
 2563 514 2551 591 2528 643 c 128
 2504 695 2458 721 2389 721 c 128
 2320 721 2274 695 2250 642 c 128
 2226 589 2214 513 2214 412 c 0
 2214 312 2225 236 2248 183 c 128
 2271 130 2318 104 2389 104 c 0
 2458 104 2504 130 2528 183 c 128
 2551 236 2563 312 2563 413 c 0
EndSplineSet
EndChar
StartChar: minute
Encoding: 231 8242 233
OldEncoding: 8242
Width: 602
Flags: HW
Fore
571 1489 m 1
 273 870 l 1
 137 870 l 1
 331 1489 l 1
 571 1489 l 1
EndSplineSet
EndChar
StartChar: second
Encoding: 232 8243 234
OldEncoding: 8243
Width: 972
Flags: HW
Fore
567 1489 m 1
 269 870 l 1
 137 870 l 1
 331 1489 l 1
 567 1489 l 1
961 1489 m 1
 663 870 l 1
 531 870 l 1
 725 1489 l 1
 961 1489 l 1
EndSplineSet
EndChar
StartChar: guilsinglleft
Encoding: 233 8249 235
OldEncoding: 8249
Width: 784
Flags: HW
Fore
633 172 m 1
 123 608 l 1
 123 697 l 1
 633 1132 l 1
 633 933 l 1
 302 652 l 1
 633 371 l 1
 633 172 l 1
EndSplineSet
EndChar
StartChar: guilsinglright
Encoding: 234 8250 236
OldEncoding: 8250
Width: 784
Flags: HW
Fore
661 608 m 1
 151 172 l 1
 151 371 l 1
 482 652 l 1
 151 933 l 1
 151 1132 l 1
 661 697 l 1
 661 608 l 1
EndSplineSet
EndChar
StartChar: uni203E
Encoding: 236 8254 238
OldEncoding: 8254
Width: 1118
Flags: HW
Fore
1118 1658 m 1
 -48 1658 l 1
 -48 1789 l 1
 1118 1789 l 1
 1118 1658 l 1
EndSplineSet
EndChar
StartChar: fraction
Encoding: 237 8260 239
OldEncoding: 8260
Width: 886
Flags: HW
Fore
916 1489 m 1
 136 0 l 1
 -29 0 l 1
 751 1489 l 1
 916 1489 l 1
EndSplineSet
EndChar
StartChar: uni207F
Encoding: 238 8319 240
OldEncoding: 8319
Width: 1010
Flags: HW
Fore
890 566 m 1
 718 566 l 1
 718 1088 l 2
 718 1135 717 1176 714 1210 c 128
 711 1244 704 1273 691 1298 c 0
 679 1322 661 1340 637 1351 c 128
 613 1362 581 1368 541 1368 c 0
 499 1368 458 1357 418 1336 c 128
 377 1314 337 1287 296 1254 c 1
 296 566 l 1
 125 566 l 1
 125 1488 l 1
 296 1488 l 1
 296 1388 l 1
 345 1430 392 1462 437 1485 c 128
 482 1508 532 1519 586 1519 c 0
 683 1519 758 1489 810 1428 c 128
 864 1368 890 1280 890 1163 c 2
 890 566 l 1
EndSplineSet
EndChar
StartChar: dottedcircle
Encoding: 239 9676 241
OldEncoding: 9676
Width: 1255
Flags: HW
Fore
143 928 m 0
 143 945 149 960 160 972 c 128
 171 983 186 989 203 989 c 0
 220 989 235 983 246 972 c 128
 258 960 264 945 264 928 c 0
 264 911 258 896 246 885 c 128
 235 874 220 868 203 868 c 0
 186 868 171 874 160 885 c 128
 149 896 143 911 143 928 c 0
332 1071 m 0
 332 1088 338 1103 349 1114 c 128
 360 1126 375 1132 392 1132 c 0
 409 1132 424 1126 436 1114 c 128
 447 1103 453 1088 453 1071 c 0
 453 1054 447 1039 436 1028 c 128
 424 1017 409 1011 392 1011 c 0
 375 1011 360 1017 349 1028 c 128
 338 1039 332 1054 332 1071 c 0
558 1139 m 0
 558 1156 564 1171 575 1182 c 128
 586 1194 601 1200 618 1200 c 0
 635 1200 650 1194 662 1182 c 128
 673 1171 679 1156 679 1139 c 0
 679 1122 673 1107 662 1096 c 128
 650 1085 635 1079 618 1079 c 0
 601 1079 586 1085 575 1096 c 128
 564 1107 558 1122 558 1139 c 0
22 505 m 0
 22 522 28 537 39 548 c 128
 50 560 65 566 82 566 c 0
 99 566 114 560 126 548 c 128
 137 537 143 522 143 505 c 0
 143 488 137 473 126 462 c 128
 114 451 99 445 82 445 c 0
 65 445 50 451 39 462 c 128
 28 473 22 488 22 505 c 0
143 309 m 0
 143 326 149 341 160 352 c 128
 171 364 186 370 203 370 c 0
 220 370 235 364 246 352 c 128
 258 341 264 326 264 309 c 0
 264 292 258 277 246 266 c 128
 235 255 220 249 203 249 c 0
 186 249 171 255 160 266 c 128
 149 277 143 292 143 309 c 0
286 158 m 0
 286 175 292 190 303 202 c 128
 314 213 329 219 346 219 c 0
 363 219 378 213 390 202 c 128
 401 190 407 175 407 158 c 0
 407 141 401 126 390 115 c 128
 378 104 363 98 346 98 c 0
 329 98 314 104 303 115 c 128
 292 126 286 141 286 158 c 0
551 67 m 0
 551 84 557 99 568 110 c 128
 579 122 594 128 611 128 c 0
 628 128 643 122 654 110 c 128
 666 99 672 84 672 67 c 0
 672 50 666 35 654 24 c 128
 643 13 628 7 611 7 c 0
 594 7 579 13 568 24 c 128
 557 35 551 50 551 67 c 0
845 128 m 0
 845 145 851 160 862 172 c 128
 873 183 888 189 905 189 c 0
 922 189 937 183 948 172 c 128
 960 160 966 145 966 128 c 0
 966 111 960 96 948 85 c 128
 937 74 922 68 905 68 c 0
 888 68 873 74 862 85 c 128
 851 96 845 111 845 128 c 0
1011 294 m 0
 1011 311 1017 326 1028 338 c 128
 1039 349 1054 355 1071 355 c 0
 1088 355 1103 349 1114 338 c 128
 1126 326 1132 311 1132 294 c 0
 1132 277 1126 262 1114 251 c 128
 1103 240 1088 234 1071 234 c 0
 1054 234 1039 240 1028 251 c 128
 1017 262 1011 277 1011 294 c 0
1086 498 m 0
 1086 515 1092 530 1103 542 c 128
 1114 553 1129 559 1146 559 c 0
 1163 559 1178 553 1190 542 c 128
 1201 530 1207 515 1207 498 c 0
 1207 481 1201 466 1190 455 c 128
 1178 444 1163 438 1146 438 c 0
 1129 438 1114 444 1103 455 c 128
 1092 466 1086 481 1086 498 c 0
1072 739 m 0
 1072 756 1078 771 1089 782 c 128
 1100 794 1115 800 1132 800 c 0
 1149 800 1164 794 1176 782 c 128
 1187 771 1193 756 1193 739 c 0
 1193 722 1187 707 1176 696 c 128
 1164 685 1149 679 1132 679 c 0
 1115 679 1100 685 1089 696 c 128
 1078 707 1072 722 1072 739 c 0
965 951 m 0
 965 968 971 983 982 994 c 128
 993 1006 1008 1012 1025 1012 c 0
 1042 1012 1057 1006 1068 994 c 128
 1080 983 1086 968 1086 951 c 0
 1086 934 1080 919 1068 908 c 128
 1057 897 1042 891 1025 891 c 0
 1008 891 993 897 982 908 c 128
 971 919 965 934 965 951 c 0
777 1094 m 0
 777 1111 783 1126 794 1138 c 128
 805 1149 820 1155 837 1155 c 0
 854 1155 869 1149 880 1138 c 128
 892 1126 898 1111 898 1094 c 0
 898 1077 892 1062 880 1051 c 128
 869 1040 854 1034 837 1034 c 0
 820 1034 805 1040 794 1051 c 128
 783 1062 777 1077 777 1094 c 0
37 739 m 0
 37 756 43 771 54 782 c 128
 65 794 80 800 97 800 c 0
 114 800 129 794 140 782 c 128
 152 771 158 756 158 739 c 0
 158 722 152 707 140 696 c 128
 129 685 114 679 97 679 c 0
 80 679 65 685 54 696 c 128
 43 707 37 722 37 739 c 0
EndSplineSet
EndChar
StartChar: uni0E10.descless
Encoding: 240 63232 242
OldEncoding: 63232
Width: 1100
Flags: HW
Fore
294 589 m 0
 263 589 238 574 219 543 c 0
 209 526 204 509 204 492 c 2
 204 485 l 1
 207 439 225 408 256 391 c 0
 267 385 280 382 294 382 c 1
 330 385 353 400 362 429 c 0
 367 444 369 464 369 490 c 1
 366 541 353 572 329 583 c 0
 320 587 308 589 294 589 c 0
762 529 m 2
 762 583 711 625 610 656 c 0
 481 695 306 731 85 762 c 1
 99 829 126 894 166 957 c 0
 203 1016 255 1063 321 1099 c 0
 382 1132 459 1149 554 1149 c 0
 631 1149 702 1134 769 1103 c 0
 824 1078 885 1065 953 1065 c 0
 979 1065 1002 1067 1022 1072 c 1
 983 917 l 1
 966 913 947 911 925 912 c 0
 863 912 809 922 763 941 c 0
 760 942 758 943 756 944 c 0
 681 980 609 998 541 998 c 0
 532 998 522 998 513 997 c 0
 453 993 402 967 359 918 c 0
 346 903 336 887 329 872 c 1
 468 849 l 1
 617 815 725 780 792 744 c 0
 879 698 922 641 922 574 c 2
 922 279 l 2
 922 168 884 87 809 36 c 0
 763 5 707 -10 642 -10 c 0
 455 -10 362 88 362 283 c 2
 362 317 l 1
 351 303 329 294 298 290 c 0
 286 288 l 1
 252 291 l 1
 217 296 186 312 159 339 c 0
 109 389 95 460 117 551 c 0
 128 594 155 631 198 661 c 0
 231 684 268 696 310 697 c 0
 314 697 314 697 319 697 c 0
 373 696 418 678 455 642 c 0
 500 599 522 527 522 428 c 2
 522 283 l 2
 522 194 562 150 642 150 c 0
 718 150 758 189 761 268 c 0
 762 271 762 275 762 279 c 2
 762 529 l 2
EndSplineSet
EndChar
StartChar: uni0E34.left
Encoding: 241 63233 243
OldEncoding: 63233
Width: 0
Flags: HW
Fore
-456 1176 m 1
 -599 1207 -809 1233 -1086 1255 c 0
 -1217 1266 -1322 1271 -1401 1271 c 1
 -1380 1340 -1332 1407 -1257 1472 c 0
 -1229 1496 -1201 1516 -1173 1532 c 0
 -1105 1571 -1025 1590 -934 1590 c 0
 -914 1590 -894 1589 -874 1587 c 0
 -784 1577 -701 1542 -624 1481 c 0
 -617 1476 -610 1470 -603 1464 c 0
 -530 1399 -481 1303 -456 1176 c 1
-641 1308 m 1
 -646 1340 -671 1373 -714 1408 c 0
 -767 1451 -827 1474 -892 1479 c 1
 -949 1479 l 1
 -1032 1474 -1098 1446 -1147 1396 c 1
 -1169 1370 l 2
 -1171 1367 -1173 1365 -1174 1362 c 1
 -1086 1360 l 1
 -943 1353 -811 1339 -692 1318 c 0
 -671 1315 -654 1311 -641 1308 c 1
EndSplineSet
EndChar
StartChar: uni0E35.left
Encoding: 242 63234 244
OldEncoding: 63234
Width: 0
Flags: HW
Fore
-499 1196 m 1
 -496 1185 -494 1174 -492 1164 c 1
 -636 1195 -846 1221 -1123 1244 c 0
 -1247 1254 -1347 1259 -1422 1259 c 0
 -1429 1259 -1429 1259 -1437 1259 c 1
 -1416 1328 -1368 1395 -1293 1460 c 0
 -1265 1484 -1237 1504 -1209 1520 c 0
 -1141 1559 -1062 1578 -971 1578 c 0
 -950 1578 -930 1577 -911 1575 c 0
 -820 1565 -737 1530 -660 1469 c 0
 -657 1466 -653 1464 -649 1461 c 1
 -649 1671 l 1
 -499 1671 l 1
 -499 1196 l 1
-691 1306 m 1
 -706 1337 -738 1368 -785 1397 c 0
 -831 1426 -879 1442 -928 1447 c 1
 -977 1448 l 1
 -1043 1444 -1101 1425 -1151 1390 c 0
 -1166 1380 -1177 1370 -1185 1360 c 1
 -1087 1360 -963 1349 -813 1328 c 0
 -760 1321 -720 1313 -691 1306 c 1
EndSplineSet
EndChar
StartChar: uni0E36.left
Encoding: 243 63235 245
OldEncoding: 63235
Width: 0
Flags: HW
Fore
-766 1494 m 1
 -756 1531 -739 1560 -715 1581 c 0
 -681 1612 -642 1627 -597 1627 c 0
 -542 1627 -496 1607 -459 1566 c 0
 -428 1533 -413 1494 -413 1448 c 0
 -413 1391 -436 1344 -481 1308 c 0
 -515 1281 -555 1267 -601 1267 c 1
 -595 1250 -588 1219 -579 1174 c 1
 -722 1205 -932 1231 -1209 1254 c 0
 -1340 1264 -1445 1269 -1523 1269 c 1
 -1502 1338 -1455 1405 -1380 1470 c 0
 -1352 1494 -1324 1514 -1296 1530 c 0
 -1228 1569 -1148 1588 -1057 1588 c 0
 -1037 1588 -1017 1587 -997 1585 c 0
 -916 1576 -839 1545 -766 1494 c 1
-597 1514 m 0
 -625 1514 -646 1502 -659 1479 c 1
 -666 1469 -669 1458 -669 1446 c 0
 -669 1419 -657 1398 -632 1384 c 0
 -621 1378 -610 1375 -597 1375 c 0
 -565 1375 -543 1388 -530 1414 c 0
 -525 1424 -523 1435 -523 1446 c 0
 -523 1474 -536 1494 -563 1507 c 1
 -586 1514 l 1
 -591 1514 -591 1514 -597 1514 c 0
-773 1304 m 1
 -788 1335 -819 1367 -865 1400 c 0
 -915 1435 -965 1454 -1015 1459 c 1
 -1059 1460 l 1
 -1122 1455 -1182 1433 -1237 1394 c 1
 -1266 1369 l 2
 -1270 1366 -1273 1362 -1276 1358 c 1
 -1177 1358 -1052 1347 -900 1326 c 0
 -844 1319 -802 1311 -773 1304 c 1
EndSplineSet
EndChar
StartChar: uni0E37.left
Encoding: 244 63236 246
OldEncoding: 63236
Width: 0
Flags: HW
Fore
-809 1516 m 1
 -794 1516 -770 1500 -735 1469 c 0
 -733 1467 -731 1466 -730 1465 c 1
 -730 1667 l 1
 -580 1667 l 1
 -580 1230 l 1
 -578 1173 l 1
 -721 1204 -936 1230 -1223 1253 c 0
 -1342 1263 -1434 1268 -1499 1268 c 1
 -1468 1361 -1403 1440 -1302 1506 c 0
 -1247 1543 -1177 1566 -1094 1576 c 1
 -1034 1579 l 1
 -1007 1578 -982 1575 -959 1570 c 1
 -959 1668 l 1
 -809 1668 l 1
 -809 1516 l 1
-792 1315 m 1
 -811 1354 -843 1387 -889 1414 c 0
 -926 1436 -966 1448 -1009 1451 c 1
 -1065 1451 l 1
 -1147 1444 -1209 1415 -1251 1362 c 2
 -1253 1359 l 1
 -1131 1354 l 1
 -961 1343 -848 1330 -792 1315 c 1
EndSplineSet
EndChar
StartChar: uni0E48.low_left
Encoding: 245 63237 247
OldEncoding: 63237
Width: 0
Flags: HW
Fore
-618 1580 m 1
 -476 1580 l 1
 -476 1300 l 1
 -618 1300 l 1
 -618 1580 l 1
EndSplineSet
EndChar
